<?xml version="1.0" standalone="no"?>
<!DOCTYPE svg PUBLIC "-//W3C//DTD SVG 1.1//EN" "http://www.w3.org/Graphics/SVG/1.1/DTD/svg11.dtd" >
<svg xmlns="http://www.w3.org/2000/svg">
<metadata></metadata>
<defs>
<font id="DearJoeItalic" horiz-adv-x="509" >
<font-face units-per-em="2048" ascent="1638" descent="-410" />
<missing-glyph horiz-adv-x="500" />
<glyph unicode=" " />
<glyph unicode="!" horiz-adv-x="393" d="M49 6q6 23 27 57q49 -9 63 -38q-16 -10 -10 -29q-16 2 -27 -16q-31 8 -53 26zM170 358q26 37 37.5 97.5t78 224.5t79.5 258l10 -6l4 10l43 -4q25 -4 31 -29q-68 -113 -68 -127q0 -4 8 -12q-10 -4 -31.5 -54.5t-33.5 -77.5q-56 -117 -56 -161q-18 -8 -32 -84 q-23 -35 -23 -47h-41z" />
<glyph unicode="&#x22;" horiz-adv-x="546" d="M123 645q6 10 30.5 45t22.5 70q14 2 25 6q-18 10 -22.5 30.5t-8.5 26.5q27 44 84 97l35 -7q12 0 41 -43q-20 -14 -19 -63q-43 -92 -57 -92t-14 -15q0 -8 2 -14h-4q-12 0 -40 -28t-38 -27l-25 10q-16 0 -12 4zM307 645q6 10 30.5 45t22.5 70q14 2 25 6q-18 10 -22.5 30.5 t-8.5 26.5q25 40 84 97l35 -7q12 0 41 -43q-20 -14 -18 -63q-43 -92 -58 -92q-14 0 -14 -15q0 -8 2 -14h-4q-12 0 -40 -28t-38 -27l-25 10q-16 0 -12 4z" />
<glyph unicode="#" horiz-adv-x="649" d="M18 197q6 37 84 49l17 -4q6 0 6 4l2 -4l4 10q0 -4 12 -6l58 10q6 17 20 72l-10 8l-78 -29q-8 0 -27.5 19.5t-19.5 28.5t11.5 24.5t21.5 15.5l28 -4q12 0 51.5 11t43.5 22v22q0 10 14 17q-6 6 -6 16q29 41 43 41q43 -23 43 -41v-18q-2 -8 -2 -19q-10 -4 -10 -12h4 q4 0 24 -4l10 10q8 -4 19.5 -5t24 30t12.5 51q-4 2 -8 -2q0 -18 12 59q20 16 45 31q33 -12 47 -33v-45q-37 -23 -31 -59l-20 -10v-19q8 6 63 6l25 6q6 0 7 -5t7 -5l43 4q23 0 29 -2q-14 -8 -10 -16q-12 0 -52.5 -15t-58.5 -16l-10 -6q-6 0 -6 4l2 6l-10 -8q4 -4 -48 -4 q4 -4 5 -10q0 8 -29 -68q6 -8 12 -8l98 14l41 -10l25 10q10 0 45 -10v-25q-8 -2 -8 -4t2 -4l-10 8q-10 2 -33 -14q-12 4 -41 4l-74 -14q-2 -2 -2 -5t4 -3q-16 4 -24 4q-55 0 -69.5 -93t-49.5 -120l6 6l-27 8v21l19 43q0 8 -8 16q6 39 18 55v33l-20 2q-35 4 -41 -16 q-4 4 -17.5 4t-25.5 -12l2 -9l-23 -98q-8 -14 -25.5 -14t-21.5 10l-10 4v6q0 12 12 42t12 46q-4 4 -11 4t-48 -19t-56.5 -19.5t-20.5 6t-10 13.5q-12 16 -15 13l6 10q-10 8 -13 7zM270 279l13 -7l10 11q20 -2 61 4q4 14 6 25.5t5 19.5q7 29 -3 39q-53 -4 -67 -27z" />
<glyph unicode="$" horiz-adv-x="692" d="M18 170q6 6 7 18q33 16 65 17l21 10h92q2 0 3 5t7 5t2 -4t0 -6q10 27 23 33q-2 0 -13.5 1t-11.5 -3l4 -4q-2 2 -12 2l-74 -11q-15 0 -29 9l-8 -6v57q8 8 4 14q72 16 78 17l19 -11l4 6l47 5l18 -5l21 11l14 -6l31 10h2q2 2 -2 8q0 -6 90 68t108 73l15 -4q4 2 5 8.5t5 6.5 q31 0 41 -13l10 -45q0 -12 -20 -21t-21 -12l-10 -10q-12 16 -23 17q-6 -4 -31.5 -19.5t-72.5 -44.5q14 -4 23 -12h8q18 0 24 6h19q10 -2 20 -2l4 -23q-14 -6 -14 -16l-12 10l-9 -10l-8 2q-4 -2 -2 -4q-8 6 -35 0t-30 -16l-11 8q-10 -10 -20 -10l-8 6l-10 -11 q-28 -4 -35.5 -7t-7.5 -25l-13 2l-12 -11q2 -4 8 -4h25l35 -4q6 0 6 4l-2 7q-2 -2 -2 -7q0 -4 7 -4t7 2l-2 4q0 -4 4 -12l66 21h18q2 -2 2 -9h20q2 0 7 -4q0 -20 -52 -28l-69 -13l-17 -20q-10 6 -50.5 6t-65.5 -25q2 -6 6 -15t8 -19l2 -21q0 -10 28 -25t38 -16l86 4l47 15 l10 10q6 6 117 61q10 10 27.5 24.5t39.5 35.5q19 -5 19 -17q0 -25 -103 -96q-23 -14 -55.5 -35.5t-77.5 -50.5l-135 -8q-20 0 -60 25.5t-51.5 47t-7.5 70.5l-10 13q-4 -2 -16.5 -6.5t-34.5 -14.5l-47 -18q-6 0 -39 16q-14 20 -15 43z" />
<glyph unicode="%" horiz-adv-x="667" d="M31 432q10 71 20 103q11 35 60 118q49 76 49 93t-21 38v23q86 35 107 35l24 -8l70 -7q61 0 86 31l8 -10q6 10 17 10q39 0 85 39t54 39q9 0 31 -4l30 -6q-2 -4 -2 -13l6 -18q0 -12 -48 -45t-52 -55q-71 -114 -128 -243q-73 -164 -119 -250q-93 -176 -150 -347l-17 4 l-28 -8q-8 0 -29 31q14 18 31.5 80.5t58.5 78.5q175 368 293 641q-4 16 -12 17q-14 0 -43 -10.5t-37 -10.5l-33 4l-16 -14q-4 2 -7.5 2t-7.5 2q-8 0 -45 -49q-31 -4 -30 -51q0 -8 2 -13l-11 5q-8 -66 -8 -109q-10 -10 -44 -79.5t-58 -69.5l-21 -11q-18 0 -26 2l2 2 q0 10 -13.5 10.5t-18.5 10.5t-9 12zM109 510q0 -2 4 -9t4 -12q12 18 23.5 47t12.5 40.5t5 25.5q-25 -10 -47 -88q-2 -2 -2 -4zM328 35q2 8 4 26.5t5 55.5t23 63q30 89 39 107q37 43 56 71q0 10 26 43q27 33 39 33h4v-8l25 8q24 1 63 -69q0 -8 -12 -23q0 -17 -8 -44 q-14 -46 -14 -65l-13 3q-133 -233 -174 -234q-2 2 -63 33zM403 113l17 -7q33 37 58.5 90.5t37.5 79t16 29.5l-10 4l15 17l-11 2l9 12q-36 -36 -54 -49q-5 -16 -41.5 -80.5t-36.5 -85.5v-12z" />
<glyph unicode="&#x26;" horiz-adv-x="526" d="M31 135q39 47 81 95.5t93 74.5q-2 0 -2 2q4 4 8 6q-29 25 -55 43q6 53 59 95q27 20 96 59q25 -2 50.5 57t25.5 78.5t-12 24.5l35 88q14 45 61 45q2 0 2 -5t5 -5t5 4l-2 4q1 -33 17 -39q-10 -23 -22.5 -51.5t-28.5 -71.5q-36 -96 -44 -111q45 -20 46 -53q0 -6 -5.5 -15 t-5.5 -14q4 4 -12 5l-35 -15q-18 0 -18 -4q-11 8 -37.5 8t-85.5 -47q12 -12 33 -12q18 -18 36 -33q-10 -16 -10 -45q-4 -2 -17 -12q-78 -60 -88.5 -60t-53.5 -52t-44 -64q0 -12 19.5 -32t29 -20t9.5 -3t6 -3t31.5 10.5t42.5 10.5l8 -6l16 10q53 0 181 102l-11 11l29 16 q20 0 20 -4t-4 -8l11 -9v-22q-18 -2 -42 -22.5t-24 -36.5q4 4 -7 4t-39 -25t-46.5 -31t-52.5 -39q-18 -59 -17 -69q-34 -54 -81.5 -191t-80.5 -190l-8 4l-8 -4l-6 29q0 12 21.5 70t23.5 69.5t6 30t8 42t9 47.5q11 44 36 121v19q-10 6 -20 6t-19 -6l-10 8q-59 0 -84 51 q-23 55 -22 80z" />
<glyph unicode="'" horiz-adv-x="378" d="M164 645q6 10 30.5 45t22.5 70q14 2 25 6q-18 10 -22.5 30.5t-8.5 26.5q27 44 84 97l35 -7q12 0 41 -43q-20 -14 -19 -63q-43 -92 -57 -92t-14 -15q0 -8 2 -14h-4q-12 0 -40 -28t-38 -27l-25 10q-16 0 -12 4z" />
<glyph unicode="(" horiz-adv-x="421" d="M0 113l2 -2l4 8q-2 -4 -2 45v14q16 16 16 44t39 96.5t35 82.5q44 44 71 88.5t37.5 62t24.5 40.5q33 35 81 85t112 120l10 -11q-2 2 -2 7l6 4l10 -4q8 6 21 6q33 0 33 -39q0 -23 -52 -49q-49 -29 -49 -43q-66 -25 -151 -148q-20 -33 -51 -79t-72 -109q-20 -58 -60 -129 q8 -4 17 -13l-10 7l-13 -29q0 -4 9 -18l-3 6v-4q-2 -8 5 -21l-9 4q-4 0 -4 -14.5t11 -30.5l-5 -10l5 -8q-2 -6 -3 -17q0 -41 43 -67q12 -8 31 -19.5t41 -27.5l-12 -13q-4 2 -43 6t-73 49.5t-42 79.5q8 18 8 28.5t-16 21.5z" />
<glyph unicode=")" horiz-adv-x="428" d="M-23 -74q88 43 166 135q90 115 90 142q29 20 67 156.5t38 183.5t-14.5 100t-28.5 74q2 10 19.5 26.5t24.5 16.5t9 -5t8 -5q41 0 41 -66q0 -19 -4 -43q10 0 10 -3t-10 -38l6 -8l-18 -96q4 -4 4 -11l-12 -53q0 -10 6 -16q-37 -102 -35 -127q-31 -23 -39 -78 q-45 -78 -88 -121q-18 -25 -158 -168l-45 -20q-14 0 -24 5t-6 9z" />
<glyph unicode="*" horiz-adv-x="548" d="M41 174v43l76 14l10 11q8 0 78 28q-16 39 -72 60q-55 25 -63 39v4q0 -8 -15 33q20 2 49 18q2 6 9 6q20 0 43.5 -23.5t25.5 -29.5l4 8q22 -22 54 -49l-7 -2l13 -8q66 96 53 178l10 -4q2 0 2 2q-8 6 -8 11t12.5 9t14.5 8h41q10 0 20 -10l-6 -12q2 -8 12 -8 q-26 -60 -90 -185q2 -2 9 -2t14 2h14l10 11l31 10v-8q2 -2 6 -2t6 8t9 8l10 -6l53 24l16 -4v9q2 2 19 1.5t33 -14.5q-14 0 -15 -6l4 -8q-35 -7 -64.5 -17.5t-31.5 -23.5q-4 4 -11 4t-35 -17t-28 -18q-23 0 -49 -18q50 -50 131 -148q-14 -12 -10 -16q-12 4 -23.5 15.5 t-30.5 23.5q-30 19 -40 24q-16 14 -33.5 28.5t-34.5 31.5q-8 -14 -15 -40t-18 -63q-4 -4 -18 -41q-6 -6 -14 -15t-19 -19q-6 2 -28 6q40 100 45 110v39q-2 2 -3 2t-5 1t-16.5 -5t-24.5 -14q-33 -21 -53 -21t-21 -2l4 -8l-16 15q-9 10 -23 22z" />
<glyph unicode="+" d="M39 195v12l4 35q20 27 57 26l56 -4q12 0 23 7t16 8q10 0 6 -5q-4 -4 0 -6q18 8 41 77t63 93q23 -10 23 -28q0 6 -45 -109v-12l6 4q0 2 19 -4t22 -6q6 6 35 16l14 -6l41 14h100l10 -22q-10 -2 -33.5 -14.5t-37.5 -12.5l-15 6q0 -4 -17 -6t-23.5 -5t-2.5 -9q-8 4 -26 4 l-21 -8q-39 0 -55 -17q-16 0 -18 6q-35 -37 -54 -110.5t-26 -93.5l-11 10l-4 -10q-57 35 -6 77q2 29 23 99q-6 8 -21.5 8t-52.5 -16l4 -9q-12 4 -29.5 4t-37.5 -10q-6 14 -27 17z" />
<glyph unicode="," horiz-adv-x="378" d="M61 -111q6 10 35 54q23 29 19 59q14 2 24 6q-18 10 -22 30.5t-8 27.5q26 41 84 96l34 -6q12 0 41 -43q-20 -14 -18 -64q-43 -90 -57 -90q-21 0 -13 -29h-4q-14 0 -42 -27.5t-36 -27.5l-24 10q-16 0 -13 4z" />
<glyph unicode="-" horiz-adv-x="438" d="M37 260q8 8 44 14t52.5 9.5t24.5 3.5l65 -21l15 6l43 -10l94 4q18 1 28 -28q-92 -31 -186 -31l-24 10l-9 -10h-20l-90 -10q-4 0 -27 22v4q0 2 -10 37z" />
<glyph unicode="." horiz-adv-x="333" d="M76 29l6 26q49 76 94 76q12 0 27.5 -15.5t15.5 -27.5q0 -37 -61 -88q-12 0 -37 -6q-2 1 -45 35z" />
<glyph unicode="/" horiz-adv-x="423" d="M31 -4q20 53 35 95q63 169 105 234t122 232.5t78 204.5l14 4q2 2 2 7t-8 11q8 8 33 23l30 -16q21 -13 21 -27q-8 -8 -8 -15.5t4 -19.5q-29 -6 -53 -80q-27 -35 -68 -100l-8 -8l10 -11q-29 -23 -47 -96l-10 6q-40 -68 -113 -243q-14 -2 -20 -43q-31 -102 -80 -185 q-2 2 -7 2q-4 0 -10 -8z" />
<glyph unicode="0" horiz-adv-x="356" d="M20 111q0 68 89 198q20 33 52 80t72 111q16 29 45 28.5t39 -10.5t33 -47q-12 -6 -22 -31q-6 -29 -19 -39l21 -10q-16 -31 -20.5 -67.5t-19.5 -74.5t-9 -56q-12 -12 -33.5 -56.5t-46.5 -54.5l10 -2q-37 -47 -78 -82l-10 2q-10 -2 -41 -12q-12 27 -55 39q2 4 2 16zM86 112 q0 -35 16 -57q61 47 107.5 142.5t44.5 175.5l-29 4q-12 -10 -30 -31l10 -14q-39 -16 -79 -100.5t-40 -119.5z" />
<glyph unicode="1" horiz-adv-x="264" d="M25 24.5q0 22.5 34 63.5q-8 8 -14 10q8 6 29.5 58.5t34.5 52.5l-11 2q37 76 62 168h22q9 -4 17 -12q-2 -2 -2 -16.5t-7 -20.5q-2 8 -6 8t-6 -2q10 -10 10 -31t-37.5 -99.5t-37.5 -109.5q-14 -12 -9 -28q-10 -26 -28 -56q-18 -4 -39 -18q-12 8 -12 30.5z" />
<glyph unicode="2" horiz-adv-x="411" d="M10 -18v47l23 10q14 6 14 18l-8 9q41 23 84 135q35 35 78 108l67 115l-12 8q-31 -25 -78 -55q-78 -61 -86 -105q0 2 -2 2l-22 -6l-27 6v7l-6 28q0 27 67 80q17 10 93 72q100 100 151 100q6 0 21 -14l16 -19q-25 -43 -25 -55t4 -24q-23 -16 -90.5 -127.5t-76.5 -145.5 q-45 -55 -72 -119q2 2 8 2h16l134 15l20 10l25 -6l69 16q6 0 20.5 -3t20.5 -3q-4 -14 -10 -20q-8 -4 -11 -8.5t-5 -6.5q2 6 -11 6l-45 -20l-14 4l-35 -14l-20 4q-4 0 -11.5 -7.5t-17.5 -7.5l-160 -57q-8 0 -12 -5t-8 -5h-29l-33 18q4 4 -4 13z" />
<glyph unicode="3" horiz-adv-x="446" d="M68 393q20 8 24 25q49 27 129 55l17 14l65 21l19 -4q4 2 5 6t14 4t47 12.5t52 12.5l33 -33q-35 -68 -57 -68q-4 0 -5 -5t-3 -5q-14 0 -172 -170q2 -2 1 -9t13 -14.5t16 -9.5l25 -26l2 -11v-4v-16t6 -41q-14 -14 -12 -39q-57 -63 -137 -160h-27q-20 0 -47 39 q86 37 153 162q-18 41 -41 41l-51 -4q-6 0 -16 14.5t-15 16.5q2 9 21 49l-4 -4q0 -4 6 -6q47 51 147 163q4 2 11.5 10.5t21.5 22.5q-18 9 -18 4.5t6 -10.5q-6 8 -14 8q-39 0 -123 -84q-12 -4 -23 -16l4 -8q-18 4 -51 20q-14 20 -22 47zM305 436h19v8h-19v-8z" />
<glyph unicode="4" horiz-adv-x="471" d="M-14 126q0 13 200 257q29 42 125 152l-10 4q8 18 82 123q74 -12 74 -50q0 -8 -16.5 -40t-14.5 -37q-25 -4 -25 -19q-29 -55 -110 -254v-14q2 -2 6 -2t12 8l10 -10q18 20 84 20q2 0 7.5 -2t3.5 -2t53 14l12 11q8 -12 27 -13q-2 -2 -2 -8t6 -12q-125 -63 -125 -57 q2 6 -10 6q-14 0 -8 -6q0 -2 2 -2l-11 8q-13 -23 -34 -13h-13q-31 0 -71 -71v-4q2 -18 -8.5 -47.5t-13.5 -41.5t-5 -16l-10 -8l10 -10q-18 -14 -20 -56q-6 -2 -17 -20h-16q-16 0 -16.5 26t21.5 71.5t21.5 61t-4.5 31.5q2 10 21 35v13q-4 4 -26 4t-42 -25q-4 2 -7 2t-12 1 t-10 -19q2 6 -10 6q-18 0 -18 -25l-29 -10q-16 0 -39.5 13.5t-23.5 26.5zM142 227q1 -5 10 -12l-5 6l9 4l18 -6q8 0 31 17l10 -7q16 0 33 72q16 72 22 72v16l-69 -86q-59 -72 -59 -76z" />
<glyph unicode="5" horiz-adv-x="419" d="M2 -20l14 102q6 6 20.5 9t12.5 7q12 -4 21.5 -22.5t13.5 -22.5q8 31 18 88l35 252l-10 8v43q29 23 18 39q6 2 31 37q29 35 35 35t2 -4t0 -6q4 8 4 14l6 -8q10 14 29 24l10 -6l10 11q16 0 49 12t50 12l10 10l70 15l28 16h56q10 0 43 -16v-29q-2 2 -11 2q-8 0 -14 -2h-12 l-4 -6q-20 0 -46 -12.5t-40.5 -12.5t-6.5 -4q-2 2 -7 2t-7 -2h-8l-125 -65q-8 0 -36 -28t-34 -30q-4 -27 -12 -34q-8 -35 -28.5 -111t-14.5 -117q-4 -16 -8 -41.5t-13 -76t-34 -74.5q-2 -25 -1 -31t-13.5 -27.5t-23.5 -22.5t-16 -3q4 -4 9 -6q-12 2 -41 38t-29 44zM72 45 l4 8q0 2 -2 4q-4 -5 2 -24z" />
<glyph unicode="6" horiz-adv-x="362" d="M20 26.5q0 18.5 15.5 57.5t11.5 61l8 -4q25 77 95 207q-18 18 -29 12q12 55 45 56q4 0 4 -6l2 -4q16 23 55 83q0 10 15 11q8 18 28 41l-6 6q10 6 58.5 81t62.5 74q29 0 57 -24v-4q0 -16 -55 -80l-76 -86q-10 -2 -39 -62q-54 -45 -55 -213q0 -57 -51 -162.5t-98 -105.5 q-12 0 -30 21.5t-18 40zM88 68h8v14h-8v-14zM96 92l10 14q8 -4 13 -4q-2 4 -2 11l28 41q1 30 19 71q-27 -8 -68 -133z" />
<glyph unicode="7" horiz-adv-x="468" d="M-51 -256q20 10 35 74q6 6 39 73q20 18 48 81.5t60 86.5l-10 2q12 16 14 19q-8 16 -29 26q0 57 80 68q-2 2 -2 8q0 16 16.5 42t25.5 33t93 189l-8 9q-23 -10 -18 -15q4 4 -7 4q-18 0 -10 -8l-10 8q-45 -14 -121 -43q-2 -6 2 -10l-12 -10l10 -8q-2 -45 11 -56 q-4 -2 -17.5 -14t-22.5 -12t-32 28q-18 30 -29 41q-4 27 -6 36t-18 14v39q10 10 22 10l39 24l62 -4l4 4h24l11 11h26q31 0 66 7t30 7l31 16l10 -6q50 50 76 49q6 0 26.5 -12t20.5 -18l-6 -7q2 -2 10 -14q-4 -4 -10 -8l10 -12q-84 -33 -131 -113q-8 -14 -19 -35.5t-28 -50.5 q2 -2 3 -6t5 -8q-16 -6 -39 -47t-16 -56l-10 10q4 -16 10 -16q24 6 34.5 6t10.5 -5t11 -5t50 3t58 3q-8 0 27 -18q-4 -2 -12.5 -14.5t-20.5 -12.5t-13 -4l3 -2q-10 10 -25 10l-59 -8q-14 -6 -28.5 -12t-31.5 -15l-31 6q-29 0 -55 -49q-27 -49 -31 -77h-16q2 -10 6 -13 q-27 -20 -26.5 -31.5t4.5 -11.5q-41 -43 -62 -123q-4 -8 -10 -24.5t-18 -52t-37 -48.5h-15q-4 14 -22 17q4 12 4 23.5t-4 27.5z" />
<glyph unicode="8" horiz-adv-x="366" d="M18 100q5 10 11 19q14 74 30 110q10 13 35 70q12 4 23.5 30.5t9.5 41.5q37 2 43 24q2 4 2 54v53q27 37 59 108q45 39 50 62q33 24 81 51h21q6 6 14 10q6 -10 39 -31l-4 -14l4 -10q-10 -18 -151 -238q-16 0 -13 -59q-14 -6 -18 -23l-8 -32l-10 4q-9 -9 -17 -21q8 0 8 -65 q0 -10 -6 -6l-6 2q6 -16 6 -31l-8 -100q0 -4 -8 -7.5t-10 -7.5q0 -13 -5 -31q-35 -74 -59 -73q-8 0 -16.5 -10.5t-18.5 -10.5t-39 28t-28.5 36t0.5 25t-11 42zM88 92q0 -25 8 -39q8 20 27 21q-4 16 -4 18t6 0q4 2 16 10q-2 -4 -2 29q0 8 6 6q10 40 14.5 71.5t4.5 35.5 q0 8 -8 16q-68 -109 -68 -168zM227 508l6 -39q8 20 39 59l-10 4q2 2 49 64l-12 12q-18 -12 -35 -40q-30 -53 -37 -60zM301 610l14 -10q1 7 17 23q-16 2 -19 6zM322 627h14v8h-14v-8z" />
<glyph unicode="9" horiz-adv-x="434" d="M0 27q8 14 12 12l-6 22q0 2 12 52q12 20 39 75l11 -6q30 49 80 100q79 81 112 130q8 6 63.5 53t86 47t57.5 -27q-12 -29 -18 -71q-32 -40 -121 -224l6 -4q-14 -10 -29.5 -58t-30.5 -56l11 -4q-31 -49 -31 -91q0 -6 6 -12l-16 -10l4 -8q-2 -2 -2 -6t2 -9l-10 5 q-6 -39 -28 -99q-38 -102 -42 -143q0 2 -5 2t-5 -25t2 -18q-5 -3 -21 -26t-51 -23q-4 16 -8 16q-2 -2 -4 -3t-4 -3l-6 47q53 68 61 131l8 -6q14 56 80 219l-10 4q2 29 24 88q6 6 7 11l-5 6l-69 -66q-8 -8 -48 -21t-40 -30l6 -6q-35 10 -80 35zM78 88.5q0 -14.5 4 -35.5 q29 41 41 41t10 -6q45 45 123 139q8 18 31 56q8 0 29.5 40t23.5 48t-10 8t-61.5 -46t-53.5 -65l-8 4q-82 -91 -127 -155l6 -8q-8 -6 -8 -20.5z" />
<glyph unicode=":" horiz-adv-x="378" d="M88 25l8 24q49 78 94 78q12 0 27.5 -15.5t15.5 -27.5q0 -39 -61 -90q-13 0 -37 -4q-16 10 -47 35zM158 479l6 27q49 76 94 76q12 0 27.5 -15.5t15.5 -27.5q0 -39 -61 -90q-12 0 -37 -7z" />
<glyph unicode=";" horiz-adv-x="378" d="M61 -111q6 10 35 54q23 29 19 59q14 2 24 6q-18 10 -22 30.5t-8 27.5q26 41 84 96l34 -6q12 0 41 -43q-20 -14 -18 -64q-43 -90 -57 -90q-21 0 -13 -29h-4q-14 0 -42 -27.5t-36 -27.5l-24 10q-16 0 -13 4zM158 479l6 27q49 76 94 76q12 0 27.5 -15.5t15.5 -27.5 q0 -39 -61 -90q-12 0 -37 -7z" />
<glyph unicode="=" horiz-adv-x="520" d="M31 119q4 0 9 19q10 38 77 38l80 -6l24 6l49 -6l27 10l14 -4l105 14q23 0 39 -6l10 11q14 -6 37 -7q8 -12 10 -16q-12 -12 -18 -12q-41 0 -117 -19.5t-96.5 -19.5t-20.5 -5t-4 -5l-10 4l-15 -15q-10 6 -49 6l-100 -30q-4 0 -10 5t-15.5 5t-5.5 31l-8 -2zM76 262v21 q2 2 6 4t8 6q-6 4 -10 10q6 0 33.5 15.5t41 15.5t13.5 -5t4 -5l45 10v-8q2 -2 1 -2t5 3t27 7l10 10h39l103 4h38q17 0 17 -12t-11 -27q-4 4 -24 4l-47 -14l-19 10q-6 0 -6 -4h-4l-61 -20l-27 -6q-6 2 -6 0l4 -7l-10 9l-70 -33q-18 -6 -80 -6h-16l10 10q-8 4 -14 10z" />
<glyph unicode="?" horiz-adv-x="466" d="M18 20q18 53 60 54h12q23 -29 29 -47q-18 -10 -33 -35h-35q-8 0 -18 13t-15 15zM74 557v72q147 180 399 180q6 0 21.5 -19.5t15.5 -27.5q-29 -41 -18 -55q-41 -31 -86 -74l6 -4q-76 -60 -118 -116t-71.5 -93t-49 -60.5t-38.5 -48.5q-6 0 -20 -8q4 92 182 299 q29 29 125 139q-6 8 -23 9l-41 -15q-29 0 -69 -24q-4 0 -4 4h-4q-20 0 -74 -53q-33 -12 -33 -29q0 -2 4 -6q-29 -16 -28 -56q0 -14 2 -24q-20 -2 -27 -8l4 -4q-16 -4 -47 6l6 8z" />
<glyph unicode="@" horiz-adv-x="1007" d="M-23 -104q0 178 138 376q28 49 47 68q53 47 49 59q80 86 244 244q45 25 123 86q51 18 159 49l11 10q28 -4 90 -8l10 -10q100 -31 100 -129q0 -27 -19 -118t-36 -128.5t-86.5 -154.5t-93.5 -117q-6 -8 -64 -64q-4 -4 -4 -10q-2 2 -8 2l-84 -12v8q-10 4 -21.5 24.5 t-19.5 28.5l10 11l-28 -13q-6 0 -17.5 -12t-17.5 -12t-45 -21l-41 13q0 18 -21 20q2 2 2 4l-6 25q0 61 135 209q137 147 197 147l14 -4q8 -10 18.5 -23.5t26.5 -29.5q-19 -15 -42.5 -52.5t-30.5 -46.5l10 -4q-47 -51 -84 -190l12 -12l8 10q80 39 152 162q45 79 66 123 q36 79 44 153q2 10 11.5 35.5t9.5 38t-8 26t-21 24.5q-34 30 -49 30q-23 18 -49 18q-27 0 -37 -10q2 2 2 4q-2 2 -9 2t-27.5 -6t-20.5 -9t2 -3l-10 8q-80 -36 -148 -82q-106 -68 -114 -107q-19 0 -37.5 -24.5t-26.5 -32.5q-117 -90 -233 -299q-14 -23 -15 -39 q-20 -31 -34.5 -91t-30.5 -89l10 -4q-2 -70 7 -100t60 -85q27 0 41 -20l74 -18h129l64 14q2 0 2 5t4 5l14 -6l101 41l18 -6l31 20q14 0 15 5t5 5l14 -4q81 58 222 134q-6 -20 -57.5 -64.5t-69.5 -44.5q-37 -29 -56 -31l-69 -45q-4 0 -4 3t-4 3q-23 -20 -60 -20l-16 -14 q-4 2 -7 2t-18 1t-28 -18q-12 -2 -38 -14t-42 -12l-25 6q-16 0 -14 -15l-13 9q-14 0 -40 -15q4 4 4 7t-2 3l-11 -10v2q0 4 -4 8l-4 -10l-6 10l-10 -12q4 4 4 8l-4 4l-10 -10q-23 18 -103 17q2 2 2 4q-4 4 -14 8t-31.5 17.5t-50.5 31.5l6 4q-68 43 -68 146zM418 141l10 -16 l-2 2q0 6 8 6t21 -4q104 84 131 207l-13 6q-27 -31 -53 -57q-35 -47 -37 -64q-18 -2 -33 -29q-22 -41 -32 -51z" />
<glyph unicode="A" horiz-adv-x="550" d="M-104 133q0 14 21.5 31.5t39.5 17.5q15 -10 28 -10t14 5t7 5h74l-4 4q25 2 40 48t20 56q18 34 50 77l-8 4q8 16 20.5 44.5t43.5 88.5q84 164 145 293q4 4 11 10l18 14l-4 13q6 3 6 19.5t-8 35.5q20 43 41 43q47 0 55 -33q-11 -106 -33 -223l6 -6q-17 -130 -17 -227 q0 -19 1 -37h2q-8 -12 -10 -13q10 -16 12 -66t12 -65q-6 0 -14 -4v-10q20 -16 43 -17l27 5l10 -13q-8 -2 -21 -12q-39 -6 -59 -18q27 -53 27 -70.5t-3 -22.5q25 -16 25 -69q-10 -23 -61 -23q-20 0 -37 47q0 20 20 29l-10 4v51q-23 53 -41 54q-6 0 -8 -3l6 -6l-10 9l-11 -11 q-12 4 -34 4l-19 -10q-6 0 -41 -10l-35 6l-18 -6l-10 -8q-12 0 -35 -17q-6 6 -25 6q-14 0 -23 -34t-9 -60q0 14 -13 -12q-10 -29 -8 -37h-4q-14 0 -22 -14q-12 4 -48 24q6 26 39 109q-6 0 -20 -5t-29 -10q-44 -12 -55 -12q-2 -2 -2 -8h-25q-10 0 -20 15.5t-10 29.5zM162 213 l12 -12q-2 2 -2 6q4 4 8 4l43 -4q2 0 2 5t4 5h27l68 4l38 10l21 -10v8q2 2 9 2t11 -4q2 10 17 35v141q-18 20 -18.5 43t10.5 37q-4 12 -4 38t6 42q-6 8 -6 29l12 70v67q-4 -25 -187 -338q-5 -21 -38 -98q-3 -23 -33 -80z" />
<glyph unicode="B" horiz-adv-x="661" d="M-23 711q4 12 15 26q-8 4 -15 11q47 35 93 51l12 10q16 0 55 20q16 0 53 15q37 14 52 14l18 -4q14 0 10 4l11 10h53q-2 0 40 18q39 17 89 17h6q10 0 6 -4t0 -6l8 10l31 6q102 0 102 -26q0 -4 -4 -14.5t-2 -22.5q-31 -8 -35 -37h-2q-19 0 -89 -53q-74 -56 -81.5 -63 t-5.5 -11h-4q-4 -2 -12 -5t-25 -11l-4 -7l4 -8q-2 2 -15 2t-13 -6q2 -2 9 -2t9 2l14 -8q45 16 64 16l10 11q4 -2 17 -7l18 11h4l-2 -8q0 -2 4 -3q4 0 11.5 8.5t13.5 6.5l6 -6q12 6 43 6q12 -8 96 -31q55 -16 90 -84v-57q0 -6 -6 -6q0 -2 2 -2q-6 -4 -34 -50.5t-33 -46.5 q-12 0 -13 -28q-18 -25 -65 -76q-59 -59 -66 -62q-96 -53 -104 -73l-10 10q-2 -2 -10.5 -7t-24.5 -16q-33 -16 -38 -16t-15.5 -13.5t-30 -19.5t-11.5 -10q-2 2 -6 2q-41 0 -84 -45l-20 6q-8 -4 -35 -24q-10 0 -18 8q-9 -18 -15 -33l-57 4l-6 68q0 12 20 30v7l19 51l-15 10 q38 103 109 342l-4 4q-2 0 -10 -4l4 4q-25 14 -37 10q4 10 1 33.5t25 44.5l-4 -6q2 -2 9 -2h2l-2 6l4 4q23 0 39 24q25 38 25 63q0 4 -1 7q12 20 12 34.5t-8 17.5q4 10 17 20v14q-11 11 -27 -2l-18 -14l6 6q0 2 -12 2t-33 -18l-9 4q-12 0 -45 -26q-40 -32 -65 -48h-25 q4 0 -35 21zM119 129l53 -10q4 0 6 5t8 5l21 -6q12 0 10 6q1 1 49 29l10 -4q6 0 22 12q28 22 36 22t6 2q0 2 6 2.5t34 23t40 22.5t33.5 21t27.5 29l19 19q14 0 10 -4l29 33q26 37 112 141q9 13 15 62q0 4 -12.5 20t-16 16t-33.5 15l-139 16l-62 -10l-10 -10q-33 -4 -48.5 -6 t-25.5 -19l-22 2l-12 -8h-5q-37 0 -59 -51q-10 -27 -16 -41t-11 -31q-13 -44 -40 -156q-4 -10 -21 -26q10 -4 10 -6q-4 -4 -4 -2q0 -11 -20 -113zM299 694q16 4 47 35q21 7 62 39.5t49 36.5v24l8 -6l10 11q6 -2 10 -3q2 0 3.5 6.5t13.5 8.5l-121 -17l-27 -10q-4 0 -6 5 t-11 5t-38 -22q10 -4 14 -21l4 -28q-24 -24 -24 -44q0 -11 6 -20z" />
<glyph unicode="C" horiz-adv-x="632" d="M0 164v63q33 39 33 92q0 20 64.5 92.5t84.5 82.5l-10 4q10 4 10 22q25 0 19 19q14 6 47 39t33 49l12 -2q6 0 35 37q31 37 30 40q66 54 150.5 142t99.5 88q4 0 45 -41q-54 -92 -74 -135.5t-22 -85.5q0 3 -7 -0.5t-11 -7.5q6 -8 12 -9q-22 -13 -29 -37q-16 -50 -24 -71 l-23 -4v47q25 14 25 88q16 35 24 69l-12 13q-29 -25 -56 -50q-115 -102 -157 -157q-2 2 -10 2t-8 -6t6 -8q-119 -108 -146 -162q-23 -6 -51.5 -85t-28.5 -96q0 -66 80 -118l11 -10q31 -10 38 -10h2q14 0 87 10q6 4 15 8t18 9t16.5 5t17.5 2q14 20 41 21q0 10 25 14 q10 6 34.5 24.5t57.5 42t155 162.5q4 -2 10.5 -6t14.5 -8q-4 -4 -25 -18l9 -5q-6 -4 -30 -44t-24 -46l-12 2q-8 0 -8 -6l4 -12q-20 0 -55 -41q-6 0 -11.5 -10t-15.5 -10q-92 -65 -203 -134l-10 5q-8 -2 -9 -5.5t-4 -6.5q-7 -7 -31.5 -8t-39.5 1l-10 -8q-2 2 -10 2t-15 -2 h-14l-20 12q-8 0 -9 -2l4 -6q-49 29 -98 77t-47 87z" />
<glyph unicode="D" horiz-adv-x="630" d="M-39 31q0 23 21 61.5t26 61.5q6 35 49 190q12 27 43 132q79 266 97 315q-16 14 -50 43q19 28 15 36l123 41l14 -4l74 15l41 -4l6 -7h78q18 0 46 -12q50 -22 70 -22t60.5 -34t48.5 -52l-4 -35l4 4q-2 2 -4 2l-4 -8q-6 -68 -134.5 -214.5t-201.5 -205.5l-148 -117 q-84 -68 -134 -124t-105 -99l-10 8q-8 2 -21 29zM53 168q0 -8 13 -16q20 6 77 55t62 49q31 0 172 145q41 41 174 195q14 18 36.5 51t55.5 80q-2 2 -2 10t12 37v12l-16 7q-55 49 -84 49l-21 -4q-41 24 -63 24h-2l-74 -14h-4l6 8q-2 2 -6 2t-5 -5t-5 -5l-35 4l-35 -14l-20 4 v-6q0 -4 -5 -3.5t-7 -1.5t-21 -16q20 -8 20 -14q0 -14 -35.5 -93t-43.5 -108q-12 -43 -99 -291q2 -2 2 -10t-23.5 -65.5t-23.5 -65.5z" />
<glyph unicode="E" horiz-adv-x="643" d="M-104 393q0 29 26 29l8 10q25 0 83 17.5t75.5 17.5t40.5 74q41 72 41 94q12 12 22 39q14 34 33 74l-8 12q-4 -2 -12 -13.5t-17 -11.5l-24 10q-12 0 -20.5 17.5t-12.5 19.5q8 10 14 31q35 16 72 21l51 20l25 -4l14 14h10q23 0 39 -4l25 14l41 11l14 -6l45 16l45 -6l25 10 l100 10l45 -10l39 10q23 0 27 -18l-72 -27q-10 6 -28 6l-27 -10l-14 4q-20 0 -42 -8t-22 -4l4 -4l-10 6q-20 -4 -43 -4l-14 -14h-7q-10 0 -6 -5q-4 4 -24.5 4.5t-55.5 -26.5q-4 6 -18 6l-31 -14q-37 0 -82 -86q-39 -70 -49 -121q-25 -29 -47 -113l-8 2v-8q20 -4 82 -4 q2 2 2 10t25.5 6t39 4t27.5 7l25 -6l49 10l10 10q4 -2 16 -6l11 6l73 14q37 0 54 -16l-52 -12q-6 0 -9 -5.5t-7 -5.5l-14 -16q-10 6 -25.5 6t-15.5 -4q0 -10 -35 -10t-35 -2l6 -6l-10 8l-4 -10l-6 10q-8 -6 -15 -21l-6 11q-4 -4 -4 -7q0 -2 2 -4q-4 4 -12 4t-8 -2t2 -4l-8 6 q-9 -9 2 -12q-23 0 -33 2t-10 0l6 -6l-10 6q-10 -5 -15 -10q-2 -10 -69.5 -30.5t-72.5 -41t-10 -38.5q-14 -48 -26 -95l10 -4q-2 -10 -2 -19v-20q0 -88 39 -88q4 0 4 -2l-4 -8h4l51 -17l39 11q20 0 115 41l10 10q48 26 84 43q18 18 96 61t103 74l12 -12q0 -12 6 -15 q-35 -29 -65.5 -57.5t-47 -43.5t-77.5 -46t-64 -31l-86 -49q-14 -12 -34 -14l-17 -15q-4 4 -17 4.5t-20 -18.5q2 -2 -48 -2t-52 5t-6 5l-13 11l3 2q-2 2 -11 2l-16 -4q-4 20 -31 47q0 27 -18 49l8 10q-4 18 -18 39l22 104q16 61 37 101l-16 12h-17q-4 0 -51 -17t-68 -18 q-35 18 -34 41z" />
<glyph unicode="F" horiz-adv-x="505" d="M-10 46q0 5 4 17.5t8 26.5q12 42 12 57.5t-2 22.5q14 6 23 57q8 51 33 66l-11 4q25 31 25 80q0 2 -2 4l-10 -10q-14 8 -52 55v23q29 20 48.5 20t37.5 -8q12 32 54.5 163.5t42.5 149.5q-6 8 -43 37q-16 37 -17 27q0 45 39 45q5 0 39 -21l74 6l31 9l14 -5q6 0 8 5.5t6 5.5 l27 -6q4 0 6 5t8 5l25 -4l125 20l35 -6l104 10q12 0 154 6q4 -2 12 -14q-16 -16 -17 -20q-8 4 -45 4q-2 0 -2 -5.5t-3 -5.5t-5 5.5t-20 5.5l-45 -15l-49 4q-12 0 -58 -12l-47 -12l-25 4l-10 -10v2q-4 4 -11 4t-7 -2t4 -6l-10 8q-10 -12 -32 -15.5t-44.5 -9.5t-34.5 -6l-25 6 q-28 0 -52 -17q-44 -34 -40 -56q-4 -4 -4 -7l4 -8q-12 0 -20 -23.5t-4 -37.5q-12 0 -15 -15v-24q-16 -10 -36 -76q-29 -78 -37 -92q4 -2 24 -2l80 10l10 10h70l10 11q39 0 37 8l-2 6q18 -6 48 -6t71 14h24l-2 -2q0 -6 17 -2q-7 -7 -21 -33l-92 -20q-6 0 -5 2t-5 2l-19 -6 l7 -6q-59 0 -80 -17q-20 0 -31 -16q-4 2 -21.5 2t-44.5 -12l-28 -15q-68 0 -76 -30q-6 -36 -19.5 -78t-22.5 -67t-15 -50q4 -2 16 -10q-12 -33 -12 -62q0 -11 2 -22q-4 -25 -21 -58q0 -6 -43 -6q-8 0 -16 14.5t-8 19.5z" />
<glyph unicode="G" horiz-adv-x="800" d="M-9 199q9 18 13 20l-6 4q47 121 219 285q47 41 115.5 105.5t161.5 150.5q6 4 19 11t27 15q31 20 40 35l51 25q35 18 92 47l10 -10q13 0 29 -4q2 2 4 2l8 -8q0 -10 10 -15v-26l-57 -68l-25 -18l-24 -11l-16 9q-8 2 -9 0q2 -2 3 -2.5t3 -2.5q-16 16 -16 41q-12 -10 -8 -14 h-4q-27 0 -53 -22h-1q-13 0 -65 -41q-53 -43 -57 -43t-5 -5.5t-6 -5.5q-45 -42 -157 -141q-35 -35 -41 -57l-10 10q-54 -76 -162 -197l10 -4q-4 -2 -19.5 -42t-15.5 -52q0 -43 29 -68l49 -16q23 -8 53 -8l60 10l16 -10v8q18 18 62 31.5t61 23.5q86 53 100 86l4 -10 q10 16 25.5 42t38.5 58q-12 4 -23 23l-10 -8q-80 -20 -89 -20.5t-32 22.5q12 12 13 33l2 8l4 6l-4 8q55 27 170 27l34 -6l21 6l10 10l39 4l16 -4l19 10l26 -6l39 14l35 -4l43 11l10 10q8 2 18 2l54 8q4 -4 4 -11t-4 -20l-14 4l-17 -14l-8 2l-12 -6q0 -2 2 -4q-4 4 -16 4 t-9 -6l-10 -8h-18q-6 -4 -6 -11l-13 9q-29 -18 -43 -19l-16 4q-4 0 -17.5 -8t-13.5 -4l6 -6q-2 -2 -4 -2l-24 6l-15 -14q-8 4 -15 4t-7 -2q2 -2 2 -3t1 -3.5t-1 -2.5l-21 7q-18 0 -26 -70q-27 -14 -39 -96q-32 -88 -32 -113q0 -4 1 -6q-6 -35 -27 -90v-24q0 -7 -2 -17v-29 l-53 -295h2h-2l-8 -12l10 -4v-41q-10 -16 -12 -31l-10 4l-31 -14q-10 8 -31 35l2 108q0 14 -4 23q51 39 51 51q0 4 -6 14q18 2 19 25l-13 53q0 4 9.5 13.5t5.5 11.5q16 109 55 305q-4 8 -8 14q-10 -8 -26.5 -21.5t-37.5 -29.5l-24 -25q-31 -11 -121 -63l-10 4q-18 0 -62 -20 q-12 -4 -59 -4q-2 0 -12 -11q-18 9 -103 43q-67 31 -67 97q0 29 9 47z" />
<glyph unicode="H" horiz-adv-x="735" d="M0 264q10 33 27 29l20 18q12 -4 39 -4q53 190 53 283q19 15 19 77q0 28 -4 66q6 14 43 31q12 -12 17 -12t11 -2l13 4q2 -10 10 -17q-2 -2 -15 -10l9 -4l-45 -207q-29 -121 -64 -201q8 -8 15.5 -8t7.5 2l-4 6l10 -8q35 10 78 10l41 11l14 -6q2 0 2 5t4 5l78 4l31 10l14 -4 l31 10l24 -6q2 4 41 16h49v7q0 2 4 2q39 0 39 78q0 18 -6 71h6q2 -4 9 2l-9 4v13q24 32 24 80q0 7 -1 14q8 14 25 89q19 88 28 152q4 4 17.5 23.5t27.5 20.5q11 -7 51 -29q-4 -6 0 -6q-6 -43 -43 -128t-39 -132q-25 -37 -32 -154q-2 -10 -6.5 -31.5t-19.5 -94.5 q-38 -194 -38 -247v-43l-10 6q-12 -78 -12 -109.5t2 -37.5q-8 -2 -14.5 -23.5t-18.5 -21.5q-2 0 -6 -5t-19 -5l2 6l-6 4q-23 4 -22 33l51 131q-4 8 -4 12l14 59q0 10 -2 15q10 41 31 211l-8 8q-14 -4 -34 -8t-52.5 -13.5t-42.5 -7.5l-17 -14q-4 4 -14 4l-12 -2l10 -12 l-16 14l-5 -10q2 6 -7 6t-25 -17q2 2 2 5.5t-2 5.5h-13l-16 -15q-4 2 -7 2t-7 2l-95 -24l-16 6q-12 0 -43 -12.5t-49 -12.5q-10 -31 -14 -110q-4 -80 -15 -113q-2 -2 -12 -2h-27l-10 12q0 6 -10 11q2 4 14 16l-14 8v86q12 4 21.5 32t17.5 38q-6 6 -15.5 6t-9.5 -2t2 -4 l-28 16l-13 -4q2 14 -10 41z" />
<glyph unicode="I" horiz-adv-x="839" d="M-20 145q0 84 63 191l10 -4q43 100 97 157q6 -2 22 -16q-31 -27 -77 -112q-39 -72 -39 -102q0 -5 1 -9q-4 -4 -10 -26q-11 -40 -20 -40l10 -4q-2 -2 -2 -4q0 -78 30.5 -110.5t59.5 -32.5l18 -10l45 10l15 -4l26 10l15 -6q2 0 4 5t10 5t16.5 5t19.5 10q29 13 38 10l10 10 q0 -2 21.5 6t67.5 36t54 38q-8 20 27 35q57 20 85 47q59 55 81 84q14 6 45 49t27 53q29 23 28 68q16 4 29.5 29.5t13.5 39.5t-6 19q2 2 12 37.5t10.5 45t-5 28t-10.5 38t-10 36.5t-5 30l-6 -9q-72 115 -260 115l-11 10l-10 -10q-4 10 -28 10q-25 0 -41 -10l4 6q-4 4 -11.5 4 t-43.5 -12t-50 -15t-23 -4t-10 -3q0 -2 2 -5q5 5 -16 5q-19 0 -57 -39q20 -23 22 -41q-6 -9 -49 -15q-2 0 -2 4.5t-5 4.5t-9 -5q-4 20 -47 43l10 11l-4 4q-2 0 -4 -2q27 20 73 67q6 2 23 7l-4 4q103 31 103 34h-1l15 -4l96 15h98l66 -15l14 4l35 -8l24 -16q25 0 25 -8h6 q18 0 64.5 -41t50.5 -62q51 -39 51 -135q-8 -8 -4 -24l-10 -50l-9 -10v-10q0 -39 -8 -66q-45 -92 -133 -227l-33 -33q-20 -20 -66 -68q-46 -47 -62 -46h-1q-4 0 -10 -7.5t-14 -14.5t-15.5 -14t-11.5 -7t-18 -13.5t-21.5 -12.5t-7.5 -3l6 -6q-4 4 -10 4t-14.5 -6t-17.5 -14 q-23 -19 -29 -19l-15 4q-18 0 -10 -4l-14 -16q-6 -4 -27 -15l-10 4q-6 0 -45 -20t-54 -21h-34q-23 2 -32 2h-5q-29 0 -49 -6l6 6q-2 2 -16.5 2t-45.5 19.5t-37 25.5q-27 54 -27 67q0 2 1 3l-12 16l8 5q-10 10 -10 34z" />
<glyph unicode="J" horiz-adv-x="784" d="M-594 -399q0 43 29 115.5t30 103.5q16 2 21 30l-4 9q39 29 119 145q29 43 91 87q90 64 132 106q39 45 54 45t20 -6l10 -5q-16 -12 -31 -43h-2q-18 0 -39 -24q-47 -35 -131 -107q-172 -176 -213 -327q-31 -47 -31 -116t33 -132q37 -76 94 -78l25 -14q3 0 39 -15l10 4 q7 -3 25 -10l10 10l35 7l20 -11q4 0 26.5 7.5t37.5 7.5l10 10q4 -2 16 -6q4 4 33 16l10 8q18 4 29 17q-4 4 12 4q33 0 33 16q4 4 16 4q52 0 283 281q20 23 70 88q37 61 116 178q-4 4 -4 10q8 18 33 78t70 162l14 8l-8 4q14 18 194 535l9 -4q11 56 41 131l-15 8 q-10 -10 -12 -10l-18 -15l4 9q-2 2 -9 2l-55 -15l-72 -16q-6 2 -6 -2t6 -6q-8 4 -20 4l-96 -15q-33 0 -35 -2l6 -6l-10 8q-37 0 -37 -6l-8 6q-4 -4 -4 -7t4 -7l-15 4l-12 -10q6 6 6 8q-2 2 -37 2l-10 -6q2 -2 4 2t-4 4l-100 -16q-2 0 -2 5t-4 5t-4 -7t-7 -7l-30 6 q-2 0 -6 -4l4 -6q-4 4 -15.5 4t-38.5 -13q7 -10 54 -49q35 -33 41 -57q-29 2 -37 0l-13 10q-29 8 -79 43q-36 31 -82 58l2 2l-15 34q37 25 68 31h78l65 -4l31 10l98 -6q2 0 2 5t2 5l31 -10q2 0 12.5 7.5t42 7.5t31.5 5t11 5t32 -4l10 10h45l60 18q55 0 127 25l12 10h4 q36 0 51 33q4 16 10.5 30.5t12.5 30.5q6 2 38 32t46 30q47 -27 53 -27q4 -12 4 -20q0 -35 -49 -99q-87 -21 -87 -67q0 -5 1 -10q-90 -166 -108 -254l-9 4q-8 -23 -14 -46q-22 -81 -55 -130l14 -13l-10 6q0 -5 -6 -14q4 -8 8 -10h-16v-6l-3 -2q1 -1 9 -11 q-23 -23 -44.5 -95.5t-37.5 -92.5l-51 -121q-35 -70 -46 -110q-32 -32 -32 -60q0 -10 2 -16q-20 -32 -74 -113l4 -8q-18 -4 -57 -72q-38 -67 -47 -67q-4 0 -8.5 -17.5t-12.5 -17.5t-8 -2v-8q0 -4 4 -9q-7 -7 -29 -24q-23 -23 -24 -23l-137 -133h-9q-123 -74 -129 -86l-12 10 q-2 -2 -51 -24q-29 -12 -25 -19q-25 5 -32 5l-35 -17h-164l-70 35q-4 -2 -7 -2t-7 -2q-14 0 -54 60t-48 67l10 10q-15 3 -27 70q4 8 4 14z" />
<glyph unicode="K" horiz-adv-x="655" d="M-25 72q30 88 64 170q0 20 16 67t17 51l-6 31l10 41q25 25 50.5 99.5t25.5 115.5l14 49l-4 9q6 2 17 14t22.5 12t24 -17.5t16.5 -19.5q-16 -16 -17 -45q-25 -50 -25 -77q0 -5 1 -9l-11 4q-6 -39 -28 -82l14 -8q14 6 37 25q25 12 74 30l10 11h14q232 137 282 182 q11 10 37 36q25 25 41 25h1q37 0 37 -32l-13 -39q-10 -8 -38 -25q-159 -102 -171 -102l-90 -56q-20 0 -73 -45q0 -10 -41 -10q-8 -8 -52 -37q-27 -14 -26 -20q-4 -2 -11.5 -4t-17.5 -6q8 -2 33 -31q33 -29 86 -74q37 -43 80 -86q6 0 38 -39t33 -49l5 8q2 -10 14 -20l-6 -6 q78 -59 104 -115q21 -11 65 -73t48 -62t11 -6.5t15 -13.5q24 -19 29 -19v-8q2 -2 4 -2q26 -4 27 -4q16 -16 29 -21l10 4l10 -8l18 4l15 14l16 -4q10 4 10 -13t7 -19l-37 -25q-18 -12 -42.5 -12t-65 22.5t-52.5 22.5q-2 8 -53 61q-47 53 -47 70l-9 -8q-56 87 -201 246 t-208 167q2 2 2 4q0 16 -27 15q-2 8 -6 8t-14.5 -13.5t-10.5 -18.5t7 -1q-4 -6 -24.5 -77t-20.5 -81.5t6 -19.5q-24 -37 -39 -76h-2l-19 -6z" />
<glyph unicode="L" horiz-adv-x="555" d="M-27 -6v20q43 74 43 115q12 27 28.5 69t39.5 99q22 86 100 274q45 98 54 138l8 12v4q4 8 8 14q-18 8 -18 23.5t20 32t31 16.5q18 0 53 -53q-12 -2 -21 -10q-1 -16 -25 -70q-21 -47 -21 -68q0 -3 1 -6l-10 4q-40 -90 -98 -254l-90 -256l8 -8h8l10 10l136 6l41 15h92l10 10 q33 0 84 14t84 15l10 10l16 -4q29 0 56 8q33 8 16 19q16 4 28.5 4t20.5 -2q0 -14 -22 -15q-9 0 -28 -17.5t-21 -17.5l-35 -20l-25 6q-6 0 -16 -12.5t-20.5 -12.5t-18.5 5l-8 -11l-90 -14l-62 -18q0 -4 2 -7l-10 11q-47 -8 -100 -25q-4 4 -20.5 4t-43 -8t-28.5 -16 q-4 4 -12.5 4t-61.5 -35t-64 -37q-7 13 -39 35z" />
<glyph unicode="M" horiz-adv-x="821" d="M-35 33q31 107 44 165q14 64 32 106q15 34 15 57q0 5 -1 10q28 82 84 254q-4 14 -4 29v22q0 10 -2 16q20 20 21 68l10 -4q10 27 37 28q29 -23 61 -45v-16q0 -6 -7 -9t-9 -7v-9q-10 -41 -13 -118q-6 -16 -6 -45q0 -55 29 -283l4 -4q23 0 16 18q12 2 40 35t44 39l-8 4 q49 72 154 195q12 12 176 188q46 40 109 111q4 35 28 80l8 45q2 6 47 6q39 0 39 -49q0 -27 -35.5 -71t-37.5 -56v-7q-11 -33 -17 -63q-14 -8 -31 -66.5t-18.5 -69.5t-3.5 -17.5t-4 -14.5l2 -4q-61 -160 -59 -205q-20 -43 -21 -96q-57 -154 -59 -295q-6 -3 -11 -22 q-11 -35 -16 -35q-18 0 -51 6v10q-2 6 -2 13t6 18l-12 12q37 63 37 135q14 18 26 64.5t23 68.5l-6 4q29 104 75 324q14 16 20.5 64t14.5 51l-8 14q-2 -6 -12.5 -12t-10.5 -8t3 -3l-58 -49q-12 0 -110 -124t-105 -124q-100 -158 -172 -243q-8 6 -19.5 13t-27.5 18q4 -4 4 11 t-14 15q4 8 3 14.5t-13 26.5l10 10v13q-17 17 -16 31t-1 14q-2 -2 -4 -3t-4 -3l-6 135q-4 4 -7 4t-7 -4q6 8 6 23t-6 34l10 2q-4 4 -8 4l-13 -4l-6 -39q-12 -6 -22 -43q-4 -29 -10 -60.5t-58 -178.5q6 -18 6 -31l-4 -55q-10 -12 -13 -37t-7 -25l-8 -2l-9 8l-10 -12 q-22 11 -41 35z" />
<glyph unicode="N" horiz-adv-x="714" d="M-27 61v48q33 51 33 153q6 14 25 29l-11 8v16q94 225 95 326q0 6 -6 12v13l-9 32v21q38 27 62 27h1q24 0 46 -31q2 -10 2 -25.5t2 -36.5l8 9q8 0 8 -48q0 6 162 -467q18 -55 80 -155q14 2 29 176q12 27 10 53q14 28 21 70.5t22 58.5v8q0 14 9 35t14 37q10 35 32 119 q27 86 54 119l-11 4l8 30l13 7q-10 10 -10 17t20 22l-10 4q6 27 6 43t-12 22q6 43 26 70l-4 10q47 53 56.5 53t35.5 -26l-4 -6l4 -11q0 -2 -4 -6l15 -8q-31 -35 -58 -111t-47 -102l8 -4q-6 -8 -12 -29l4 -6q-8 -25 -27 -61l7 -17l-4 -10q-10 -6 -11 -45q-4 -2 -8 -5t-12 -7 l10 -4q-57 -174 -57 -230v-16t2 -17q-18 -8 -15 -16l-14 -80v-278q-10 -10 -23.5 -22.5t-31.5 -29.5q6 6 6 9q0 2 -6 2q-12 0 -43 54t-41 62l10 25q-49 59 -80 156q-2 12 -18 34q-6 31 -25 95q-2 -2 -6 2l8 10q-12 10 -35 59q-20 49 -14 60q-31 78 -84 168l10 10 q-4 4 -22 12q-43 -147 -76 -252q-17 -17 -27 -112q-8 -79 -8 -106v-9q-37 -37 -51 -37z" />
<glyph unicode="O" horiz-adv-x="563" d="M-14 174l10 10q-17 25 -17 73q0 39 11 93q7 58 26 96l-6 5q12 12 60 102q2 2 6 3t8 5l-10 4q57 89 180 207q33 31 65 64q51 26 80 26h2l9 -10l39 6q6 0 7 -6t3 -4l10 4q29 0 71 -84t42 -117q0 -3 -4 -63q-2 -30 -2 -46t2 -20l-21 -55l8 -4q-25 -82 -36 -135t-33 -91 q-24 -37 -86 -119q-62 -81 -90 -81h-1v-8q-54 -14 -43 -21q4 4 -10 4t-46 -11t-44 -11t-24 12v6l-11 -8q-37 25 -100 78q-16 43 -55 96zM35 272q0 -35 10 -49q2 -49 23 -78l32 -51q61 -35 62 -37h74l14 11q51 0 132 88q72 78 72 127q0 6 -1 12q23 23 35.5 77t23.5 70 q0 39 4 58.5t4 21.5l-8 10q14 13 14 23q0 174 -77 248q-8 -4 -16.5 -8t-18.5 -9q-88 -12 -177.5 -110t-148.5 -203l4 -4q0 -4 -2 -6q-55 -109 -55 -191z" />
<glyph unicode="P" horiz-adv-x="520" d="M-31 62q3 35 15 63q0 6 -9 14q10 6 25 58q14 51 25 61q0 22 -5 49q6 16 23 45q45 143 45 204v7q27 23 29 86q18 39 45 146l-8 8l-4 -4q0 -2 2 -4h-9q-14 0 -28 -7q-2 4 -52 35q2 6 3.5 15.5t5.5 21.5q47 41 63 41l15 -4l59 29l10 -4q33 20 39 20l45 -6l21 6l8 10l37 9 l34 -5q4 0 5 5q2 2 6 0l63 10l160 20l108 -14l48 4l8 -10q15 8 17.5 2t17.5 -6q14 0 32.5 -22t18.5 -38q0 -41 -218 -222t-255 -181q-8 0 -64 -50q-54 -49 -85 -48h-1q-8 0 -90 -61t-94 -78t-12 -66l-15 -51v-87l-16 -10q6 -4 6 -21.5t-14.5 -38t-27.5 -20.5q-13 -1 -25 15 q-11 13 -11 27zM113 401q0 -10 12 -22q16 10 38.5 25.5t55.5 35.5q2 8 14 9q93 65 114 65h1q4 0 4 4q2 2 11 1t40 30t39.5 31t15.5 7l14 14l14 15q8 7 13 7t126 98q123 104 135 119l43 55q-4 16 -12 16l-21 -4l-18 11l-70 14q-102 0 -135 -12h-10q-16 2 -48 -5.5t-47 -7.5 l-14 4q-4 0 -20 -16l-11 6l-28 -14l-25 4q-18 0 -18 -12q0 -2 -2 -2l-11 10q-36 -25 -76 -25h-6v-18q18 0 25 -10v-9q0 -10 6 -10q-76 -104 -94 -217q-31 -53 -31 -71.5t2 -23.5t-2 -5q2 -8 -11.5 -60.5t-12.5 -36.5z" />
<glyph unicode="Q" horiz-adv-x="716" d="M-37 240l12 49q-2 8 -2 20l11 66l8 12l-8 4v17q0 6 18 56t25 58q313 475 462 475l48 -6l10 -10h20q-2 0 8 -10l11 10q53 -37 106 -78q4 -8 10 -19q17 -29 20 -52t19 -31v-195q-10 -10 -8 -39q-2 -6 -10 -35.5t-25 -82.5q-45 -164 -192 -299q-16 -14 -46 -40t-73 -65 q-25 -13 -49 -29q-8 -16 -16 -16t-15 2q-8 -14 -8 -94l-12 2q-2 -6 -2 -57q0 2 -13 -11v-8q-11 -49 -14 -100q-4 -10 -8 -22.5t-12 -28.5h-33v6q0 6 -6 16l5 33q28 197 50 233q-4 6 -43 6t-45 -2q-23 12 -57.5 32t-81.5 46q-51 100 -52 148zM20 282v-5q0 -19 4 -33 q3 -17 11 -57.5t6 -49.5l12 4q0 -4 6 -12l-8 -10q2 -2 13.5 -11.5t24.5 -22.5t35.5 -20.5t22.5 -19.5q0 -2 -4 -6q33 -12 82 -12t66 84q14 92 26 100q-6 2 -10 18l25 50l28 8q43 0 43 -54q0 -8 -11 -33.5t-11 -33.5l-6 2q-4 -2 -10 -8v-8q0 -12 -7.5 -33t-7.5 -31q6 6 23 10 q14 2 14 19l10 -4q2 23 12.5 25.5t51.5 37.5l47 43q82 121 119.5 187.5t50.5 119.5q4 46 16 138q-4 0 -4 4l12 41q0 70 -45 145q-49 88 -112 88h-21q-6 0 -10 -7t-8 -7l-17 4l-34 -10q-16 -16 -82.5 -59.5t-77.5 -90.5q-76 -43 -162 -180q-84 -141 -98 -214t-15 -96z" />
<glyph unicode="R" horiz-adv-x="649" d="M-41 37v35l8 -6q4 43 51 217l66 229q2 8 35 63q-10 10 -10 21.5t22 30.5q2 4 6 16t13.5 39t9.5 47q8 2 11 42t13 44q-2 0 -4 2l-26 -6q-6 2 -9 0l7 -6q-2 0 -5 2q-37 0 -45 -25l-10 11q-8 -4 -16 -12.5t-19 -18.5v2q-2 2 -10 3t-8 -3l6 -6q-31 10 -45 10l10 12l-4 4 q-2 0 -4 -2v2q0 4 -10 41q12 12 76.5 33.5t93.5 22.5l14 -4q15 9 25 14q43 0 59 -4l12 6l23 -2l10 10l230 10l51 -10q8 0 8 2l-6 6l14 -6h16l11 8l10 -10h27q6 0 7 -5t5 -5l35 6l24 -10q12 0 21 4l10 -10h6q33 0 48.5 -13.5t31.5 -27.5q-2 -2 -14 -11l10 -10 q-2 -2 -10.5 -19.5t-16.5 -17.5l-15 -10q-5 0 -20 -31q-2 2 -15.5 2t-18.5 -14q-8 -2 -18.5 -9t-29 -17.5t-34 -19.5t-30.5 -17q-39 -19 -44 -19q-16 0 -23 -18q-4 4 -12 4l-78 -45q-6 0 -6 -5t-4 -5l-14 6l-78 -37q-8 0 -8 -2l2 -2l-17 -15q-4 4 -10 4t-42 -21t-40 -22.5 t-10 -2.5t-16 -5l-23 -10v-14q12 -16 25 -29q27 -20 83 -70.5t56 -89.5l8 6l43 -86q0 -4 2 -8l-4 -6q33 -46 48 -78.5t25.5 -51.5t16.5 -30q7 -11 87.5 -107.5t90.5 -96.5t11 -7l4 -8q20 -8 20 -11t-4 -7q21 -8 123 -72h10q6 0 4 -5t4 -5l17 6l14 -16l43 -13q2 -6 6 -6l11 4 l49 -10l129 16l14 -6q6 0 7 5.5t5 5.5h29q8 -4 16 -13v-16q-6 2 -25.5 2t-21.5 -19l-20 7q-6 -4 -4 -4t-21.5 -11.5t-36 -11.5t-12.5 -3t2 -5h-67l-84 10q-16 29 -70 29q-6 0 -10 -4q-70 39 -164 108q-23 2 -156 168l4 4l-84 101q4 10 -10 20l2 4q0 16 -20 25 q-10 57 -58 132q-83 131 -123 148l7 4q-16 18 -26.5 18.5t-18 6.5t-15.5 13q-23 20 -28 20l-15 -4q-4 0 -4 2q2 2 2 3t2 3q0 2 -2 2l-16 -6q-18 -16 -19 -58q-37 -78 -37 -94t3 -18q-2 -16 -17 -56q0 -10 17 -38l-5 2q-2 -2 -5 -13.5t-7 -30t-13 -57.5t-36 -39q-4 0 -4 8h-6 q-22 11 -31 17zM150 528l12 -10l24 6l11 11q29 0 96 24l8 10q6 0 20.5 8.5t24.5 6.5l10 10h15q14 6 30 18q-20 0 50 17l14 14v2q0 12 26.5 16t37.5 11.5t40 19.5l11 10q20 10 49.5 25.5t70.5 34.5l19 20q26 14 51 43l-96 17q-12 0 -15 -6l-10 10q-31 -10 -38 -10t-7 2l6 6 q0 2 -4 2l-12 -10l-35 16q-4 0 -14 -10l-10 10q-10 0 -11 4l-10 -10q-6 2 -27 2h-22l-43 -6l2 -2h-41q-10 0 -23 -4l-10 10l-6 -4q-20 0 -56 -9.5t-55 -9.5q31 -2 41 -43q-55 -108 -86 -149l9 -8q-25 -42 -47 -95z" />
<glyph unicode="S" horiz-adv-x="606" d="M-57 76l12 55q0 10 -4 23q37 125 207 245v-28q-2 2 -4 2q-16 0 -82 -103q-66 -102 -62 -133q0 -8 -2 -14v-14q0 -61 80 -62q55 0 154.5 33t126.5 67q49 14 96 74q47 59 47 119t-39 92l10 10q-12 8 -41 39q-25 33 -24 45l-8 -6q-6 37 -39 43q-23 20 -60 49t-86 68 q-10 29 -30 35l-7 55l17 59q162 123 217 123l115 -6q8 -4 17 -10l24 -16q2 -4 10 -18.5t8 -19.5t-5 -13.5t-11 -17.5q-15 -25 -15 -34l-2 2l-39 -16q-6 0 -23.5 12t-17.5 16l4 -2q8 0 17.5 14.5t13.5 16.5q-25 25 -31 27h-41q-47 0 -55 -25q2 6 -10 6q-2 0 -2 -5t-4 -5l-8 4 l-43 -18l-9 -6q-10 0 -30 -29q-21 -30 -21 -48q0 -19 68 -85l69 -70q8 0 37 -26q18 -25 23 -25q73 -88 84 -121q12 -12 22 -52t11 -58l-15 -62q-28 -18 -28 -42q0 -6 2 -13q-10 -2 -39 -31t-33 -29v-8q0 -2 -6 -2t-6 -2l4 -6q-8 -2 -14.5 -9t-18.5 -7t-48 -26t-44 -34 q2 -4 -16 -10l-15 -6l-10 6q-6 -2 -15 -14l-10 8q-41 -25 -49 -29l-24 4q-18 0 -11 -4l-10 -8l-49 -10l-17 6l-28 -10l-78 16l-14 -2q0 4 -9.5 7t-14.5 2t-5 1l6 19z" />
<glyph unicode="T" horiz-adv-x="403" d="M-55 822.5q0 27.5 15 49t28 21.5l106 -10l31 10l14 -4l21 10q35 0 35 8h4q6 0 3 -4t3 -4q-8 0 -4 1q28 7 65 7q4 0 6 6.5t7 4.5l24 -5q6 0 2 5.5t4 5.5l15 -6l34 10l109 10q6 0 3 -5t3 -5t2 5t2 5l39 -4l21 8h94q12 0 20 -8q0 14 62.5 14t183.5 -18q-2 0 -11 -11.5 t-16 -11.5l-24 6h-101q-6 0 -1.5 -5t-2.5 -5q-6 0 -3 5t-3 5l-14 -10l-148 -10q-4 0 -5 -5t-11 -5t-20 10l-11 -10l-10 10l-10 -8l6 6q-2 2 -8 2l-27 -10l-14 6q-14 0 -25 -10l-10 10l-8 -10q-10 0 -12 -2q-18 10 -35 10q-37 0 -56 -49q-16 -48 -28 -78q-2 -23 -19 -64 l11 -2q-35 -86 -41 -157l-11 4q0 -27 -22 -78l10 -4q-19 -57 -46 -191q-44 -222 -65 -286h-36q-23 0 -23 32.5t12 61.5l-4 10q14 14 35.5 85t20.5 93q4 16 15 56q63 228 63 244q0 12 -7 18q35 35 45 186v8q0 4 9.5 9.5t13.5 16.5t10 13l-8 6l18 31q-2 2 -6 2l-35 -10l-20 4 q-14 0 -14 -14q-4 4 -25 4l-51 -15l-15 6q-2 0 -15 -8t-28 -8l-10 -8q-23 0 -37 -21h-22q-12 14 -19 15l-16 -4q-12 0 -12 27.5z" />
<glyph unicode="U" horiz-adv-x="708" d="M-39 70q0 82 143 561q4 0 4.5 5t6.5 5q4 27 18 47l-2 10q33 61 29 78q14 10 24 60.5t35 62.5q2 -4 31 -18q0 -4 4 0q10 0 33 -13q-10 -29 -72.5 -146t-185.5 -499h14q-29 -104 -29 -121l9 -59l12 -8q4 8 31 20v8q2 2 4 3q8 0 84 84t86 108q57 65 198 234l13 -7 q-5 -5 -5 10.5t97 139.5l96 125l-4 10l10 -4q4 4 0 29l10 -4q29 127 78 223q12 4 33 14l43 -31q-10 -37 -10 -92q-13 -7 -23 -29t-12 -28q-68 -86 -119 -338q-10 -37 -31 -129l-8 -16l-2 -5q0 -6 6 -8q-35 -111 -35 -141q-20 -33 -20 -58.5t6 -39.5q0 -10 -10 -36t-8 -42h4 l-21 -29q-2 -2 -43 -2q-8 0 -22 39q33 68 33 91t-9 38q14 10 31 35q4 6 50 198.5t46 204.5t9.5 28.5t9.5 23t-4 10.5q-41 -45 -41 -51l4 -9q-8 0 -24.5 -17t-18.5 -26q-63 -66 -86.5 -107.5t-84 -113.5t-75.5 -119q-49 -58 -135 -155q-98 -106 -156 -107q-12 0 -26 31 t-19 35l10 14q-14 6 -14 23z" />
<glyph unicode="V" horiz-adv-x="430" d="M14 449v141q19 13 6 24q10 29 15.5 87.5t5.5 66.5l-21 49q0 6 5 10h-2q5 23 8 62q31 10 45 10t31.5 -13.5t16.5 -22.5t-7 -64q-23 -35 -37 -242q-4 -16 -7 -39.5t-3 -28.5l12 -63q0 -176 24 -256l5 8l6 -8q88 136 297 471q49 88 153 277v14q0 43 17 43q33 0 43 -8 q4 -9 24 -29q-23 -33 -41 -96q-26 -26 -82 -111l-77 -123q-6 -8 -24.5 -41.5t-30 -52t-22.5 -38t-18 -25.5l6 -11q-31 -31 -83 -135q-22 -37 -97 -153l6 -11q-16 -6 -36 -61t-19 -78q-10 -2 -23.5 -2t-33.5 -2q-29 29 -29 59l6 52q0 49 -18 104l10 8q-14 35 -14 102.5 t-4 67.5t-7 -2q6 8 6.5 25.5t-12.5 34.5z" />
<glyph unicode="W" horiz-adv-x="849" d="M-35 41q16 16 17 35q-2 -20 -2 -10v51v-2q2 0 18 79q18 93 27 183l10 -4l2 10l-8 27q8 4 15 28.5t13 30.5l-8 4q0 6 33 144.5t35 157t6 48.5q12 51 47 51q12 0 31.5 -17t19.5 -36t-32 -86q-58 -121 -111 -413l8 -9q6 8 6 27q8 10 17.5 23.5t23.5 31.5l-8 4q4 8 4 11.5 t-2 5.5l10 -4q8 8 15 34v13q8 12 30 30q-2 2 -2 14.5t21 26.5q0 21 19.5 49.5t23.5 34.5q27 40 22 43q106 150 119 170q-8 14 -18 29q2 2 14 10l-12 11q8 12 20 12q8 24 32 24t68 -45q-18 -35 -18 -82q-2 -2 -2 -8t2 -10l-8 -10q2 -12 8 -19q-16 -39 -16 -105v-90 q0 -26 2 -55q-10 -37 -10.5 -56.5t2.5 -12.5q8 -43 11 -168t44 -227l4 8l4 -13q10 25 10 33t-2 10q10 2 17 9q32 86 106 250l19 24q12 16 8 41q12 0 30 49q14 14 25 66l6 -10q73 154 182 356q-10 10 -20 12v23q36 46 78 114l53 31q33 0 33 -29q0 -20 -18 -43.5t-30 -45.5 q-45 -80 -128 -232l8 -10q-25 -16 -51 -64q-22 -40 -22 -65q0 -6 1 -11h-4q-16 0 -29 -59q-25 -60 -47.5 -99.5t-38.5 -50.5l11 -2q-113 -252 -113 -263t4 -23q-27 -33 -51 -168q-2 2 -4 2l-13 -12q-10 10 -20 10l-14 -4q-4 0 -4 7t-7 7q-6 0 -6 -2t2 -4l2 8q-16 18 -20 19 q4 4 4 13t-11.5 33.5t-11.5 32.5v11q0 25 -18 71q2 39 -12 45q10 10 10 21.5t-20 40.5q10 10 10 18l-8 49q-2 10 -6.5 22.5t-8.5 29.5q6 8 6 39.5t-14 39.5l16 7v301q-4 4 -4 37.5t-12 44.5q-2 -2 -17.5 -25t-50 -72.5t-36.5 -89.5l-13 4q-8 0 -6 -39q-35 -23 -61 -104 q-6 -6 2 -14q-20 -14 -46 -70.5t-26 -85.5h-6q-8 -8 -8 -28.5t-7.5 -22.5t-12.5 -12t-23 -89q-18 -16 -37 -92l-12 4l-15 -10q-14 16 -45 37zM72 285h8v12h-8v-12z" />
<glyph unicode="X" horiz-adv-x="610" d="M-129 -188.5q0 16.5 16 32.5q-6 8 -6 12.5t12.5 11.5t23.5 26.5t31.5 56.5t42.5 75q49 85 83.5 126t93.5 137q45 41 94 125l12 -6q2 2 2 10q0 25 -38 45l4 4q-40 50 -129 143q-6 18 -66 56q10 14 10 23t-4 18q29 20 53.5 20t35.5 -19q74 -131 163 -225l-2 -6q2 -2 6 -2 t11.5 7t13.5 17.5t12 19.5t6 13q20 8 105.5 111.5t87.5 120.5q23 6 78 81q50 68 50 89q0 2 -1 4q4 4 7 10t6 9t30 4l12 10l-2 -6q0 -2 6 -4l10 6l25 -25l4 8q14 -14 18 -22q0 -10 -89 -87q-82 -71 -82 -88q0 -2 1 -3q-8 -14 -30 -27q-27 -27 -33 -49q-31 -12 -104 -105 l-105 -129q10 -37 90 -139q141 -179 178 -221l-18 -19l4 7q-8 17 -36 32.5t-38 26.5v2q-2 2 -8 2l-43 59q-29 35 -62.5 77t-74.5 89l-29 29q-38 -38 -170 -205q0 -4 -6 -12t-12 -18q-17 -31 -15 -37q-16 -2 -78 -103q-94 -154 -118 -209h-6l-25 -6q-8 0 -8 16.5z" />
<glyph unicode="Y" horiz-adv-x="792" d="M-410 -385q0 16 11 12l12 8q-4 12 -4 21q0 74 96 170q4 4 41 4l-10 -4q12 -6 18 -10q-29 -29 -67 -86q-15 -45 -23 -83q-14 -66 -14 -85t4 -35v-21l6 -10q-2 -6 -2 -30.5t44 -119.5t73 -96q12 0 51 -24l4 10q2 2 32.5 -8t41 -10t16.5 12l17 6l14 -4l10 8l-2 -4l8 -4 q31 0 211 174q2 -4 12 -6v2q0 20 72 98q88 125 105 207q41 59 76 154.5t51 139.5t20 54l-10 6q5 12 28 56l-8 4q12 43 35 69l-16 11q33 55 65 194q8 20 25 49q-2 2 -12 2t-49.5 -47t-43.5 -65q-35 -16 -86 -86q4 -4 -8 -4l-10 -2l4 -6q-2 -2 -24 -20l-68 -56 q-74 -61 -79 -61.5t-30 -26.5q-25 -27 -29.5 -27t-21 -10t-20.5 -10q2 0 -7.5 -10.5t-17.5 -10.5h-6q0 -4 6 -6h-8l-35 -6l-51 10l10 10q-6 4 -35 49v125q14 12 15 56q14 14 10 39q12 12 22 48t13 42v6q0 14 34 74q2 41 91 219q2 -2 4 0l-6 12q0 12 16 12q8 16 29 49l-9 7 q-35 -5 -77 -5l-11 -6l-55 -4q-8 12 -27 21q2 27 -10 37q0 16 35 16l121 -8l35 8l16 -4q2 0 6 5t23 5l16 12h21q10 -8 26 -14q-244 -420 -244 -545q-30 -6 -30 -144v-9q0 -39 16 -62l6 10l4 -10q31 18 78 66q76 8 297 258l15 6q79 90 180 186l-10 15l18 6v6l-8 8 q23 10 25.5 21.5t0.5 11.5q29 43 33 82l-4 6l8 6q4 -2 11.5 16.5t15.5 24.5l-10 10q27 45 76.5 121t99.5 76q20 0 49 -17.5t29 -29.5t-5.5 -12t-7.5 -2q-2 -8 4 -25q-4 -8 -9 -18.5t-13 -26.5q-80 -98 -238 -281q-4 -6 -29 -63q-43 -96 -58 -150q-18 -67 -34 -86l7 -8 q-35 -80 -80 -240l-11 5q-58 -226 -154 -403q-103 -187 -116.5 -187t-15.5 -31q-87 -81 -87 -103q0 -2 1 -3q-14 -4 -73.5 -46t-61.5 -51q-2 2 -8.5 2t-42.5 -21.5t-37 -25.5q-6 2 -23 2h-23q-10 -2 -24 -2l-51 10l-11 11q-31 8 -129 86l9 16q-53 35 -78 154q4 4 4 16t-10 8 zM811 762l12 -6l23 10l-6 14l8 -6q12 0 14 21q8 12 19.5 30.5t27.5 40.5q6 -4 6 11v12q-45 -33 -104 -127z" />
<glyph unicode="Z" horiz-adv-x="706" d="M-190 -133q2 2 16 40t45 42l10 10q52 19 141 127q23 27 58 64q138 143 217 229q89 114 389 475q-10 12 -12 12q-111 0 -119 -14l-10 10q-118 -20 -219 -20q-47 0 -43 -25l2 -10q-16 2 -43 15.5t-31 25.5q-6 2 -21 16q16 4 5 17q29 16 28 8v2q2 -2 4 0v8q2 2 4 2l45 -4 l31 10l35 -6l20 10h277l31 15l30 -11l52 15l-11 4q20 10 78.5 56t93.5 46h7l10 -10q51 -12 65 -57q-35 -47 -41 -47t-8 -7q0 -4 -4 -3t-7 1t-7 2l-15 -14q-8 4 -14 6l-49 -16l-51 -19q-4 4 -16.5 4.5t-26 -18t-15.5 -27.5q-29 0 -55 -63q-31 -12 -35 -43l-12 2 q-150 -182 -152 -197l-194 -223q-10 -13 -37 -38.5t-16 -30.5q-66 -37 -154 -166q-10 -6 -49 -43l12 -17h4l70 11l184 -21l10 -8q70 -14 113 -14l90 -21l15 4l40 -8l150 -16l88 6l21 -11l22 5q2 0 4 -2q-37 -37 -49 -37t-14 5t-9 5l-10 -6h-38l-112 -4h-38q-10 0 -21 10 l-10 -10q-10 10 -23 10t-16 -6l-10 10q-15 0 -35 -4q2 2 2 5t-2 5q-27 0 -84 14q-16 0 -35 -6q-37 16 -39 17l-20 -6l-104 20l-13 -8l6 6q-2 2 -8 2t-16 -10q-6 10 -36.5 10t-72.5 -10l-14 6q-11 0 -64 -31q0 -4 -5 -4t-5 2t-9 2t-37 -34t-36 -50l-37 -6q-18 18 -36 33z M29 12h8v15h-8v-15zM881 954h18v9h-18v-9z" />
<glyph unicode="\" horiz-adv-x="505" d="M39 764q0 14 20 27l31 16q25 -14 33 -23q-8 -6 -8 -11t2 -7l16 -4q-4 -43 75 -204.5t118 -223t66.5 -131.5t43 -112t35.5 -95l-22 -33l-11 8q-2 0 -4 -2q-51 80 -82 185q-6 41 -20 43q-73 175 -113 243l-10 -6q-18 74 -47 96l10 11l-8 8q-41 66 -68 100q-25 74 -53 80 q4 12 4 19.5t-8 15.5z" />
<glyph unicode="_" horiz-adv-x="542" d="M-35 -59l12 16l-4 4l202 6h54l29 -8h4l-2 6q0 2 10 2h38l126 -4h47l-2 -8q0 -2 4 -2l11 6q39 0 51 6h8q13 0 27 -8q0 -2 -4.5 -10t-2.5 -13q-12 12 -26.5 0t-14.5 -8l7 -6l-15 6h-16l-10 -8q0 6 -8.5 6t-10.5 -2q2 -2 2 -3t2 -3q-8 8 -15 8t-1 -6q-8 2 -29 6l-10 -10 l-143 4l-27 -6l-43 4q-16 0 -18 -8q2 2 2 4q-2 2 -13 2l-116 -8q-8 8 -30 8t-36 -10l4 8q-2 2 -8 2t-6 -2t2 -4q-16 16 -27 31h-2q-2 0 -2 2z" />
<glyph unicode="a" horiz-adv-x="436" d="M2 63q47 98 166 230.5t223 214.5q37 43 52 43t30 -8q16 -33 16 -42t-14 -22.5t-14 -17.5t4 -8q-10 -10 -52 -99.5t-44 -101.5q-6 -6 -7 -10q0 -4 3 -6h-3q-2 0 -6 -6.5t-6 -6.5l10 -14q-41 -84 -71 -254h-37q-8 0 -19.5 15.5t-7.5 21.5q-2 -2 -5 -2t-4 9t15 15l-10 4 q28 15 28 55q0 7 -1 15q23 15 23 69q0 10 -1 21l15 12q0 2 -2 3l-54 -54q-53 -53 -59 -53t-34 -37t-32 -37l-71 -10q-4 2 -31 61zM86 104l12 -12q6 6 11 6q4 0 6 -2l-2 6l6 4q23 0 41 50q4 -4 10 -4l-4 8q34 52 170 192l-10 10q0 4 12 -2q0 17 12 29q-8 -2 -24.5 -14 t-16.5 -14.5t-2 -6.5v-10q-30 -24 -108 -102q-14 -6 -27 -19l6 -8q-18 -4 -92 -111z" />
<glyph unicode="b" horiz-adv-x="366" d="M-20 -4q0 41 26.5 94t63.5 53q2 -2 18 -22q-25 -14 -34 -48t-17 -65q-2 2 22 2q2 -2 2 -10h5l18 10q29 0 117 88q74 70 110 123l-10 4q20 13 29.5 45.5t9.5 45.5t-16.5 32t-32.5 19t-68.5 -30t-52.5 -38t-16 -19q-37 -28 -37 -55l-11 -12l-30 -4q-2 0 -2 5t-5 3t-6 -2 l3 -6q-10 37 -33 41q211 430 211 473q0 4 -6 14q2 2 9 8.5t16 15.5t38 9q25 0 21 -16q6 -10 6 -33t-31 -77q-50 -88 -59 -105q-20 -20 -47.5 -85.5t-38.5 -78.5q2 -2 6 -2t34 19q35 22 60 34l10 10l27 -8l14 4q45 0 61 -24q32 -49 37 -54q-4 -4 -8 -47t-14 -57 q-2 -8 -6 -19.5t-8 -27.5q-10 -18 -50.5 -73.5t-49.5 -55.5t-9 -2l6 -6q-47 -14 -117 -89l-51 -24v-10h-4l-14 4q-6 0 -13.5 -10.5t-11.5 -10.5q-19 13 -26.5 13t-16.5 -7q6 6 6 9q-14 10 -34 55z" />
<glyph unicode="c" horiz-adv-x="354" d="M4 82v31q0 18 11.5 45.5t11.5 33.5t-7 13q10 4 21.5 28.5t17.5 28.5q8 4 21 4q-4 0 -4 7t49 61.5t55 68.5q29 27 46 43q65 62 106 74l10 -10q12 -2 29.5 -21.5t17.5 -29.5t-11 -20.5t-13 -16.5q-12 -4 -60 -86q-8 0 -24 -36t-20.5 -39t-13.5 1t-18 4v4q2 14 -10 29 q35 23 35 49.5t-12 26.5q-2 0 -21.5 -16.5t-27 -22.5t-9.5 -8l11 -4q-4 -6 -22.5 -15.5t-18.5 -19.5l6 -6q-27 -10 -61 -75q-33 -63 -33 -91q0 -4 11 -23.5t7 -36.5l53 -4q14 0 68.5 34t58.5 44q8 4 14.5 8t14.5 8l-4 13l12 -2q40 65 59 65q6 0 11 -2h12v-18 q-18 -23 -18 -29t4 -10q-4 -2 -14.5 -17.5t-18.5 -14.5t-8 -1l6 -6q-10 -6 -36 -25q-155 -110 -175 -110q-47 0 -117 59v13q0 10 -2 20z" />
<glyph unicode="d" horiz-adv-x="479" d="M-20 25q8 29 14 96l10 -2q4 4 4 13t33 40l37 33l-10 4q70 82 264 276l10 11q10 0 16.5 10t10.5 10l22 -4q2 -2 2 0l-4 8q0 4 4 0q35 0 35 74q58 103 58 129q0 4 -1 6l11 -4q46 115 86 115q22 0 47 -37q-16 -25 -39 -82q-12 -8 -47 -90q-18 -4 -46 -63.5t-28 -80.5l-10 5 q-72 -209 -72 -242q-18 -12 -18 -36.5t6 -27.5q-4 -2 -8.5 -6t-10.5 -8l9 -6q-14 -14 -21 -174l-2 2l-25 -8l-38 14q-4 0 -7 -2l9 8l-15 8v64l41 69l8 70l-16 16q-8 -18 -8 -28q-18 -14 -47 -45l-41 -49q-3 -19 -23 -19l6 -6q-10 -4 -68 -52t-74.5 -48t-18.5 6l-11 -10 q-4 6 -28 16l8 8q-8 8 -8 12t4 5zM47 68q0 -12 8 -21q2 6 11 2q63 58 120 117q20 28 47 51l39 51q8 0 12 14q6 27 21 27q-2 2 -2 9t29 36q2 17 18 52q-10 -4 -17 -6.5t-11 -4.5q8 -8 8 -10t-2 -2l-17 8q-49 -51 -87 -90q-177 -182 -177 -233z" />
<glyph unicode="e" horiz-adv-x="380" d="M0 176q8 8 20 41q8 2 19 45q10 6 14 17l51 63l-4 4q12 8 60 68l-2 2q0 8 10 8l53 53q51 55 70 55q74 0 102 -47q-2 -57 -55 -112q-16 -14 -39 -37l-40 -40t-28 -17q-6 -6 -23.5 -18.5t-14.5 -8.5l2 -6q-47 -8 -76 -62q-2 2 -12 2q-13 0 -13 -8q2 -2 3 -4t3 -4l-10 6 q-14 -51 -14 -59q0 -16 14 -36q25 -36 37 -36t11 -2t8 -2t32 2t35 2q-6 0 -2 2t12 5q19 7 27 7q4 0 13 7.5t19 15.5q29 22 34 23t6 4l-9 4q4 2 15.5 14t18.5 12t4 -4t-1 -6l10 25q4 0 20.5 9t29.5 7h2q8 -4 16 -12q-29 -18 -53 -52q-2 -6 -7.5 -6t-5.5 -5t-35 -30.5t-49 -36 t-20 -12.5l-10 -10q-14 0 -47 -14.5t-45.5 -14.5t-21.5 4.5t-20 9.5q-26 11 -44 11q2 2 4 3t4 3q-4 0 -11.5 8.5t-16.5 17.5q-23 23 -34 23q2 4 2 24t-6 42q8 2 8 24.5t-20 28.5zM135 297l12 -8q-2 2 -2 6t7 4l16 -4l59 49l6 -6l9 10q18 0 86 119l-11 -4q-4 4 -20 4t-55 -45 t-58.5 -68.5t-48.5 -56.5z" />
<glyph unicode="f" horiz-adv-x="376" d="M-160 -565q49 86 49 119q72 168 97 294l14 7v2q0 4 -6 20q18 6 24.5 44t4.5 46q23 20 30.5 52t11 50.5t7.5 39.5q18 18 34 88q8 6 12.5 27.5t12.5 27.5q-16 4 -59 59q9 17 16 43l70 -6q34 111 51 193q25 31 74 206t88 189q10 10 25 10t38 -67l-74 -123q-49 -84 -55 -125 q-24 -68 -53 -131v-4q-14 -37 -16 -74l-21 -21l4 -43l10 7q11 0 58 10l65 -6v8q2 2 4 2t2 -5t4 -5v8q0 2 5 2l30 -10v8q0 2 3 2t3 -5t5 -5l10 6l74 4q16 0 16 -25q-16 -6 -16 -20l-11 10q-16 -8 -59 -8l-45 -12l-25 6q-14 0 -14 -15q-12 4 -41 4l-29 -14l-16 4 q-12 0 -33 -12q-12 4 -45 -41q-20 -37 -16 -59q-20 -20 -20 -44q0 -10 3 -20q-25 -16 -24 -80l-17 -28q0 -39 -39 -78l15 -10q-27 -23 -53 -123q-27 -100 -33 -107q2 -2 5 -4t7 -6q-14 -4 -22 -49q-10 -14 -10.5 -34t10.5 -30q-6 -6 -21 -16l10 -8q-35 -70 -36 -97t-25 -57 q-27 -4 -35 -24q-8 18 -33 26v27z" />
<glyph unicode="g" horiz-adv-x="370" d="M-426 -524q0 4 6 10v12q0 6 13 56q27 106 68.5 181t123.5 126q12 -12 22 -17q-47 -54 -84.5 -100.5t-44.5 -93.5q-8 -8 -26 -73q-19 -67 -19 -91q0 -26 32 -92t61 -66q98 0 217 115q4 4 4 6l-4 8q10 10 22 11q6 8 10 30q8 4 41 51q18 37 23 60q10 12 23 48q18 52 36 73 l-8 4q14 18 31.5 66t30.5 65q4 20 7 41q14 96 34 114l-9 5v18l11 -6q-2 2 -2 10l6 33q6 14 20 20q-6 6 -14 6t-17.5 -17t-19.5 -17t-66 -70q-2 2 -14 2t-31 -8h-14q-6 14 -29 18l2 4q0 14 -12 45q19 38 33 89q0 -2 2 -2l14 10l-8 4q16 25 38.5 61.5t53.5 83.5l35 40 q21 24 47 54q39 55 92 107q59 14 66.5 14t16.5 -6t18 -15q24 -22 24 -35t-22 -42q-38 -51 -44.5 -73t-39.5 -66q-14 -37 -36 -91.5t-50 -125.5l10 -4q-18 -23 -18 -39.5t2 -22.5l-11 4q-4 -10 -12 -63q-14 -18 -65 -167t-56 -173q-14 -14 -8 -29q-89 -111 -86 -151h-4 q-12 0 -19.5 -13.5t-5.5 -25.5q-14 -2 -30.5 -21.5t-30.5 -36.5l-41 -28q-10 0 -49 -21q-39 -20 -49 -20l-21 10l-29 -10q-8 0 -46 33.5t-44 27.5q-57 117 -57 156zM80 96q2 -4 2 -9t2 -13q0 14 12 14t10 -6q14 10 27.5 26.5t30.5 36.5q6 12 22.5 24.5t20.5 18.5 q-4 20 61 111q13 43 25 53q0 16 -19 33q-26 -31 -61 -82q-39 -27 -133 -207z" />
<glyph unicode="h" horiz-adv-x="405" d="M-18 20q12 29 81 275q14 8 58 127q45 119 43 137q18 8 61 123q2 14 5 50t32 52q23 -12 47 -32v-45q-47 -70 -65 -152l-11 6q0 -8 -43 -108q-62 -144 -67 -199q6 6 10 4l-4 18l10 -8l23 21l-6 6q35 39 100 106q25 6 59 21q2 -4 11.5 -12.5t9.5 -20.5l-14 -100l-15 -15 q-1 -14 -23 -68q-18 -43 -17 -67q0 -7 1 -12q-10 -31 -10 -47t7 -37.5t1 -36.5q4 -8 19.5 -26.5t24.5 -18.5t9 -4t5 0l28 -6q12 12 19.5 12t15.5 2l21 21q10 0 24 14q-6 18 31 35q51 20 59 28q3 -3 23 -18l-72 -70q-57 -53 -72 -53q-29 -18 -36 -31l-60 -4q-10 0 -19 9.5 t-22 9.5q12 0 -41 16q-27 115 -30 119l16 92q0 16 -6 33l10 12v2l10 10v74l-8 8q-68 -78 -174 -280q-4 4 -31 4q-8 0 -28 24z" />
<glyph unicode="i" horiz-adv-x="282" d="M12 8q17 76 64 203q12 18 30 61v2q0 10 20.5 53.5t18.5 55.5q20 8 21 18q0 25 -21 39q20 16 62 54q25 0 35 -29t12 -27q-32 -62 -101 -192.5t-69 -171.5v-56q-8 -8 -4 -16q-14 2 -31 -14q-8 6 -37 20zM270 719q31 43 52 43q16 0 47 -53q-6 -8 -21 -37h-51q-10 0 -27 47z " />
<glyph unicode="j" horiz-adv-x="270" d="M-526 -401q2 10 10 35.5t22 70.5l39 115q25 29 47 76l23 6l16 -19q-72 -119 -88 -223q-20 -33 -20 -66l16 -83q0 -20 -6 -35q4 -2 42 -52.5t54 -50.5l54 11q14 20 28 20t18.5 11.5t22.5 28.5q70 66 170 183q10 25 43 58l-10 4q53 104 132 318t79 308v74l14 23 q-4 12 -4 16l10 37h21q10 2 21 2t22 -2l12 -21q-2 -2 -13 -47t-11 -56t4 -24q-4 -12 -25 -32q2 2 3 2t3 2q4 0 2 -31q-18 -16 -24 -46.5t-10.5 -49.5t-8.5 -43q-6 -14 -16 -40l-119 -300q0 -10 -20 -46t-23 -50q-47 -53 -67 -115q-57 -69 -136 -151t-98 -83q-6 0 -14 -10 t-15 -10l-14 6q-14 0 -20 -10l-11 10q-12 -6 -39 -6q-6 0 -34 35q-31 33 -37 37l-41 90q-4 20 -4 123zM272 717q0 12 9.5 29.5t17.5 17.5h31q29 0 47 -57q-4 -4 -58 -37q-4 8 -25.5 21.5t-21.5 25.5z" />
<glyph unicode="k" horiz-adv-x="348" d="M-18 42q0 11 24.5 73.5t32.5 68.5l-8 4q12 8 12 54q10 8 33 92l26 106q37 89 82 318h17l20 2q13 -13 37 -33q-25 -39 -42 -105q-17 -68 -73 -223v-8q0 -16 -12 -50t-10 -52q-20 -11 -20 -47q0 -9 1 -19q0 2 -5 2t-7 -6l2 -2h8q178 160 236 160q6 0 13 -10.5t11 -12.5 l-8 4l6 -30q-98 -92 -174 -213q-23 -31 -35 -75q-20 -74 -34 -97q68 -125 110 -125l56 4q2 0 2 -6t4 -4l4 4q18 0 46 13t34 13l24 -6l35 21l16 -13q-10 -10 -63 -41q-55 -37 -61 -36h-99l-57 24l-10 -4q-25 0 -95 135v101l11 -9q8 8 4 13q8 8 23 45t12 49q14 2 26 37 q-4 -6 -6 -10q-5 -12 -8 -15l-6 10q-29 -35 -74 -135q-2 2 -4 2l-21 -6q-10 0 -23 13.5t-13 24.5z" />
<glyph unicode="l" horiz-adv-x="204" d="M-14 -10q0 16 11 50q21 65 21 77l11 -6q0 23 16 69.5t21 68t32 70.5q0 16 14.5 49t14.5 56q8 4 20 12q-4 4 -4 8l23 86q30 61 51 121q10 49 37 140q8 8 12 22l-4 10v19q14 4 19 8l-11 4q23 23 47 23h5l-5 -9q0 -2 2 -2q35 1 35 -28q0 -22 -21.5 -50t-27.5 -32l10 -4 q-72 -150 -129 -340q-14 -16 -32 -74v-8q0 -12 -8.5 -33t-10 -27.5t-63.5 -181.5l14 -12v-23q-5 -5 -31 -51q-15 -22 -52 -22h-3z" />
<glyph unicode="m" horiz-adv-x="585" d="M-18 14q0 8 6 11.5t6 5.5q50 177 76 198l-11 11q16 29 36.5 89t25.5 85q23 16 47 16q8 0 37 -37q-29 -43 -62 -141q16 14 38 31.5t48 40.5q2 8 0 20q20 8 25 33q2 20 27 24l10 -6l24 11q10 0 7 -5q-4 -4 0 -6l10 11q18 -18 26 -21q-4 -25 -12 -60.5t-18 -82.5 q-20 -8 -6 -19q-2 2 -5 2q-4 -4 -8 -10l13 -14q2 2 2 6t-5 8l44 44q34 34 119.5 120t86.5 86q27 -7 33 -8.5t10 2.5l-4 4q2 -8 13 -8l10 -11v-43q-43 -90 -43 -94q-14 -4 -48 -91t-34 -108.5t2 -27.5q-8 -12 -6 -39q-12 -39 -31 -39q-2 0 -2 -3t-3 -3q-2 0 -28 8q4 2 -10 8 t-16 17q0 55 50 156t52 147q-35 -16 -111 -129q0 -6 -12 -6q-78 -90 -78 -113q-18 -4 -42 -33t-29 -28q-23 0 -54 30q51 139 76 191l-14 6q0 8 18 18l-8 8q0 -8 -13.5 -10t-13.5 -10q-10 -6 0 -12q-35 -23 -97 -112t-66 -128q-16 -2 -21 -22q-37 -12 -31 -13q-8 0 -22 18.5 t-14 26.5zM121 215l14 6l-2 6l-12 -6v-6zM129 236l4 -7l19 19l-7 4z" />
<glyph unicode="n" horiz-adv-x="372" d="M-41 49q14 12 45 53q-2 20 21 54l-2 8q0 17 12 46q22 52 22 68.5t-2 22.5t2 33q20 39 58 43q37 -23 37 -47l-60 -144l6 -8q82 78 236 232v4q0 12 -4 0q6 2 13 14t15 12l35 -4q27 -31 31 -37q0 2 -21 -41q-2 -39 -80 -213q-68 -152 -68 -196q0 -6 1 -10q-17 -17 -32 -17 q-5 0 -11 2q-20 8 -27 8q2 8 15 23q-2 4 -8 2q33 76 122 334h2q2 2 3 9t-1 7l-6 -6h-6l-63 -59q0 -4 2 -9q-35 -6 -62 -61q-16 0 -37 -27q-20 -27 -28 -26q-6 0 -47 -61t-47 -62h-21q-7 0 -15 16q-17 33 -30 37z" />
<glyph unicode="o" horiz-adv-x="339" d="M-4 80l8 6q0 74 23.5 108t32.5 48q17 25 12 30q63 61 80 109q6 4 41 45t65 47l10 10h21q16 0 38.5 -41.5t22.5 -64.5q0 -104 -76 -228q-24 -38 -63 -102q-9 0 -37.5 -22.5t-29.5 -22.5t-11 -6t-24 -6t-46 -10q-6 4 -14 12q-29 13 -53 88zM63 94q0 -41 41 -43l21 10 q4 0 4 5.5t7 5.5t44 35.5t45 48.5q8 12 68 157q-4 8 -12 25q4 2 7 4t7 4q-6 6 -14 12q4 2 8 3.5t8 5.5q-7 5 -8.5 10.5t-3.5 7.5l-6 4l-21 -14l-10 4q-43 -51 -82 -82l8 -6q-33 -16 -72 -86t-39 -111z" />
<glyph unicode="p" horiz-adv-x="391" d="M-160 -315q0 25 45 69l-8 4q23 39 51.5 114t42.5 101q0 29 58 222q41 29 55 170l6 -5q2 29 19 89h4q4 8 4 45q44 36 76 36h2q16 -16 74 -34t69 -47q24 -19 57 -54l-4 -2q29 -29 29 -82q0 -16 10 -32q-16 -43 -131 -211q-20 0 -29 -25q-18 -2 -37.5 -22.5t-33.5 -20.5 l-45 -25l-48 -20q-8 0 -8 -2l4 -6q-12 2 -63 35q2 4 2 11t2 17l-10 8q-20 -39 -21 -71l-43 -107q-24 -57 -24 -102v-10q-18 -14 -51 -90q-2 2 -27 2l6 6l-27 8zM41 37l4 -14q6 20 23 26q-4 8 -5 12q0 4 3 7l6 -9q-4 8 -4 13q8 2 20 12q25 53 41 53q18 7 25 21l10 -11 q23 0 29 -8q-23 -16 -35 -57q-16 -8 -31 -14q4 -8 4 -11.5t-3 -1.5t-9 2q2 -2 2 -11t-8 -15l14 -8l-4 6l6 4q6 0 21 14q-2 2 -3 -8h5q20 8 49 24q9 20 57.5 61.5t52.5 45.5l-6 10q55 62 55 114t-52 99t-103 47q-20 0 -23 -14q2 -2 2 -10q0 -37 -32 -68l10 -4 q-27 -29 -62 -139.5t-53 -128.5q2 -6 6 -6q-12 -16 -12 -33z" />
<glyph unicode="q" horiz-adv-x="452" d="M-23 61q0 18 34 76.5t55 69.5l-11 4q74 80 148 178l-8 6q14 0 23 6t15 9q12 7 80 67q8 6 0 15l43 10l15 -4l39 10q2 -2 12 -5t29 -11l12 -11v-16q-27 -47 -60 -121q-14 -14 -28 -57q-14 -10 -28.5 -37t-16.5 -27q-35 -53 -35 -79.5t2 -32.5l-10 8q-12 -23 -13 -62 q-25 -12 -36 -65q-7 -26 -19 -82q-6 -10 -13 -28.5t-18 -41.5q6 -6 12.5 -7t6.5 1l-6 6l10 -6q11 11 39 53q34 34 170 152q18 0 37 -27q-8 -2 -8 -12l4 -12q-76 -23 -162 -146q-14 0 -12 -32q-23 -18 -60 -60q-92 -135 -115 -313q-25 -14 -25 -62q0 -9 1 -18q-20 0 -21 -21 q4 4 -12 5q-12 0 -9 -3.5t5 -3.5l-12 7q-6 0 -18.5 13t-12.5 21q0 12 15 51.5t20 41.5q-4 16 -12 14q0 6 4 8t8 6q11 11 14 37q18 35 35 150q12 4 20 8l-10 4q27 59 50 153q39 151 61 205l10 10l-4 21q-23 -8 -78 -64q-18 -12 -61 -32q-10 2 -23.5 6t-32.5 8q-6 11 -34 35 l10 10q-14 12 -15 14zM51 76l4 -21q29 0 46.5 14.5t23.5 16.5q51 45 76.5 66.5t29.5 25.5t46 81t51 85l-2 10q-4 0 -4 4q0 16 26 25v25h-14q-70 -49 -74 -66q-23 -2 -111 -102t-92 -120q-6 -29 -6 -44zM186 -184l9 -2l6 12l-6 2z" />
<glyph unicode="r" horiz-adv-x="395" d="M-8 14q0 -8 12 33q-2 14 45 124t47 144l-8 41q23 41 41 41q49 0 55 -24q8 -35 15 -41q10 16 34.5 38.5t80 72t75.5 49.5h29q0 -4 8 -11.5t14 -15.5q0 -41 -100 -262q-16 2 -43 6q0 6 -2 10v8q0 6 5 14.5t5 24.5t6 17l6 -4q2 6 5.5 42t23.5 46l-4 20q-8 -4 -19.5 -12 t-41 -29t-28.5 -29t1 -9t2 -3q-12 -4 -35 -37q-35 -28 -83 -108q-38 -64 -38 -99q0 -9 2 -16q-8 -4 -30 -35q-10 -12 -54 -28q0 8 -13 17t-13 15z" />
<glyph unicode="s" horiz-adv-x="321" d="M-51 20l10 13q12 0 55 -15l9 -10v2q2 2 10 2l45 35q6 29 37 93t30 120q16 16 17 64l12 55q14 31 14 40t-8 15q8 12 23 12q6 0 27.5 29t19.5 33h24q10 2 16 2h11q10 0 21.5 -21.5t11.5 -33.5l-10 -33q-20 0 -21 -21l-41 5q-18 -72 -30.5 -115t-30 -106t-47.5 -119 q-20 -20 -95 -117l-10 2l-16 -14h-37q-6 0 -8 5t-13.5 5t-25.5 73z" />
<glyph unicode="t" horiz-adv-x="352" d="M10 330l10 10v16q2 18 11 23l21 4q7 0 18 3q15 4 36 7.5t29 15t15.5 24.5t13.5 23.5t12 14.5l-6 10l6 6q-2 2 -2 9l6 24l-4 10q25 67 72 156q-4 12 -6 14q3 6 34 50q-4 2 -12 10q2 2 8 2q12 43 29 57q-6 6 -10 21q12 35 23.5 41t54.5 6q6 0 9 -7.5t7 -9.5v-32 q-20 -20 -86 -181q-14 0 -49 -105.5t-43 -115.5q2 -2 6 -5t8 -7q-4 4 -7 4t-3 -4l72 14q4 0 12 -2l8 -2q33 6 68 15l12 10q4 -2 7 -2t7 -2l80 14l35 -4q4 -7 16 -19q-14 -10 -32 -18h-27l-31 -8l-10 -10q-20 0 -149 -45l-15 6l-69 -35q-44 0 -66 -172q-4 -31 -2 -51 q-8 -4 -30 -66.5t-29 -62.5q-8 0 -9 -4l-12 -5l4 -6q-8 8 -33 17q4 8 5 14q0 6 -5 18q0 8 4.5 22.5t9.5 31.5q11 36 11 57q14 18 29.5 75.5t15.5 77t-18 23.5t-25 -2l4 6q-10 6 -24 6z" />
<glyph unicode="u" horiz-adv-x="425" d="M0 61q6 8 6 34t10 32q-4 4 -16 8q8 8 42 79t34 77l-6 10q33 33 32 78q2 4 15 16q-8 4 -17 13l2 6l-4 6q33 25 33 26l29 -4q33 -23 55 -30v-23q0 -6 -6 -6l-6 2q-4 -16 -53 -78q-8 0 -15 -37q-18 -14 -26.5 -44.5t-14.5 -48t-10 -34.5q-6 0 -6 -2q0 -8 26 -8q20 0 82 88 q14 8 15 25q40 32 67 59q35 41 49 76q14 12 49.5 74.5t34.5 81.5l66 10q12 0 27 -33l-15 -14q7 -14 10 -17q-18 -29 -43 -55q-12 -41 -45 -109l5 -10q-14 -8 -15 -14q0 -4 4 -4l-20 -31l14 -16l-6 2q-8 -2 -14 -13l4 -2l-6 -12l-5 8q-4 -32 -4 -57l-10 4q-35 -128 -35 -152 t6 -26q-4 -2 -26 -31q-14 -16 -37 -20l10 4q-12 14 -45 14l10 12l-16 9q43 77 43 128v9q23 29 23 59q6 16 24 51v15l-8 8q-10 -6 -44 -48t-39 -42t-32 -35t-28 -35q-2 0 -42 -37t-83 -37v9h-4q4 0 -8.5 10t-12.5 12zM295 260l14 -12l-4 12q4 8 14 4q-4 4 -10 4t-14 -8z" />
<glyph unicode="v" horiz-adv-x="354" d="M51 399v37q16 2 58 31q37 0 61 -41v-23q-12 2 -16 -22q2 10 2 1v-38q-14 -12 -15 -42q-1 -32 -5 -72q-3 -22 -3 -40q0 -14 2 -26q-2 2 -4 2l-10 -10v-19l8 -8q119 205 227 332q0 4 2 6l-4 8h6q14 0 27.5 48t48.5 48l38 -26v-37q-41 -29 -271 -369q-4 -10 -10.5 -22.5 t-14.5 -28.5q-6 -47 -13 -48t-13 -7l10 -4q-8 -6 -8 -13q0 -6 2 -10h-15l4 -12q-10 -8 -14 -27q-29 -25 -46 -25q-10 0 -17 9q-5 8 -11 8q-2 18 -2 37v41q0 100 6 160q11 40 11 66q0 20 -6 32q0 2 5 4t5 8q0 13 -4 36.5t0 35.5q-16 16 -21 20z" />
<glyph unicode="w" horiz-adv-x="450" d="M-10 45.5q0 25.5 10 56.5l14 45q2 10 3 53.5t1 45.5t-4 10q2 6 11 6q0 53 8 111q12 4 20 4t23 -15l14 -16v-108q14 10 68 90q51 80 58 80t13 2h19q43 0 43 -52l-21 -245q8 -8 16.5 -8.5t8.5 1.5l-6 11q31 27 30 84l13 -2q4 4 4 16t21.5 41t26.5 42q13 34 60 118v20 q14 2 21 8l-10 5q0 18 -6 28q2 8 34 41q33 33 39 33l37 -6q2 -4 2 -15l-4 -8v-24q-18 -12 -14 -35q-18 -6 -41 -56t-30 -59q-12 -17 -69 -137q-32 -68 -59 -135q-20 -14 -20 -28.5t2 -16.5l-13 4q-9 -59 -19.5 -87t-35.5 -46h-18l-17 10q-12 0 -26 8q12 2 12 8 q-12 12 -23 17q6 8 13 24q-8 2 -8.5 16.5t20.5 22.5q-14 8 -14 31l10 47l-4 43q0 27 14 39v113l-8 8q-2 -2 -15 -29t-20 -27q-18 0 -10 5v-2q2 -2 3 -4.5t5 -6.5q-26 -21 -45 -69l4 -11q-29 -10 -29 -22q0 -4 4 -12q-25 -27 -30 -66l-29 -16q-14 -8 -39 -9q-18 0 -18 25.5z " />
<glyph unicode="x" horiz-adv-x="364" d="M-55 -98q14 35 59 90q69 71 69 85q0 2 -1 3q25 35 73 90q-6 8 -13 21.5t-17 29.5q-5 16 -14 36.5t-25 27.5q-2 2 -13.5 28.5t-11.5 33.5t17.5 20.5t29.5 13.5q41 0 72 -79q8 -21 23 -60q78 78 86 116q6 8 15 21.5t21 30.5l-2 14q4 4 43 27q2 6 10.5 6t17.5 -5.5t18 -13.5 q26 -21 28 -26q0 2 -2 2q-14 0 -14 -7.5t10 -11.5l-8 6q-2 -2 -2 -6t4 -8q-31 0 -31 -31q0 -6 2 -8q-31 -10 -37 -26q-25 0 -28 -29q-14 -2 -56.5 -50t-42.5 -63l15 -20q14 -20 14 -45l8 8q6 0 7 -12.5t7 -12.5q14 -6 15 -8q0 -4 -6 -6q16 -10 39 -35q-12 -2 -11 -35h-2 l-41 -6q-18 0 -18 19q0 2 -4 2q-18 25 -33 32l10 9q-25 14 -43 53h-14q-9 -15 -83 -103t-87 -143h-31q-23 0 -22 25z" />
<glyph unicode="y" horiz-adv-x="442" d="M-543 -631q10 25 12.5 128.5t28.5 135.5l-6 11q10 6 60.5 63t71 57t42.5 -12q-22 -22 -90 -80q-14 -12 -26.5 -45t-24.5 -45q0 -29 -14 -78l8 -14l-4 2q-6 0 -7 -8l11 -55q0 -47 18 -91.5t23 -70.5q12 -4 20 -12l-8 -5q56 -67 113 -67h2l59 20q6 0 75 58.5t68 66.5l-4 8 l11 -4q4 8 16 25.5t33 49.5t41 65.5t55 89t57 125.5l15 6q-4 4 -7 4q-2 0 -4 -2q77 124 95 235q25 27 24 74q18 57 94 262l-12 15q-4 -8 -8 -31q-14 2 -26.5 -16.5t-18.5 -18.5q-14 -8 -14 -29q-14 -2 -36 -25.5t-24 -37.5l-12 2q-12 0 -24.5 -24.5t-12.5 -28.5 q-8 0 -38 -30t-41 -30t-48 25v24q2 2 29 58v4q-6 12 -6 15t11 23.5t11 34t-2 19.5l10 -6q29 83 29 136v7q4 2 23 32t27.5 30t23 -3t20.5 -3q-4 -12 -4 -25.5t14 -20.5v-16q-42 -42 -82 -160q-6 -16 -11 -27t-7 -22q2 -2 12 -2t39 35l39 47q109 109 103 121q39 27 77 84 q39 57 43 104q20 33 21 25q0 4 -6 4q35 25 73.5 110t85.5 107q27 14 68 14q6 0 27 -20q4 -10 6 -19.5t4 -17.5q-43 -43 -119 -160q-49 -23 -139 -163q-33 -54 -64 -179q-12 -14 -39 -87q-27 -72 -27 -86q0 -13 -1 -13h-8v-2q0 -39 -23.5 -95.5t-35 -84t-15.5 -41.5 q-17 -21 -57 -123q-16 0 -25 -57q-19 -44 -78 -115l10 -8q-27 -45 -56.5 -94.5t-65 -102.5t-118.5 -121q-82 -67 -127 -67h-1h-47q4 4 4 9t-11 5l-20 -6q-2 2 -11 9q-86 63 -106 118q-33 96 -41 104z" />
<glyph unicode="z" horiz-adv-x="421" d="M-70 -41q5 10 15 45q46 18 153 136t119 159q10 4 64 78q-10 6 -24 6t-24 -10h-14l-31 -19q-4 4 -18 4t-23 -8q0 4 -7 -4t-11 -8l-37 12q-12 43 -12 47q0 16 14 17q4 2 23 12q6 8 12 8l35 -6l51 14h35l8 -10v2q0 -2 5 1t13 7q24 11 37 11l15 -4q6 0 7 5t7 5l16 -6 q10 0 11 14q16 10 53 10q25 0 43 -51q-25 -15 -41 -23q-25 -16 -27 -34q-4 4 -20 4q-10 0 -133 -142l-148 -170v-16q12 4 8 8l9 -8l6 10q-2 -2 -2 -5t6 -5l51 6q6 0 2 -5t2 -5l47 14l19 -4l94 15l20 -5l27 5q2 0 3 -5.5t5 -5.5q-10 0 15 11l10 -11q4 4 34 14.5t35 10.5 l45 -10v-19q-18 -10 -82 -30.5t-83 -20.5l-43 6q-20 0 -35 -12h-21l-24 4q-5 0 -35 -10q-6 0 -21 6l-8 -10h-6l-41 -11l-29 11l-5 -3q1 1 -1 0q-6 -3 -55 -22q-41 -20 -47 -20t-6 -5l2 -6q-12 4 -39 25l-6 -4q4 10 -17 10z" />
<glyph unicode="&#xa0;" />
<glyph unicode="&#xa9;" horiz-adv-x="1024" d="M81 -214q1 30 13 48l-10 8q11 8 51 78q41 59 55 64q25 4 48 -4q-22 -34 -54 -71.5t-39.5 -71.5t-17.5 -48q6 -21 -2 -80l10 -12h-4q-6 2 -2 -10q-2 -4 6 -22.5t11 -36.5q7 -44 35 -85t30 -61q12 0 22 -10l-6 -4q70 -57 123 -48q6 0 25.5 14.5t30.5 14.5q10 4 66 71t56 74 l-4 9l8 -2q8 23 37 75q16 41 20.5 75t20.5 76q25 66 45 153l11 8l-2 2l-9 -2l2 2q-4 4 -3 14t3 10l5 6l-3 3q5 29 13 44q16 30 28 95l-16 14q-2 -2 -2 -8l-10 -10h-10l-13 -25l-12 -8l-10 -25l-9 -4q-2 2 -2 3t-2 3l-32 -16q-8 -14 -4 -18q-10 -6 -33 -38t-43 -36l-43 16 l-2 27q3 3 16 61l-2 4l-2 2l61 19l5 2l4 -12l106 110l4 6l8 4q26 84 64 107q20 16 44.5 19t31 0t18.5 -13q-4 -4 0 -4l2 -35q-2 -2 -16 -35l-43 -53l-13 -61h-2q4 0 5 -25q-7 -10 -15 -33v-28l4 -2l2 2l2 -11l-6 -16q0 -2 -12 -8t-18 -35t-15 -47l2 -2l-8 -49l-2 -10 l-43 -89l4 -4q-12 -45 -20.5 -96t-47.5 -113q-35 -67 -92 -131q-74 -88 -123 -94l-45 -6q0 2 1 2t0 5t-8 5t-12 -4t-9 -6q2 0 -54.5 32t-78.5 75q-51 89 -60 98q8 25 -3 106.5t-10 111.5z" />
<glyph unicode="&#xab;" horiz-adv-x="686" d="M-20 391l10 41q4 4 16 21l70 30l14 -6q14 6 37 25q25 12 74 30l10 11h14q67 41 72.5 46t18 14t23.5 19.5t37 36t42 25.5q37 0 37 -33l-13 -39q-14 -12 -63 -42.5t-50 -30.5t-3 -2l-4 -9l-70 -28q-6 -4 -14 -13q0 -10 -41 -10q-8 -8 -52 -37q-27 -14 -26 -20 q-4 -2 -11.5 -4t-17.5 -6l119 -105l12 -12q0 -2 1 -2t1 -2h4l52 -35l16 -6h-4q8 -4 16 -10l91 -57q28 -17 38 -25l13 -39q0 -33 -37 -33q-16 0 -41.5 25.5t-41.5 37t-28.5 18.5t-34.5 28.5t-51 39.5l-20 13h-2l-15 8v6q-4 0 -8 4v2q-35 30 -94 45q2 2 2 4q0 16 -27 15 q-2 8 -6 8l-8 -4l-51 22v4zM274 387l7 31v4l51 22l8 -4q4 0 6 9q27 -2 27 14q0 2 -2 4q59 15 94 45v2q4 4 8 4v6l14 8h2l21 13q29 18 51.5 39.5t34.5 28.5q32 19 63 50.5t48 30.5q37 0 36 -32l-12 -39q-10 -8 -37.5 -25.5t-55 -34t-36 -22.5t-16.5 -11h4l-17 -6l-51 -35h-4 q0 -2 -1 -2t-1 -2q-32 -32 -98 -86q-27 -27 -33 -30l29 -11q0 -6 26 -20q43 -29 52 -37q41 0 40 -10q8 -8 15 -12l69 -29q6 -10 7.5 -10t25 -15.5t51 -33t37.5 -25.5l13 -39q0 -33 -37 -33q-16 0 -41.5 25.5t-37 36t-24 18.5t-14.5 11t-4 5q-4 5 -72 46h-14l-10 10 q-49 18 -74 30q-23 18 -37 25l-14 -6l-70 31q-12 16 -16 20z" />
<glyph unicode="&#xad;" horiz-adv-x="438" d="M37 260q8 8 44 14t52.5 9.5t24.5 3.5l65 -21l15 6l43 -10l94 4q18 1 28 -28q-92 -31 -186 -31l-24 10l-9 -10h-20l-90 -10q-4 0 -27 22v4q0 2 -10 37z" />
<glyph unicode="&#xbb;" horiz-adv-x="686" d="M-33 651q0 33 37 33q16 0 41.5 -25.5t37 -36t24 -19.5t14.5 -11l4 -4q8 -8 72 -45h14l10 -11q49 -18 74 -30q20 -18 37 -25l14 6l70 -30q12 -16 16 -21l10 -41l-6 -31v-4l-51 -22l-8 4q-4 0 -6 -8q-27 2 -27 -15q0 -2 2 -4q-59 -15 -94 -45v-2q-4 -4 -8 -4v-6l-15 -8h-2 l-20 -13q-29 -18 -51.5 -39.5t-34.5 -28.5q-30 -17 -62.5 -49t-48.5 -32q-37 0 -37 33l13 39q14 11 67 43t61.5 38.5t16.5 10.5h-4l16 6l52 35h4q0 2 1 2t1 2q28 28 98 86q27 27 33 31l-29 10q0 6 -27 20q-43 29 -51 37q-41 0 -41 10q-8 8 -14 13l-70 28l-4 9q-2 2 -3 2 t-24.5 15.5t-51 32.5t-37.5 25zM262 127l12 39q10 8 38 25.5t51.5 33t24.5 15.5t3 2l4 8l70 29q6 4 14 12q0 10 41 10q8 8 51 37q27 14 27 20q4 2 11 4.5t18 6.5q-6 4 -33 30q-52 41 -98 86q0 2 -1 2t-1 2h-5l-51 35l-16 6h4q-8 4 -16.5 10.5t-35.5 23.5q-80 47 -93 59 l-13 39q0 33 37 32q16 0 41.5 -25t41 -36.5t28.5 -19t35 -29t51 -39.5l20 -13h2l15 -8v-6q4 0 8 -4v-2q35 -30 94 -45q-2 -2 -2 -4q0 -16 27 -14q2 -8 6 -9l8 4l51 -22v-4l6 -31l-10 -41q-4 -4 -16 -20l-70 -31l-14 6q-16 -6 -37 -25q-25 -12 -74 -30l-10 -10h-14 q-70 -42 -74 -48t-16.5 -14t-23.5 -18.5t-37 -36t-42 -25.5q-37 0 -37 33z" />
<glyph unicode="&#xc8;" horiz-adv-x="1024" d="M156 831l10 11l-4 4q14 10 30 26l39 39q6 2 23 7l-4 4q106 31 102 34q8 -4 15 -4l96 15h98l66 -15l14 4l35 -8l24 -16q25 0 25 -8h6q18 0 64.5 -41t50.5 -62q51 -39 51 -135q-8 -8 -4 -24l-10 -50l-9 -10v-10q0 -39 -8 -66q-33 -69 -71 -129l-29 45q12 20 12 52 q16 4 29.5 29.5t13.5 39.5t-6 19q2 2 12 37.5t10.5 45t-5 28t-10.5 38t-10 36.5t-5 30l-6 -9q-72 115 -260 115l-11 10l-10 -10q-4 10 -28 10q-25 0 -41 -10l4 6q-4 4 -11.5 4t-43.5 -12t-50 -15t-23 -4t-10 -3v-2q2 0 2 -3q-2 0 -2 3q-2 2 -17.5 2t-53.5 -39q20 -23 22 -41 q-6 -9 -49 -15q-2 0 -2 4.5t-5 4.5t-9 -5q-4 20 -47 43zM158 844l2 2q0 -2 -2 -2z" />
<glyph unicode="&#xc9;" horiz-adv-x="1024" d="M-201 553v2q2 -2 0 -2zM-199 555q14 33 31 92q4 4 9 7t9 8l-6 4q82 76 76 75q4 2 8 2t12 6t33 25t41 27l86 49q10 4 32 7t28 6q10 5 16 14q6 2 17.5 4t17.5 6l29 -4q23 10 26 2l2 2q6 2 29 2v-60q-79 8 -186 -49l-15 4l-4 -12q-6 8 -29 -2q-25 -16 -32 -29v7 q-5 5 -54 -41q-20 -23 -36.5 -36t-16.5 -14l2 -2q-8 0 -10 -2q-18 -12 -37 -63q31 -12 39 -25q-4 -10 -15.5 -19t-17.5 -14.5t-8 -1t-6 4.5q-4 -8 -6 -11q-14 18 -62 17l4 14h-6zM-74 655q2 2 2 0q-2 -2 -2 0z" />
<glyph unicode="&#xca;" horiz-adv-x="464" d="M-543 -631q10 25 12.5 128.5t28.5 135.5l-6 11q10 6 60.5 63t71 57t42.5 -12q-22 -22 -90 -80q-14 -12 -26.5 -45t-24.5 -45q0 -29 -14 -78l8 -14l-4 2q-6 0 -7 -8l11 -55q0 -47 18 -91.5t23 -70.5q12 -4 20 -12l-8 -5q57 -68 115 -67l59 20q6 0 75 58.5t68 66.5l-4 8 l11 -4q4 8 16 25.5t33 49.5t41 65.5t55 89t57 125.5l15 6q-4 4 -7 4h-4q77 125 95 233q18 25 22 47l4 82l23 70l-8 25q-19 16 -25 16l-51 -4q-6 0 -16.5 14.5t-14.5 16.5q2 6 6 16t10 27q4 -4 7 -4q47 51 99 108t59 65.5t22 22.5q-12 4 -13.5 4t-3.5 1t-2 -1q0 -4 2 -6 q-4 4 -10 4q-39 0 -123 -84q-12 -4 -22 -16l4 -8q-18 4 -51 20q-14 20 -23 47q20 8 25 25q49 27 129 55l16 14l66 21l18 -4q4 2 5 6t14.5 4t47 12.5t52.5 12.5l33 -33q-35 -68 -58 -68q-4 0 -5 -5t-3 -5q-14 0 -172 -170q2 -2 1 -9t13.5 -14.5t16.5 -9.5l24 -26l2 -11v-4 q0 -8 2 -10q-4 -10 0 -22q-2 -4 -2 -6.5t-13.5 -40.5t-13 -51t-1.5 -13h-8v-2q0 -39 -23.5 -95.5t-35 -84t-15.5 -41.5q-17 -21 -57 -123q-16 0 -25 -57q-19 -44 -78 -115l10 -8q-27 -45 -56.5 -94.5t-65 -102.5t-118.5 -121t-128 -67h-47q4 4 4 9t-11 5l-20 -6q-2 2 -11 9 q-86 63 -106 118q-33 96 -41 104zM147 240v2q1 0 5 4q-2 -2 -2 -3t-3 -3z" />
<glyph unicode="&#x401;" horiz-adv-x="643" d="M-104 393q0 29 26 29l8 10q25 0 83 17.5t75.5 17.5t40.5 74q41 72 41 94q12 12 22 39q14 34 33 74l-8 12q-4 -2 -12 -13.5t-17 -11.5l-24 10q-12 0 -20.5 17.5t-12.5 19.5q8 10 14 31q35 16 72 21l51 20l25 -4l14 14h10q23 0 39 -4l25 14l41 11l14 -6l45 16l45 -6l25 10 l100 10l45 -10l39 10q23 0 27 -18l-72 -27q-10 6 -28 6l-27 -10l-14 4q-20 0 -42 -8t-22 -4l4 -4l-10 6q-20 -4 -43 -4l-14 -14h-7q-10 0 -6 -5q-4 4 -24.5 4.5t-55.5 -26.5q-4 6 -18 6l-31 -14q-37 0 -82 -86q-39 -70 -49 -121q-25 -29 -47 -113l-8 2v-8q20 -4 82 -4 q2 2 2 10t25.5 6t39 4t27.5 7l25 -6l49 10l10 10q4 -2 16 -6l11 6l73 14q37 0 54 -16l-52 -12q-6 0 -9 -5.5t-7 -5.5l-14 -16q-10 6 -25.5 6t-15.5 -4q0 -10 -35 -10t-35 -2l6 -6l-10 8l-4 -10l-6 10q-8 -6 -15 -21l-6 11q-4 -4 -4 -7q0 -2 2 -4q-4 4 -12 4t-8 -2t2 -4l-8 6 q-9 -9 2 -12q-23 0 -33 2t-10 0l6 -6l-10 6q-10 -5 -15 -10q-2 -10 -69.5 -30.5t-72.5 -41t-10 -38.5q-14 -48 -26 -95l10 -4q-2 -10 -2 -19v-20q0 -88 39 -88q4 0 4 -2l-4 -8h4l51 -17l39 11q20 0 115 41l10 10q48 26 84 43q18 18 96 61t103 74l12 -12q0 -12 6 -15 q-35 -29 -65.5 -57.5t-47 -43.5t-77.5 -46t-64 -31l-86 -49q-14 -12 -34 -14l-17 -15q-4 4 -17 4.5t-20 -18.5q2 -2 -48 -2t-52 5t-6 5l-13 11l3 2q-2 2 -11 2l-16 -4q-4 20 -31 47q0 27 -18 49l8 10q-4 18 -18 39l22 104q16 61 37 101l-16 12h-17q-4 0 -51 -17t-68 -18 q-35 18 -34 41zM322 981l6 27q49 76 94 75q12 0 27.5 -15.5t15.5 -27.5q0 -37 -62 -88q-12 0 -36 -6zM508 1001l6 27q49 76 94 76q12 0 27.5 -15.5t15.5 -27.5q0 -37 -61 -88q-12 0 -37 -6z" />
<glyph unicode="&#x410;" horiz-adv-x="550" d="M-104 133q0 14 21.5 31.5t39.5 17.5q15 -10 28 -10t14 5t7 5h74l-4 4q25 2 40 48t20 56q18 34 50 77l-8 4q8 16 20.5 44.5t43.5 88.5q84 164 145 293q4 4 11 10l18 14l-4 13q6 3 6 19.5t-8 35.5q20 43 41 43q47 0 55 -33q-11 -106 -33 -223l6 -6q-20 -156 -16 -264h2 q-8 -12 -10 -13q10 -16 12 -66t12 -65q-6 0 -14 -4v-10q20 -16 43 -17l27 5l10 -13q-8 -2 -21 -12q-39 -6 -59 -18q27 -53 27 -70.5t-3 -22.5q25 -16 25 -69q-10 -23 -61 -23q-20 0 -37 47q0 20 20 29l-10 4v51q-23 53 -41 54q-6 0 -8 -3l6 -6l-10 9l-11 -11q-12 4 -34 4 l-19 -10q-6 0 -41 -10l-35 6l-18 -6l-10 -8q-12 0 -35 -17q-6 6 -25 6q-14 0 -23 -34t-9 -60q0 14 -13 -12q-10 -29 -8 -37h-4q-14 0 -22 -14q-12 4 -48 24q6 26 39 109q-6 0 -20 -5t-29 -10q-44 -12 -55 -12q-2 -2 -2 -8h-25q-10 0 -20 15.5t-10 29.5zM162 213l12 -12 q-2 2 -2 6q4 4 8 4l43 -4q2 0 2 5t4 5h27l68 4l38 10l21 -10v8q2 2 9 2t11 -4q2 10 17 35v141q-18 20 -18.5 43t10.5 37q-4 12 -4 38t6 42q-6 8 -6 29l12 70v67q-4 -25 -187 -338q-5 -21 -38 -98q-3 -23 -33 -80z" />
<glyph unicode="&#x411;" horiz-adv-x="661" d="M-23 711q4 12 15 26q-8 4 -15 11q47 35 93 51l12 10q16 0 55 20q16 0 53 15q37 14 52 14l18 -4q14 0 10 4l11 10h20l33 2h2q68 34 133 33q10 0 6 -4t0 -6l8 10l31 6q42 0 68 -4h2l34 -6l105 10q12 0 154 6q4 -2 12 -14q-16 -16 -17 -20q-8 4 -45 4q-2 0 -2 -5.5t-3 -5.5 t-5 5.5t-20 5.5l-45 -15l-50 4q-12 0 -57 -12l-35 -10v-6h-45l-2 -2v2h-18l2 -2l-4 2h-8q-10 -10 -31 -12.5t-42.5 -8.5t-33.5 -6l-25 6q-23 0 -50 -16t-38 -37l2 -14q-10 -10 -10 -13l4 -8q-8 0 -18 -14v-8q0 -12 6 -21h2l-16 -61l57 12h2l2 2l14 -8q45 16 64 16l10 11 q4 -2 17 -7l18 11h4l-2 -8q0 -2 4 -3q4 0 11.5 8.5t13.5 6.5l6 -6q12 6 43 6q12 -8 96 -31q55 -16 90 -84v-57q0 -6 -6 -6v-2q-8 -8 -34 -52.5t-31 -44.5q-12 0 -13 -28q-18 -25 -65 -76q-59 -59 -66 -62q-96 -53 -104 -73l-10 10q-2 -2 -10.5 -7t-24.5 -16q-33 -16 -38 -16 t-15.5 -13.5t-27 -19.5t-16.5 -10q-2 2 -4 2q-41 0 -84 -45l-20 6q-8 -4 -35 -24q-10 0 -18 8q-9 -18 -15 -33l-57 4l-6 68q0 12 20 30v7l19 51l-15 10q38 103 109 342l-4 4q-4 0 -8 -4q0 2 1 2t1 2q-25 14 -37 10q4 10 1 33.5t25 44.5l-4 -6q2 -2 9 -2h2l-2 6l4 4 q23 0 39 24q28 44 24 70l12 31v6q0 12 -8 15q4 10 17 20v6l-7 6l3 4h-3q-10 4 -20 -4l-18 -14l6 6q0 2 -12 2t-33 -18l-9 4q-12 0 -45 -26q-40 -32 -65 -48h-25q4 0 -35 21zM119 129l53 -10q4 0 6 5t8 5l21 -6q12 0 10 6q1 1 49 29l10 -4q6 0 22 12q28 22 36 22t6 2 q0 2 6 2.5t34 23t40 22.5t33.5 21t27.5 29l19 19q14 0 10 -4l29 33q26 37 112 141q9 13 15 62q0 4 -12.5 20t-16 16t-33.5 15l-139 16l-62 -10l-10 -10q-33 -4 -48.5 -6t-25.5 -19l-22 2l-12 -8q-41 4 -64 -51q-10 -27 -16 -41t-11 -31q-13 -44 -40 -156q-4 -10 -21 -26 q10 -4 10 -6q-4 -4 -4 -2q0 -11 -20 -113z" />
<glyph unicode="&#x412;" horiz-adv-x="661" d="M-23 711q4 12 15 26q-8 4 -15 11q47 35 93 51l12 10q16 0 55 20q16 0 53 15q37 14 52 14l18 -4q14 0 10 4l11 10h53q-2 0 39.5 18t95.5 17q10 0 6 -4t0 -6l8 10l31 6q102 0 102 -26q0 -4 -4 -14.5t-2 -22.5q-31 -8 -35 -37q-16 3 -90.5 -53t-82 -63t-5.5 -11h-4 q-4 -2 -12 -5t-25 -11l-4 -7l4 -8q-2 2 -15 2t-13 -6q2 -2 9 -2t9 2l14 -8q45 16 64 16l10 11q4 -2 17 -7l18 11h4l-2 -8q0 -2 4 -3q4 0 11.5 8.5t13.5 6.5l6 -6q12 6 43 6q12 -8 96 -31q55 -16 90 -84v-57q0 -6 -6 -6q0 -2 2 -2q-6 -4 -34 -50.5t-33 -46.5q-12 0 -13 -28 q-18 -25 -65 -76q-59 -59 -66 -62q-96 -53 -104 -73l-10 10q-2 -2 -10.5 -7t-24.5 -16q-33 -16 -38 -16t-15.5 -13.5t-30 -19.5t-11.5 -10q-2 2 -6 2q-41 0 -84 -45l-20 6q-8 -4 -35 -24q-10 0 -18 8q-9 -18 -15 -33l-57 4l-6 68q0 12 20 30v7l19 51l-15 10q38 103 109 342 l-4 4q-2 0 -10 -4l4 4q-25 14 -37 10q4 10 1 33.5t25 44.5l-4 -6q2 -2 9 -2h2l-2 6l4 4q23 0 39 24q28 44 24 70q12 20 12 34.5t-8 17.5q4 10 17 20v14q-11 11 -27 -2l-18 -14l6 6q0 2 -12 2t-33 -18l-9 4q-12 0 -45 -26q-40 -32 -65 -48h-25q4 0 -35 21zM119 129l53 -10 q4 0 6 5t8 5l21 -6q12 0 10 6q1 1 49 29l10 -4q6 0 22 12q28 22 36 22t6 2q0 2 6 2.5t34 23t40 22.5t33.5 21t27.5 29l19 19q14 0 10 -4l29 33q26 37 112 141q9 13 15 62q0 4 -12.5 20t-16 16t-33.5 15l-139 16l-62 -10l-10 -10q-33 -4 -48.5 -6t-25.5 -19l-22 2l-12 -8 q-41 4 -64 -51q-10 -27 -16 -41t-11 -31q-13 -44 -40 -156q-4 -10 -21 -26q10 -4 10 -6q-4 -4 -4 -2q0 -11 -20 -113zM299 694q16 4 47 35q21 7 62 39.5t49 36.5v24l8 -6l10 11q6 -2 10 -3q2 0 3.5 6.5t13.5 8.5l-121 -17l-27 -10q-4 0 -6 5t-11 5t-38 -22q10 -4 14 -21 l4 -28q-36 -36 -18 -64z" />
<glyph unicode="&#x413;" horiz-adv-x="233" d="M-10 46q0 5 4 17.5t8 26.5q12 42 12 57.5t-2 22.5q14 6 23 57q8 51 33 66l-11 4q25 31 25 80q0 2 -2 4l2 55l22 25q12 32 54.5 163.5t42.5 149.5q-6 8 -43 37q-16 29 -17 27q0 45 39 45q5 0 39 -21l74 6l31 9l14 -5q6 0 8 5.5t6 5.5l27 -6q4 0 6 5t8 5l25 -4l125 20 l35 -6l104 10q12 0 154 6q4 -2 12 -14q-16 -16 -17 -20q-8 4 -45 4q-2 0 -2 -5.5t-3 -5.5t-5 5.5t-20 5.5l-45 -15l-49 4q-12 0 -58 -12l-47 -12l-25 4l-10 -10v2q-4 4 -11 4t-7 -2t4 -6l-10 8q-10 -12 -32 -15.5t-44.5 -9.5t-34.5 -6l-25 6q-28 0 -52 -17q-44 -34 -40 -56 q-4 -4 -4 -7l4 -8q-12 0 -20 -23.5t-4 -37.5q-12 0 -15 -15v-24q-16 -10 -36 -76q-29 -78 -37 -92v-45l-13 -33l-2 -8q-14 -8 -16 -23q-3 -26 -17 -69.5t-23 -68.5t-15 -50q4 -2 16 -10q-16 -45 -10 -84q-4 -25 -21 -58q0 -6 -43 -6q-8 0 -16 14.5t-8 19.5z" />
<glyph unicode="&#x414;" horiz-adv-x="600" d="M-201 553v2q2 -2 0 -2zM-199 555q14 33 31 92q4 4 9 7t9 8l-6 4q82 76 76 75q4 2 8 2t12 6t33 25t41 27l86 49q10 4 32 7t32 9l-2 4l14 7h6l103 34l14 -4l74 15l41 -4l6 -7h78q18 0 46 -12q50 -22 70 -22t60.5 -34t48.5 -52l-4 -29q2 0 2 -1t2 -1l-4 -4v6l-4 -8 q-6 -68 -134.5 -214.5t-201.5 -205.5l-148 -117q-84 -68 -134 -124t-105 -99l-10 8q-8 2 -21 29q0 23 21 61.5t26 61.5q6 35 49 190q12 27 43 132q79 266 97 315q-12 12 -21 18q-28 -11 -65 -29l-15 4l-4 -12q-6 8 -29 -2q-25 -16 -32 -29v7q-5 5 -54 -41q-20 -23 -36.5 -36 t-16.5 -14l2 -2q-8 0 -10 -2q-18 -12 -37 -63q31 -12 39 -25q-4 -10 -15.5 -19t-17.5 -14.5t-8 -1t-6 4.5q-4 -8 -6 -11q-14 18 -62 17l4 14h-6zM-74 655q2 2 2 0q-2 -2 -2 0zM53 168q0 -8 13 -16q20 6 77 55t62 49q31 0 172 145q41 41 174 195q14 18 36.5 51t55.5 80 q-2 2 -2 10t12 37v12l-16 7q-55 49 -84 49l-21 -4q-43 25 -65 24l-74 -14h-4l6 8q-2 2 -6 2t-5 -5t-5 -5l-35 4l-35 -14l-12 2v-11h-23q-4 -2 -8 -6t-10 -8q20 -8 20 -14q0 -14 -35.5 -93t-43.5 -108q-12 -43 -99 -291q2 -2 2 -10t-23.5 -65.5t-23.5 -65.5z" />
<glyph unicode="&#x415;" horiz-adv-x="643" d="M-104 393q0 29 26 29l8 10q25 0 83 17.5t75.5 17.5t40.5 74q41 72 41 94q12 12 22 39q14 34 33 74l-8 12q-4 -2 -12 -13.5t-17 -11.5l-24 10q-12 0 -20.5 17.5t-12.5 19.5q8 10 14 31q35 16 72 21l51 20l25 -4l14 14h10q23 0 39 -4l25 14l41 11l14 -6l45 16l45 -6l25 10 l100 10l45 -10l39 10q23 0 27 -18l-72 -27q-10 6 -28 6l-27 -10l-14 4q-20 0 -42 -8t-22 -4l4 -4l-10 6q-20 -4 -43 -4l-14 -14h-7q-10 0 -6 -5q-4 4 -24.5 4.5t-55.5 -26.5q-4 6 -18 6l-31 -14q-37 0 -82 -86q-39 -70 -49 -121q-25 -29 -47 -113l-8 2v-8q20 -4 82 -4 q2 2 2 10t25.5 6t39 4t27.5 7l25 -6l49 10l10 10q4 -2 16 -6l11 6l73 14q37 0 54 -16l-52 -12q-6 0 -9 -5.5t-7 -5.5l-14 -16q-10 6 -25.5 6t-15.5 -4q0 -10 -35 -10t-35 -2l6 -6l-10 8l-4 -10l-6 10q-8 -6 -15 -21l-6 11q-4 -4 -4 -7q0 -2 2 -4q-4 4 -12 4t-8 -2t2 -4l-8 6 q-9 -9 2 -12q-23 0 -33 2t-10 0l6 -6l-10 6q-10 -5 -15 -10q-2 -10 -69.5 -30.5t-72.5 -41t-10 -38.5q-14 -48 -26 -95l10 -4q-2 -10 -2 -19v-20q0 -88 39 -88q4 0 4 -2l-4 -8h4l51 -17l39 11q20 0 115 41l10 10q48 26 84 43q18 18 96 61t103 74l12 -12q0 -12 6 -15 q-35 -29 -65.5 -57.5t-47 -43.5t-77.5 -46t-64 -31l-86 -49q-14 -12 -34 -14l-17 -15q-4 4 -17 4.5t-20 -18.5q2 -2 -48 -2t-52 5t-6 5l-13 11l3 2q-2 2 -11 2l-16 -4q-4 20 -31 47q0 27 -18 49l8 10q-4 18 -18 39l22 104q16 61 37 101l-16 12h-17q-4 0 -51 -17t-68 -18 q-35 18 -34 41z" />
<glyph unicode="&#x416;" horiz-adv-x="954" d="M-252 -76q6 2 6 10q0 29 15 23l16 2l10 -16l19 -6l12 8l10 -2q10 4 31 18q2 -2 14 -2l17 4v8l57 35q4 -4 42 41q54 64 81 82q8 14 9 17.5t2 5.5t32 20l-2 8q4 4 7 10.5t7 10.5l4 -11q2 7 36 47t40 35q23 23 45.5 41.5t47 38.5t48 35.5t34.5 25t16.5 13.5t9.5 8 q-8 6 -17 15q2 4 -16 26q-35 42 -39 51q-4 0 -6 2l-25 4l-8 21l-65 74l-27 8q-27 33 -48.5 44t-29.5 21q2 4 0 19.5t0 21.5q12 29 47 21q16 -6 32.5 -38t30 -37t21.5 -17.5t10 -12.5h4q5 0 58 -59l12 -4l6 -14q35 -24 62 -54q10 -18 28 -32h9v-2l20 -7q43 107 43 162l14 49 l-4 9q6 2 17.5 14t22.5 12t23.5 -17.5t16.5 -19.5q-16 -16 -16 -45q-29 -59 -25 -86l-10 4q-6 -40 -29 -82l15 -8q14 6 37 25q25 12 73 30l11 11h14q224 132 282 182q11 10 36.5 36t41.5 25q37 0 37 -32l-12 -39q-10 -8 -38 -25q-162 -102 -171 -102l-90 -56q-20 0 -74 -45 q0 -10 -41 -10q-8 -8 -51 -37q-27 -14 -27 -20q-4 -2 -11 -4t-17 -6q6 -4 32 -31q33 -29 86 -74q37 -43 80 -86q6 0 38 -39t34 -49l4 8q2 -10 14 -20l-6 -6q78 -59 105 -115q22 -11 65 -73t47 -62t11.5 -6.5t15.5 -13.5q22 -19 29 -19v-8q2 -2 4 -2q24 -4 26 -4 q16 -16 29 -21l10 4l11 -8l18 4l14 14l17 -4q10 4 10 -13t6 -19l-37 -25q-18 -12 -42.5 -12t-64.5 22.5t-53 22.5q-2 8 -53 61q-47 53 -47 70l-8 -8q-51 80 -198.5 242.5t-211.5 170.5q2 2 2 4q0 16 -26 15q-2 8 -6 8t-14.5 -13.5t-10.5 -18.5t6 -1q-4 -6 -24 -77 t-20.5 -81.5t5.5 -19.5q-21 -31 -39 -76h-2l-18 -6l-39 27q27 79 63 170q0 20 17 65q6 25 12 35l-2 6q-76 -10 -288 -217q-36 -34 -50 -57t-29 -45l-8 10q0 -11 -51 -66q-57 -51 -61 -59q-12 4 -43 -10q-37 -17 -68 -23q-39 4 -49 15z" />
<glyph unicode="&#x417;" horiz-adv-x="655" d="M-29 711q4 12 15 26q-8 4 -15 11q47 35 92 51l13 10q16 0 55 20q16 0 53 15q37 14 52 14l18 -4q14 0 10 4l10 10h54q-2 0 39.5 18t95.5 17q10 0 6 -4t0 -6l8 10l31 6q102 0 102 -26q0 -4 -4 -14.5t-2 -22.5q-31 -8 -35 -37q-14 2 -90 -53.5t-83 -62.5t-5 -11h-4 q-4 -2 -12 -5t-25 -11l-4 -7l4 -8q-2 2 -15 2t-13 -6q2 -2 9 -2t9 2l14 -8q45 16 64 16l10 11q4 -2 16 -7l19 11h4l-2 -8q0 -2 4 -3q4 0 11 8.5t14 6.5l6 -6q12 6 43 6q12 -8 96 -31q55 -16 90 -84v-57q0 -6 -6 -6v-2q-8 -8 -34 -52.5t-32 -44.5q-12 0 -12 -28 q-18 -25 -65 -76q-59 -59 -66 -62q-96 -53 -104 -73l-11 10q-2 -2 -10 -7t-24 -16q-33 -16 -38 -16t-15.5 -13.5t-27 -19.5t-16.5 -10q-2 2 -4 2q-41 0 -84 -45l-20 6q-8 -4 -35 -24q-10 0 -19 8q-4 -10 -12 -25l-8 -2l-6 -6l-45 4l-6 68q0 12 20 30l37 17h2l29 10l49 -10 q4 0 6 5t8 5l21 -6q12 0 10 6q1 1 49 29l10 -4q6 0 22 12q28 22 36 22t6 2q0 2 6 2.5t34 23t40 22.5t33.5 21t27.5 29q7 9 19 19q14 0 10 -4l28 33q21 30 113 141q8 12 14 62q0 4 -12 20t-15.5 16t-33.5 15l-139 16l-62 -10l-10 -10q-33 -4 -48.5 -6t-25.5 -19l-22 2l-12 -8 q-23 0 -37 -12h-2l-78 -33v2l-4 4q-4 0 -8 -4q0 2 1 2t1 2q-25 14 -37 10q4 10 1 33.5t25 44.5l-4 -6q2 -2 8 -2h2l-2 6l5 4q16 0 43 29l102 59q14 4 45 35q24 8 63 40t48 36v24l8 -6l10 11q6 -2 10 -3q2 0 3.5 6.5t13.5 8.5l-121 -17l-27 -10q-4 0 -6 5t-11 5t-38 -22l4 -2 h-2l-64 -17l-2 -2l-2 2q-10 4 -20 -4l-19 -14l7 6q0 2 -12.5 2t-32.5 -18l-9 4q-12 0 -45 -26q-40 -32 -65 -48h-25q4 0 -35 21z" />
<glyph unicode="&#x418;" horiz-adv-x="698" d="M-39 70q0 82 143 561q4 0 4.5 5t6.5 5q4 27 18 47l-2 10q33 61 29 78q14 10 24 60.5t35 62.5q2 -4 31 -18q0 -4 4 0q10 0 33 -13q-10 -29 -72.5 -146t-185.5 -499h14q-29 -104 -29 -121l9 -59l12 -8q4 8 31 20v8q2 2 4 3q8 0 84 84t86 108q57 65 198 234l13 -7 q-4 -4 -4.5 10.5t96.5 139.5l96 125l-4 10l10 -4q4 4 0 29l10 -4q29 127 78 223q12 4 33 14l43 -31q-10 -37 -10 -92q-13 -7 -23 -29t-12 -28q-68 -86 -119 -338q-10 -37 -31 -129l-8 -16l-2 -5q0 -6 6 -8q-35 -111 -35 -141q-20 -33 -20 -58.5t6 -39.5q0 -10 -10 -36 t-8 -42h4l-21 -29q-2 -2 -43 -2q-8 0 -22 39q33 68 33 91t-9 38q14 10 31 35q4 6 50 198.5t46 204.5t9.5 28.5t9.5 23t-4 10.5q-41 -45 -41 -51l4 -9q-8 0 -24.5 -17t-18.5 -26q-63 -66 -86.5 -107.5t-84 -113.5t-75.5 -119q-49 -58 -135 -155q-98 -106 -156 -107 q-12 0 -26 31t-19 35l10 14q-14 6 -14 23z" />
<glyph unicode="&#x419;" horiz-adv-x="708" d="M-39 70q0 82 143 561q4 0 4.5 5t6.5 5q4 27 18 47l-2 10q33 61 29 78q14 10 24 60.5t35 62.5q2 -4 31 -18q0 -4 4 0q10 0 33 -13q-10 -29 -72.5 -146t-185.5 -499h14q-29 -104 -29 -121l9 -59l12 -8q4 8 31 20v8q2 2 4 3q8 0 84 84t86 108q57 65 198 234l8 -7v13 q0 12 97 137l96 125l-4 10l10 -4q4 4 0 29l10 -4q29 127 78 223q12 4 33 14l43 -31q-10 -37 -10 -92q-13 -7 -23 -29t-12 -28q-68 -86 -119 -338q-10 -37 -31 -129l-8 -16l-2 -5q0 -6 6 -8q-35 -111 -35 -141q-20 -33 -20 -58.5t6 -39.5q0 -10 -10 -36t-8 -42h4l-21 -29 q-2 -2 -43 -2q-8 0 -22 39q33 68 33 91t-9 38q14 10 31 35q4 6 50 198.5t46 204.5t9.5 28.5t9.5 23t-4 10.5q-41 -45 -41 -51l4 -9q-8 0 -24.5 -17t-18.5 -26q-63 -66 -86.5 -107.5t-84 -113.5t-75.5 -119q-49 -58 -135 -155q-98 -106 -156 -107q-12 0 -26 31t-19 35l10 14 q-14 6 -14 23zM332 1090l2 6l6 10q31 96 47 106.5t29 -2.5q-12 -33 -21.5 -54t-13.5 -31.5t-4 -15.5t-2 -9l10 -25h2q4 -10 15.5 -5t16.5 -5t26.5 -22.5t31.5 -8.5l23 10q14 4 24.5 5.5t16.5 3.5l2 8l51 12l4 17l31 38l4 13q-8 8 -25 8l10 16l3 15q0 31 16 37l45 16 q14 3 29 -25q0 -4 -6.5 -8t-8.5 -12q4 4 13 -6q4 -14 -23 -92l-10 -9l-19 -30l-6 -2q-4 -12 -6 -13l-78 -45l-10 6l-8 -8q-34 -22 -76 -26q-18 -2 -56 14t-50 35l-15 8l-4 24l-10 21z" />
<glyph unicode="&#x41a;" horiz-adv-x="581" d="M-25 72q30 88 64 170q0 20 16 67t17 51l-6 31l10 41q25 25 50.5 99.5t25.5 115.5l14 49l-4 9q6 2 17 14t22.5 12t24 -17.5t16.5 -19.5q-16 -16 -17 -45q-29 -59 -24 -86l-11 4q-6 -39 -28 -82l14 -8q14 6 37 25q25 12 74 30l10 11h14q232 137 282 182q11 10 37 36t42 25 q37 0 37 -32l-13 -39q-10 -8 -38 -25q-159 -102 -171 -102l-90 -56q-20 0 -73 -45q0 -10 -41 -10q-8 -8 -52 -37q-27 -14 -26 -20q-4 -2 -11.5 -4t-17.5 -6q8 -2 33 -31q33 -29 86 -74q37 -43 80 -86q6 0 38 -39t33 -49l5 8q2 -10 14 -20l-6 -6q78 -59 104 -115 q21 -11 65 -73t48 -62t11 -6.5t15 -13.5q24 -19 29 -19v-8q2 -2 4 -2q26 -4 27 -4q16 -16 29 -21l10 4l10 -8l18 4l15 14l16 -4q10 4 10 -13t7 -19l-37 -25q-18 -12 -42.5 -12t-65 22.5t-52.5 22.5q-2 8 -53 61q-47 53 -47 70l-9 -8q-56 87 -201 246t-208 167q2 2 2 4 q0 16 -27 15q-2 8 -6 8t-14.5 -13.5t-10.5 -18.5t7 -1q-4 -6 -24.5 -77t-20.5 -81.5t6 -19.5q-24 -37 -39 -76h-2l-19 -6z" />
<glyph unicode="&#x41b;" horiz-adv-x="423" d="M-1174 -311q4 2 9 12l-6 27q9 50 47 110q41 79 45 96q18 2 26 27l-4 10q42 22 139 127q35 39 125 84t119 68q50 41 70 41q14 -4 14 -10l10 -5q-18 -12 -36 -38h-2q-20 4 -41 -19q-42 -19 -148 -84q-198 -158 -260 -293q-55 -71 -49 -178q2 -33 14 -67q25 -80 82 -91 l23 -18q4 -2 9 -4t11 -8l14 -6h13l22 -13l10 6l35 5l21 -15q4 0 26.5 4t36.5 0l13 8q4 -2 16 -6q13 0 47 17q16 0 21.5 7t30 5t26.5 12q4 4 18 1q38 -8 320 235q14 12 34.5 28.5t45.5 47.5q26 33 145 161q-4 4 -4 11q10 16 44 71.5t93 149.5l17 6l-9 6q16 16 273 498l8 -4 q6 23 57 118l2 2l39 70q4 4 5 8t7.5 13.5t13.5 24t17 28.5q4 0 15 8q53 41 77 41q2 -2 23 -18.5t27 -18.5l2 -20q-6 -27 -54 -78q-10 -20 -36.5 -52t-28.5 -44v-7q-5 -15 -17 -63q-14 -8 -31 -66.5t-18.5 -69.5t-3.5 -17.5t-4 -14.5l2 -4q-61 -160 -59 -205q-20 -43 -21 -96 q-57 -154 -59 -295q-4 -2 -10 -22q-11 -35 -17 -35q-18 0 -51 6v10q-2 6 -2 13t6 18l-12 12q37 63 37 135q14 18 26 64.5t23 68.5l-6 4q26 93 76 324q14 16 20 64t14 51l-2 4l27 90q-80 -115 -107 -184l-8 6q-44 -102 -94 -164l12 -12l-8 6q-2 -2 -2 -4l-8 -9q4 -10 8 -12 l-16 2l-4 -8q2 -2 6 -10q-25 -18 -58 -88t-51 -86l-67 -111q-37 -48 -62 -104q-37 -25 -40 -48l-3 -22q-12 -14 -31.5 -37.5t-54.5 -56.5l-4 -6l4 -9q-18 0 -67 -61t-58 -61q-4 0 -11 -16.5t-14.5 -14.5t-7.5 0v-4q-2 0 -2 -5t2 -8q-2 -2 -10 -7t-21 -14t-19.5 -14.5t-10 -7 t-154.5 -108.5l-8 2q-127 -53 -141 -68l-8 13q-2 0 -17.5 -4.5t-41.5 -13.5t-23 -11q-22 4 -33 8q-6 2 -18.5 -5t-18.5 -5l-162 25l-63 45q-4 -2 -8 -2t-8 -3q-10 2 -42 69t-38 73l10 8q-7 7 -10.5 25t-3.5 28t-3 21z" />
<glyph unicode="&#x41c;" horiz-adv-x="790" d="M-35 33q31 107 44 165q14 64 32 106t14 67q28 82 84 254q-4 14 -4 29v22q0 10 -2 16q20 20 21 68l10 -4q10 27 37 28q29 -23 61 -45v-16q0 -6 -7 -9t-9 -7v-9q-10 -41 -13 -118q-6 -16 -6 -45q0 -55 29 -283l4 -4q23 0 16 18q12 2 40 35t44 39l-8 4q49 72 154 195 q12 12 176 188q46 40 109 111q4 35 28 80l8 45q2 6 47 6q39 0 39 -49q0 -27 -35.5 -71t-37.5 -56v-7q-11 -33 -17 -63q-14 -8 -31 -66.5t-18.5 -69.5t-3.5 -17.5t-4 -14.5l2 -4q-61 -160 -59 -205q-20 -43 -21 -96q-57 -154 -59 -295q-6 -3 -11 -22q-11 -35 -16 -35 q-18 0 -51 6v10q-2 6 -2 13t6 18l-12 12q37 63 37 135q14 18 26 64.5t23 68.5l-6 4q29 104 75 324q14 16 20.5 64t14.5 51l-8 14q-2 -6 -12.5 -12t-10.5 -8t3 -3l-58 -49q-12 0 -110 -124t-105 -124q-100 -158 -172 -243q-8 6 -19.5 13t-27.5 18q4 -4 4 11t-14 15 q4 8 3 14.5t-13 26.5l10 10v13q-17 17 -16 31t-1 14q-2 -2 -4 -3t-4 -3l-6 135q-4 4 -7 4t-7 -4q6 8 6 23t-6 34l10 2q-4 4 -8 4l-13 -4l-6 -39q-12 -6 -22 -43q-4 -29 -10 -60.5t-58 -178.5q6 -18 6 -31l-4 -55q-10 -12 -13 -37t-7 -25l-8 -2l-9 8l-10 -12q-22 11 -41 35z " />
<glyph unicode="&#x41d;" horiz-adv-x="716" d="M0 264q10 33 27 29l20 18q12 -4 39 -4q53 190 53 283q27 21 15 143q6 14 43 31q12 -12 17 -12t11 -2l13 4q2 -10 10 -17q-2 -2 -15 -10l9 -4l-45 -207q-29 -121 -64 -201q8 -8 15.5 -8t7.5 2l-4 6l10 -8q35 10 78 10l41 11l14 -6q2 0 2 5t4 5l78 4l31 10l14 -4l31 10 l24 -6q2 4 41 16h49v7q0 2 4 2q39 0 39 78q0 18 -6 71h6q2 -4 9 2l-9 4v13q27 37 23 94q8 14 25 89q19 88 28 152q4 4 17.5 23.5t27.5 20.5q11 -7 51 -29q-4 -6 0 -6q-6 -43 -43 -128t-39 -132q-25 -37 -32 -154q-2 -10 -6.5 -31.5t-19.5 -94.5q-38 -194 -38 -247v-43l-10 6 q-12 -78 -12 -109.5t2 -37.5q-8 -2 -14.5 -23.5t-18.5 -21.5q-2 0 -6 -5t-19 -5l2 6l-6 4q-23 4 -22 33l51 131q-4 8 -4 12l14 59q0 10 -2 15q10 41 31 211l-8 8q-14 -4 -34 -8t-52.5 -13.5t-42.5 -7.5l-17 -14q-4 4 -14 4l-12 -2l10 -12l-16 14l-5 -10q2 6 -7 6t-25 -17 q2 2 2 5.5t-2 5.5h-13l-16 -15q-4 2 -7 2t-7 2l-95 -24l-16 6q-12 0 -43 -12.5t-49 -12.5q-10 -31 -14 -110q-4 -80 -15 -113q-2 -2 -12 -2h-27l-10 12q0 6 -10 11q2 4 14 16l-14 8v86q12 4 21.5 32t17.5 38q-6 6 -15.5 6t-9.5 -2t2 -4l-28 16l-13 -4q2 14 -10 41z" />
<glyph unicode="&#x41e;" horiz-adv-x="563" d="M-14 174l10 10q-30 45 -6 166q7 58 26 96l-6 5q12 12 60 102q2 2 6 3t8 5l-10 4q57 89 180 207q33 31 65 64q53 27 82 26l9 -10l39 6q6 0 7 -6t3 -4l10 4q29 0 71 -84t42 -117q0 -3 -4 -62.5t0 -66.5l-21 -55l8 -4q-25 -82 -36 -135t-33.5 -91t-85 -119.5t-91.5 -80.5v-8 q-54 -14 -43 -21q4 4 -10 4t-46 -11t-44 -11t-24 12v6l-11 -8q-37 25 -100 78q-16 43 -55 96zM35 272q0 -35 10 -49q2 -49 23 -78l32 -51q61 -35 62 -37h74l14 11q51 0 132 88t71 139q23 23 35.5 77t23.5 70q0 39 4 58.5t4 21.5l-8 10q14 13 14 23q0 174 -77 248 q-8 -4 -16.5 -8t-18.5 -9q-88 -12 -177.5 -110t-148.5 -203l4 -4q0 -4 -2 -6q-55 -109 -55 -191z" />
<glyph unicode="&#x41f;" horiz-adv-x="727" d="M35 31q2 4 14 16l-14 8v86q12 4 21.5 32t17.5 38l10 90l-2 6h4q53 190 53 283q18 14 19 78v6h-2q-8 0 -9 -2q0 -2 3 -4l-29 16l-12 -4q2 14 -11 41q10 33 27 29l20 18q12 -4 39 -4h64q6 0 6 2h4l2 -2l6 2h2q27 8 70 8l41 10l14 -6q2 0 2 5t4 5l78 5l31 10l14 -4l31 10 l25 -6q2 4 40 16h50v6q0 2 4 2h10q4 16 4 27.5t2 19.5q4 4 17.5 23.5t27.5 20.5q11 -7 51 -29q-4 -6 0 -6q-6 -43 -43 -128t-39 -132q-25 -37 -32 -154q-2 -10 -6.5 -31.5t-19.5 -94.5q-38 -194 -38 -247v-43l-10 6q-12 -78 -12 -109.5t2 -37.5q-8 -2 -14.5 -23.5 t-18.5 -21.5q-2 0 -6 -5t-19 -5l2 6l-6 4q-23 4 -22 33l51 131q-4 8 -4 12l14 59q0 10 -2 15q10 41 31 211l-8 8l-2 35q31 8 30 78q0 18 -6 71h6q2 -4 9 2l-9 4v13q27 37 23 94q16 29 39 158q-105 -30 -121 -27l-16 -14q-4 4 -15 4l-12 -2l10 -13l-16 15l-4 -11 q2 6 -7.5 6.5t-25.5 -16.5q2 2 2 5t-2 5h-12l-17 -14q-4 2 -7 2t-7 2l-94 -24l-17 6q-10 0 -34.5 -10.5t-45.5 -14.5l-36 -174q-29 -121 -64 -201q0 -2 2 -2l8 -32l2 -15l-8 -33h-14q-10 -31 -14 -110q-4 -80 -15 -113q-2 -2 -12 -2h-27l-10 12q0 6 -10 11z" />
<glyph unicode="&#x420;" horiz-adv-x="440" d="M-35 19.5q2 15.5 4 42.5q3 35 15 63q0 6 -9 14q10 6 25 58q14 51 25 61q0 22 -5 49q6 16 23 45q48 152 45 211q27 23 29 86q18 39 45 146l-8 8l-4 -4q0 -2 2 -4h-9q-14 0 -28 -7q-2 4 -52 35q2 6 3.5 15.5t5.5 21.5q47 41 63 41l15 -4l59 29l10 -4q33 20 39 20l45 -6 l21 6l8 10l37 9l34 -5q4 0 5 5q2 2 6 0l63 10l160 20l108 -14l48 4l8 -10q15 8 17.5 2t17.5 -6q14 0 32.5 -22t18.5 -38q0 -41 -218 -222t-255 -181q-8 0 -63.5 -49.5t-86.5 -48.5q-8 0 -90 -61t-94 -78t-12 -66l-15 -51v-87l-16 -10q6 -4 6 -21.5t-14.5 -38t-27.5 -20.5 t-25.5 15.5t-10.5 31zM113 401q0 -10 12 -22q16 10 38.5 25.5t55.5 35.5q2 8 14 9q94 66 115 65q4 0 4 4q2 2 11 1t40 30t39.5 31t15.5 7l14 14l14 15q8 7 13 7t126 98q123 104 135 119l43 55q-4 16 -12 16l-21 -4l-18 11l-70 14q-102 0 -135 -12h-10q-16 2 -48 -5.5 t-47 -7.5l-14 4q-4 0 -20 -16l-11 6l-28 -14l-25 4q-18 0 -18 -12q0 -2 -2 -2l-11 10q-39 -27 -82 -25v-18q18 0 25 -10v-9q0 -10 6 -10q-76 -104 -94 -217q-31 -53 -31 -71.5t2 -23.5t-2 -5q2 -8 -11.5 -60.5t-12.5 -36.5z" />
<glyph unicode="&#x421;" horiz-adv-x="628" d="M0 164v63q33 39 33 92q0 20 64.5 92.5t84.5 82.5l-10 4q10 4 10 22q25 0 19 19q14 6 47 39t33 49l12 -2q6 0 35 37q31 37 30 40q66 54 150.5 142t99.5 88q4 0 45 -41q-54 -92 -74 -135.5t-22 -85.5q0 3 -7 -0.5t-11 -7.5q6 -8 12 -9q-22 -13 -29 -37q-16 -50 -24 -71 l-23 -4v47q25 14 25 88q16 35 24 69l-12 13q-29 -25 -56 -50q-115 -102 -157 -157q-2 2 -10 2t-8 -6t6 -8q-119 -108 -146 -162q-23 -6 -51.5 -85t-28.5 -96q0 -66 80 -118l11 -10q31 -10 38 -10q10 -1 89 10q6 4 15 8t18 9t16.5 5t17.5 2q14 20 41 21q0 10 25 14 q10 6 34.5 24.5t57.5 42t155 162.5q4 -2 10.5 -6t14.5 -8q-4 -4 -25 -18l9 -5q-6 -4 -30 -44t-24 -46l-12 2q-8 0 -8 -6l4 -12q-20 0 -55 -41q-6 0 -11.5 -10t-15.5 -10q-92 -65 -203 -134l-10 5q-8 -2 -9 -5.5t-4 -6.5q-7 -7 -31.5 -8t-39.5 1l-10 -8q-2 2 -10 2t-15 -2 h-14l-20 12q-8 0 -9 -2l4 -6q-49 29 -98 77t-47 87z" />
<glyph unicode="&#x422;" horiz-adv-x="268" d="M-55 822.5q0 27.5 15 49t28 21.5l106 -10l31 10l14 -4l21 10q35 0 35 8h4q6 0 3 -4t3 -4q-8 0 -4 1q28 7 65 7q4 0 6 6.5t7 4.5l24 -5q6 0 2 5.5t4 5.5l15 -6l34 10l109 10q6 0 3 -5t3 -5t2 5t2 5l39 -4l21 8h94q12 0 20 -8q0 14 62.5 14t183.5 -18q-2 0 -11 -11.5 t-16 -11.5l-24 6h-101q-6 0 -1.5 -5t-2.5 -5q-6 0 -3 5t-3 5l-14 -10l-148 -10q-4 0 -5 -5t-11 -5t-20 10l-11 -10l-10 10l-10 -8l6 6q-2 2 -8 2l-27 -10l-14 6q-14 0 -25 -10l-10 10l-8 -10q-10 0 -12 -2q-18 10 -35 10q-37 0 -56 -49q-16 -48 -28 -78q-2 -23 -19 -64 l11 -2q-35 -86 -41 -157l-11 4q0 -27 -22 -78l10 -4q-19 -57 -46 -191q-44 -222 -65 -286h-36q-23 0 -23 32.5t12 61.5l-4 10q14 14 35.5 85t20.5 93q4 16 15 56q64 232 63 244.5t-7 17.5q35 35 45 186v8q0 4 9.5 9.5t13.5 16.5t10 13l-8 6l18 31q-2 2 -6 2l-35 -10l-20 4 q-14 0 -14 -14q-4 4 -25 4l-51 -15l-15 6q-2 0 -15 -8t-28 -8l-10 -8q-23 0 -37 -21h-22q-12 14 -19 15l-16 -4q-12 0 -12 27.5z" />
<glyph unicode="&#x423;" horiz-adv-x="720" d="M-410 -385q0 16 11 12l12 8q-4 12 -4 21q0 74 96 170q4 4 41 4l-10 -4q12 -6 18 -10q-29 -29 -67 -86q-15 -45 -23 -83q-14 -66 -14 -85t4 -35v-21l6 -10q-2 -6 -2 -30.5t44 -119.5t73 -96q12 0 51 -24l4 10q2 2 32.5 -8t41 -10t16.5 12l17 6l14 -4l10 8l-2 -4l8 -4 q31 0 211 174q2 -4 12 -6v2q0 20 72 98q88 125 105 207q41 59 76 154.5t51 139.5t20 54l-10 6q5 12 28 56l-8 4q12 43 35 69l-16 11q33 55 65 194q8 20 25 49q-2 2 -12 2t-49.5 -47t-43.5 -65q-35 -16 -86 -86q4 -4 -8 -4l-10 -2l4 -6q-2 -2 -24 -20l-68 -56 q-74 -61 -79 -61.5t-30 -26.5q-25 -27 -29.5 -27t-21 -10t-20.5 -10q2 0 -7.5 -10.5t-17.5 -10.5h-6q0 -4 6 -6h-8l-35 -6l-51 10l10 10q-6 4 -35 49v125q14 12 15 56q14 14 10 39q12 12 22 48t13 42v6q0 14 34 74q2 41 91 219q2 -2 4 0l-6 12q0 12 16 12q8 16 29 49l-9 7 q-35 -5 -77 -5l-11 -6l-55 -4q-8 12 -27 21q2 27 -10 37q0 16 35 16l121 -8l35 8l16 -4q2 0 6 5t23 5l16 12h21q10 -8 26 -14q-244 -420 -244 -545q-31 -6 -30 -153q0 -39 16 -62l6 10l4 -10q31 18 78 66q76 8 297 258l15 6q79 90 180 186l-10 15l18 6v6l-8 8 q23 10 25.5 21.5t0.5 11.5q29 43 33 82l-4 6l8 6q4 -2 11.5 16.5t15.5 24.5l-10 10q27 45 76.5 121t99.5 76q20 0 49 -17.5t29 -29.5t-5.5 -12t-7.5 -2q-2 -8 4 -25q-4 -8 -9 -18.5t-13 -26.5q-80 -98 -238 -281q-4 -6 -29 -63q-43 -96 -58 -150q-18 -67 -34 -86l7 -8 q-35 -80 -80 -240l-11 5q-58 -226 -154 -403q-103 -187 -116.5 -187t-15.5 -31q-94 -88 -86 -106q-14 -4 -73.5 -46t-61.5 -51q-2 2 -8.5 2t-42.5 -21.5t-37 -25.5q-6 2 -23 2h-23q-10 -2 -24 -2l-51 10l-11 11q-31 8 -129 86l9 16q-53 35 -78 154q4 4 4 16t-10 8zM811 762 l12 -6l23 10l-6 14l8 -6q12 0 14 21q8 12 19.5 30.5t27.5 40.5q6 -4 6 11v12q-45 -33 -104 -127z" />
<glyph unicode="&#x424;" horiz-adv-x="667" d="M-228 392q11 24 21 26l-4 6q70 111 270 235q43 27 107.5 66t148.5 92q-4 2 -8 6q2 6 3 15.5t5 21.5q47 41 64 41l14 -4q8 0 29.5 14.5t30.5 14.5l10 -4q33 20 39 20l45 -6l20 6l8 10l37 9l35 -5q4 0 4 5q2 2 6 0l64 10l160 20l108 -14l47 4l8 -10q16 8 18.5 2t16.5 -6 t32.5 -22t18.5 -38q0 -41 -218 -222t-255 -181q-8 0 -63 -49.5t-86 -48.5q-8 0 -90 -61t-94 -78t-13 -66l-14 -51v-87l-16 -10q6 -4 6 -21.5t-14.5 -38t-27.5 -20.5t-25.5 15.5t-10.5 31t4 42.5q2 32 14 63q0 6 -8 14q10 6 25 58q14 51 24 61q0 14 -2 23q-12 -2 -29.5 -4.5 t-35.5 -12.5l-29 -20q-57 -8 -93 -20.5t-37 -10.5q-6 12 -71 -4q-12 0 -59 8q-4 0 -14 -8q-16 10 -39 14t-54 27q-76 53 -33 142zM-172 360q-8 -39 14 -71q2 0 13.5 5t27.5 -5q39 -24 72 -22.5t41 -0.5t9 -7t7 -5l2 8q20 12 55.5 16.5t49.5 3.5t41.5 10t58.5 18t41 24l2 -10 q2 -2 6 2l2 -7q4 8 7.5 15.5t9.5 17.5q48 152 45 211q27 23 28 86q18 39 46 146l-9 8q-2 0 -2 -2l-2 -2q0 -2 2 -4h-12q-55 -29 -60 -28t-7.5 -4t-19 -14t-61.5 -36t-108 -62q-41 -29 -51 -49l-8 12q-71 -67 -197 -161l10 -7q-4 0 -22 -28q-21 -32 -31 -58zM356 399 q0 -12 13 -20q16 10 38.5 25.5t55.5 35.5q2 8 14 9q94 66 115 65q4 0 4 4q2 2 11 1t40 30t39 31t15.5 7t14.5 14t14 14.5t12 7.5t126 98q123 104 136 119l43 55q-6 16 -13 16l-20 -4l-19 11l-69 14q-102 0 -135 -12h-11q-16 2 -48 -5.5t-46 -7.5l-14 4q-4 0 -21 -16l-10 6 l-29 -14l-24 4q-19 0 -19 -12q0 -2 -2 -2l-10 10q-39 -27 -82 -25v-18q18 0 25 -10v-9q0 -10 6 -10q-76 -104 -94 -217q-31 -53 -31 -71.5t2 -23.5t-2 -5q2 -8 -11.5 -57.5t-13.5 -41.5z" />
<glyph unicode="&#x425;" horiz-adv-x="579" d="M-129 -188.5q0 16.5 16 32.5q-6 8 -6 12.5t12.5 11.5t23.5 26.5t31.5 56.5t42.5 75q49 85 83.5 126t93.5 137q45 41 94 125l12 -6q2 2 2 10q0 25 -38 45l4 4q-40 50 -129 143q-6 18 -66 56q10 14 10 23t-4 18q29 20 53.5 20t35.5 -19q74 -131 163 -225l-2 -6q2 -2 6 -2 t11.5 7t13.5 17.5t12 19.5t6 13q20 8 105.5 111.5t87.5 120.5q23 6 78 81t49 93q4 4 7 10t6 9t30 4l12 10l-2 -6q0 -2 6 -4l10 6l25 -25l4 8q14 -14 18 -22q0 -10 -89 -87t-81 -91q-8 -14 -30 -27q-27 -27 -33 -49q-31 -12 -104 -105l-105 -129q10 -37 90 -139 q141 -179 178 -221l-18 -19l4 7q-8 17 -36 32.5t-38 26.5v2q-2 2 -8 2l-43 59q-29 35 -62.5 77t-74.5 89l-29 29q-38 -38 -170 -205q0 -4 -6 -12t-12 -18q-17 -31 -15 -37q-16 -2 -78 -103q-94 -154 -118 -209h-6l-25 -6q-8 0 -8 16.5z" />
<glyph unicode="&#x426;" horiz-adv-x="757" d="M-39 70q0 82 143 561q4 0 4.5 5t6.5 5q4 27 18 47l-2 10q33 61 29 78q14 10 24 60.5t35 62.5q2 -4 31 -18q0 -4 4 0q10 0 33 -13q-10 -29 -72.5 -146t-185.5 -499h14q-29 -104 -29 -121l9 -59l12 -8q4 8 31 20v8q2 2 4 3q8 0 84 84t86 108q57 65 198 234l8 -7v13 q0 12 97 137l96 125l-4 10l10 -4q4 4 0 29l10 -4q29 127 78 223q12 4 33 14l12 -10q23 -10 31 -21q-10 -37 -10 -92q-13 -7 -23 -29t-12 -28q-68 -86 -119 -338q-10 -37 -31 -129l-8 -16l-2 -5q0 -6 6 -8q-35 -111 -35 -141q-20 -33 -20 -66v-14l90 92l4 6l8 4q26 84 64 107 q20 16 44.5 19t31 0t18.5 -13q-4 -4 0 -4l2 -35q-2 -2 -16 -35l-43 -53l-13 -61h-2q4 0 5 -25q-7 -10 -15 -33v-28l4 -2l2 2l2 -11l-6 -16q0 -2 -12 -8t-18 -35t-15 -47l2 -2l-8 -49l-2 -10l-43 -89l4 -4q-12 -45 -20.5 -96t-47.5 -113q-35 -67 -92 -131q-74 -88 -123 -94 l-45 -6q0 2 1 2t0 5t-8 5t-12 -4t-9 -6q2 0 -54.5 32t-78.5 75q-51 89 -60 98q8 25 -3 106.5t-10 111.5t13 48l-10 8q11 8 51 78q41 59 55 64q25 4 48 -4q-22 -34 -54 -71.5t-39.5 -71.5t-17.5 -48q6 -21 -2 -80l10 -12h-4q-6 2 -2 -10q-2 -4 6 -22.5t11 -36.5q7 -44 35 -85 t30 -61q12 0 22 -10l-6 -4q70 -57 123 -48q6 0 25.5 14.5t30.5 14.5q10 4 66 71t56 74l-4 9l8 -2q8 23 37 75q16 41 20.5 75t20.5 76q25 66 45 153l11 8l-2 2l-9 -2l2 2q-4 4 -3 14t3 10l5 6l-3 3q5 29 13 44q16 30 28 95l-16 14q-2 -2 -2 -8l-10 -10h-10l-13 -25l-12 -8 l-10 -25l-9 -4q-2 2 -2 3t-2 3l-32 -16q-8 -14 -4 -18q-10 -6 -26.5 -29.5t-23.5 -28.5l-2 -4l-24 -12l-43 16l-2 27q3 3 16 61l-4 6l18 7q14 34 -2 61q14 10 31 35q4 6 50 198.5t46 204.5t9.5 28.5t9.5 23t-4 10.5q-41 -45 -41 -51l4 -9q-8 0 -24.5 -17t-18.5 -26 q-63 -66 -86.5 -107.5t-84 -113.5t-75.5 -119q-49 -58 -135 -155q-98 -106 -156 -107q-12 0 -26 31t-19 35l10 14q-14 6 -14 23z" />
<glyph unicode="&#x427;" horiz-adv-x="673" d="M-27 791q0 16 35 16l121 -8l35 8l16 -4q2 0 6 5t23 5l16 12h21q10 -8 26 -14q-153 -260 -162 -333q-4 -25 -4 -56q-23 -6 -26.5 -44t-3.5 -76t16 -60l6 10l4 -10q31 18 78 65q18 12 41 26.5t55 34.5q106 70 175 121l14 7q14 16 22.5 18t18.5 4q27 5 74 51l-11 15l19 6v6 l-8 8q23 10 25.5 21.5t0.5 11.5q29 43 33 82l-4 6l8 6q4 -2 7 6t7 17q-2 4 -2 12t7 14l-3 2q18 30 72.5 113.5t104.5 83.5q20 0 48.5 -17.5t28.5 -29.5t-5 -12q-13 0 -3 -27q-4 -8 -9 -18.5t-13 -26.5q-113 -139 -187 -219q-4 -23 -2 -25l-10 4q-29 -61 -50.5 -119.5 t-23.5 -66.5t6 0l7 -8q-35 -80 -80 -240l-11 4l-40 -182h-3v-2q-47 -31 -57 -35q-7 14 -39 35v20q43 74 43 115q12 27 28.5 69t39.5 99q23 87 36 119.5t23 58.5l-10 -6v8q-2 -2 -21 -4q-25 -3 -30 -27q-8 -4 -13.5 -5t-11.5 -4q-16 -8 -35 -36q4 -4 -8 -4l-10 -2l4 -6 q-2 -2 -24.5 -3t-82 -50t-64.5 -49t-30 -27t-29.5 -27t-21 -10t-20.5 -10q2 0 -7.5 -10t-17.5 -10h-6q0 -4 6 -7h-8l-35 -6l-51 10l10 11q-6 4 -35 49v125q14 12 15 55q8 8 10 1t0 3q12 12 18 30.5t5 21.5t-1 9t35 66q0 10 -4 12t-5 9q-3 17 34 86q2 -2 4 0l-6 12 q0 12 16 12q8 16 29 49l-8 7q-35 -5 -59.5 -5t-24.5 -3t-4 -3l-56 -4q-8 12 -26 21q2 27 -11 37zM719 762l12 -6l23 10l-6 14l8 -6q12 0 14 21q8 12 19.5 30.5t27.5 40.5q6 -4 6 11v12q-45 -33 -104 -127z" />
<glyph unicode="&#x428;" horiz-adv-x="1101" d="M-39 70q0 82 143 561q4 0 4.5 5t6.5 5q4 27 18 47l-2 10q33 61 29 78q14 10 24 60.5t35 62.5q2 -4 31 -18q0 -4 4 0q10 0 33 -13q-10 -29 -72.5 -146t-185.5 -499h14q-29 -104 -29 -121l9 -59l12 -8q4 8 31 20v8q2 2 4 3q8 0 84 84t86 108q57 65 198 234l8 -7v13 q0 12 58 90q4 10 7 21.5t7 21.5q4 0 4 5t6 5q4 27 19 47l-2 10q33 61 28 78q14 10 24.5 60.5t35.5 62.5q2 -4 31 -18q0 -4 4 0q10 0 32 -13q-10 -29 -72 -146t-186 -499h15q-29 -104 -29 -121l8 -59l13 -8q4 8 30 20v8q2 2 4 3q8 0 84 84t86 108q79 90 199 234l8 -7v13 q0 12 96 137t97 125l-4 10l10 -4q4 4 0 29l10 -4q29 127 78 223q12 4 33 14l43 -31q-10 -37 -11 -92q-12 -6 -22 -28.5t-12 -28.5q-68 -86 -119 -338q-10 -37 -31 -129l-8 -16l-2 -5q0 -6 6 -8q-35 -111 -35 -141q-20 -33 -20 -58.5t6 -39.5q0 -10 -10.5 -36t-8.5 -42h5 l-21 -29q-2 -2 -43 -2q-8 0 -23 39q33 68 33 91t-8 38q14 10 31 35q4 6 50 198.5t46 204.5t9 28.5t9 23t-4 10.5q-41 -45 -41 -51l5 -9q-8 0 -24.5 -17t-18.5 -26q-63 -66 -87 -107.5t-84.5 -113.5t-74.5 -119q-49 -58 -135 -155q-98 -106 -156 -107q-12 0 -26.5 31 t-18.5 35l10 14q-14 6 -14 23q0 70 100 413q-12 -16 -25 -39.5t-73.5 -95.5t-75.5 -119q-49 -58 -135 -155q-98 -106 -156 -107q-12 0 -26 31t-19 35l10 14q-14 6 -14 23z" />
<glyph unicode="&#x429;" horiz-adv-x="1185" d="M-39 70q0 82 143 561q4 0 4.5 5t6.5 5q4 27 18 47l-2 10q33 61 29 78q14 10 24 60.5t35 62.5q2 -4 31 -18q0 -4 4 0q10 0 33 -13q-10 -29 -72.5 -146t-185.5 -499h14q-29 -104 -29 -121l9 -59l12 -8q4 8 31 20v8q2 2 4 3q8 0 84 84t86 108q57 65 198 234l8 -7v13 q0 12 58 90q4 10 7 21.5t7 21.5q4 0 4 5t6 5q4 27 19 47l-2 10q33 61 28 78q14 10 24.5 60.5t35.5 62.5q2 -4 31 -18q0 -4 4 0q10 0 32 -13q-10 -29 -72 -146t-186 -499h15q-29 -104 -29 -121l8 -59l13 -8q4 8 30 20v8q2 2 4 3q8 0 84 84t86 108q79 90 199 234l8 -7v13 q0 12 96 137t97 125l-4 10l10 -4q4 4 0 29l10 -4q29 127 78 223q12 4 33 14l12 -10q23 -10 31 -21q-10 -37 -11 -92q-12 -6 -22 -28.5t-12 -28.5q-68 -86 -119 -338q-10 -37 -31 -129l-8 -16l-2 -5q0 -6 6 -8q-35 -111 -35 -141q-20 -33 -20 -56.5t2 -29.5l94 98l4 6l8 4 q26 84 64 107q20 16 44.5 19t31 0t18.5 -13q-4 -4 0 -4l2 -35q-2 -2 -16 -35l-43 -53l-13 -61h-2q4 0 4 -25q-4 -7 -14 -33v-28l4 -2l2 2l2 -11l-6 -16q0 -2 -12.5 -8t-18.5 -35t-14 -47l2 -2l-8 -49l-2 -10l-43 -89l4 -4q-12 -45 -20.5 -96t-47.5 -113q-35 -67 -92 -131 q-74 -88 -123 -94l-45 -6q0 2 1 2t0 5t-8 5t-12 -4t-9 -6q2 0 -54.5 32t-81.5 77q-49 88 -57 96q8 25 -3 106.5t-10 111.5t13 48l-10 8q11 8 51 78q41 59 55 64q25 4 47 -4q-20 -30 -52.5 -69.5t-40 -73.5t-17.5 -48q6 -21 -2 -80l10 -12h-4q-6 2 -2 -10q-2 -4 6 -22.5 t11 -36.5q7 -44 35 -85t30 -61q12 0 22 -10l-6 -4q70 -57 123 -48q6 0 25.5 14.5t29.5 14.5q10 4 66.5 71t56.5 74l-4 9l8 -2q8 23 37 75q16 41 20.5 75t20.5 76q25 66 45 153l10 8l-2 2l-8 -2l2 2q-4 4 -3 14t3 10l4 6l-2 3q5 29 13 44q16 30 28 95l-16 14q-2 -2 -2 -8 l-10 -10h-11l-12 -25l-12 -8l-10 -25l-9 -4q-2 2 -2 3t-2 3l-33 -16q-8 -14 -4 -18q-10 -6 -32.5 -38t-42.5 -36l-43 16l-2 27q-2 2 -3 6l13 25q2 6 2 13t4 17l-4 6l12 5q6 18 6 33t-8 30q14 10 31 35q4 6 50 198.5t46 204.5t9 28.5t9 23t-4 10.5q-41 -45 -41 -51l5 -9 q-8 0 -24.5 -17t-18.5 -26q-63 -66 -87 -107.5t-84.5 -113.5t-74.5 -119q-49 -58 -135 -155q-98 -106 -156 -107q-12 0 -26.5 31t-18.5 35l10 14q-14 6 -14 23q0 70 100 413q-12 -16 -25 -39.5t-73.5 -95.5t-75.5 -119q-49 -58 -135 -155q-98 -106 -156 -107q-12 0 -26 31 t-19 35l10 14q-14 6 -14 23z" />
<glyph unicode="&#x42a;" horiz-adv-x="634" d="M-240 905q37 25 68 31h78l65 -4l31 10q5 0 53 -6l45 8q20 8 26 8h16q8 0 18 2l22 2q17 4 70 21l12 10q39 -2 55 33q4 16 10.5 30.5t12.5 30.5q6 2 38 32t46 30q47 -27 53 -27q4 -12 4 -20q0 -35 -49 -99q-96 -23 -86 -77q-72 -127 -98 -209v-6h2q4 -8 6 -11l-22 -47 l-5 -16l58 14h6q8 0 10 2l14 -8q45 16 64 16l10 11q4 -2 17 -7l18 11h4l-2 -8q0 -2 4 -3q4 0 11.5 8.5t13.5 6.5l6 -6q12 6 43 6q12 -8 96 -31q55 -16 90 -84v-57q0 -6 -6 -6v-2q-8 -8 -34 -52.5t-31 -44.5q-12 0 -13 -28q-18 -25 -65 -76q-59 -59 -66 -62q-96 -53 -104 -73 l-10 10q-2 -2 -10.5 -7t-24.5 -16q-33 -16 -38 -16t-15.5 -13.5t-27 -19.5t-16.5 -10q-2 2 -4 2q-41 0 -84 -45l-20 6q-8 -4 -35 -24q-10 0 -18 8q-9 -18 -15 -33l-57 4l-6 68q0 12 20 30v7l19 51l-15 10q38 103 109 342l-4 4q-4 0 -8 -4q0 2 1 2t1 2q-25 14 -37 10 q4 10 1 33.5t25 44.5l-4 -6q2 -2 9 -2h2l-2 6l4 4q18 0 35.5 19.5t21.5 33t4 15.5t2 6v20l2 5h6l37 102h13l40 125l-8 6q-10 -10 -12 -10l-18 -15l4 9h-2l-41 -15h6l2 -2l-43 -8l-21 -2l-6 -4q2 2 2 4l-39 -6l4 -4q-4 0 -12 4l-57 -8q-29 -6 -45 -7l-2 9l2 4q0 4 -4 4t-4 -7 t-7 -7l-30 6q-2 0 -6 -4l4 -7q-18 9 -54 -8q7 -10 54 -49q35 -33 41 -57q-29 2 -37 0l-13 10q-29 8 -79 43q-38 33 -82 57l2 2zM78 129l53 -10q4 0 6 5t8 5l21 -6q12 0 10 6q1 1 49 29l11 -4q5 0 21 12q28 22 36 22t6 2q0 2 6 2.5t34 23t40 22.5t33.5 21t27.5 29l19 19 q14 0 10 -4l29 33q26 37 112 141q9 13 15 62q0 4 -12.5 20t-16 16t-33.5 15l-139 16l-62 -10l-10 -10q-33 -4 -48.5 -6t-24.5 -19l-23 2l-12 -8q-41 4 -64 -51q-10 -27 -16 -41t-11 -31q-13 -44 -40 -156q-4 -10 -21 -26q10 -4 10 -6q-4 -4 -4 -2q0 -11 -20 -113z" />
<glyph unicode="&#x42b;" horiz-adv-x="882" d="M-6 72q0 12 20 30v7l19 51l-15 10q38 103 109 342l-4 4q-4 0 -8 -4q0 2 1 2t1 2q-25 14 -37 10q4 10 1 33.5t25 44.5l-4 -6q2 -2 9 -2h2l-2 6l4 4q18 0 35.5 19.5t21.5 33t4 15.5t2 6v20q12 20 12 34.5t-8 17.5q4 10 17 20v14q-2 2 -6 2l14 35v19l10 4l4 8h2q-4 8 -10 10 q8 12 29 27l32 -10q23 -11 25 -23q-10 -13 0 -35q-21 -10 -27 -37l4 -28q-12 -12 -16 -19v-4l-8 -16v-4q0 -12 6 -21l-22 -47l-5 -16l58 14h6q8 0 10 2l14 -8q45 16 64 16l10 11q4 -2 17 -7l18 11h4l-2 -8q0 -2 4 -3q4 0 11.5 8.5t13.5 6.5l6 -6q12 6 43 6q12 -8 96 -31 q55 -16 90 -84v-57q0 -6 -6 -6v-2q-8 -8 -34 -52.5t-31 -44.5q-12 0 -13 -28q-18 -25 -65 -76q-59 -59 -66 -62q-96 -53 -104 -73l-10 10q-2 -2 -10.5 -7t-24.5 -16q-33 -16 -38 -16t-15.5 -13.5t-27 -19.5t-16.5 -10q-2 2 -4 2q-41 0 -84 -45l-20 6q-8 -4 -35 -24 q-10 0 -18 8q-9 -18 -15 -33l-57 4zM78 129l53 -10q4 0 6 5t8 5l21 -6q12 0 10 6q1 1 49 29l11 -4q5 0 21 12q28 22 36 22t6 2q0 2 6 2.5t34 23t40 22.5t33.5 21t27.5 29l19 19q14 0 10 -4l29 33q26 37 112 141q9 13 15 62q0 4 -12.5 20t-16 16t-33.5 15l-139 16l-62 -10 l-10 -10q-33 -4 -48.5 -6t-24.5 -19l-23 2l-12 -8q-41 4 -64 -51q-10 -27 -16 -41t-11 -31q-13 -44 -40 -156q-4 -10 -21 -26q10 -4 10 -6q-4 -4 -4 -2q0 -11 -20 -113zM588 -6v20q43 74 43 115q16 37 67 168q6 23 13.5 46.5t16.5 50.5q19 57 67.5 166t56.5 149l8 12v4 q4 8 8 14q-18 8 -18 23.5t20.5 32t30.5 16.5q18 0 53 -53q-12 -2 -20 -10q0 -16 -25 -70.5t-20 -73.5l-10 4q-45 -101 -99 -254l-90 -256l2 -2l-12 -78l4 -24q-47 -31 -57 -35q-6 11 -39 35z" />
<glyph unicode="&#x42c;" horiz-adv-x="624" d="M-6 72q0 12 20 30v7l19 51l-15 10q38 103 109 342l-4 4q-4 0 -8 -4q0 2 1 2t1 2q-25 14 -37 10q4 10 1 33.5t25 44.5l-4 -6q2 -2 9 -2h2l-2 6l4 4q18 0 35.5 19.5t21.5 33t4 15.5t2 6v20q12 20 12 34.5t-8 17.5q4 10 17 20v14q-2 2 -6 2l14 35v19l10 4l4 8h2q-4 8 -10 10 q8 12 29 27l32 -10q23 -11 25 -23q-10 -13 0 -35q-21 -10 -27 -37l4 -28q-12 -12 -16 -19v-4l-8 -16v-4q0 -12 6 -21l-22 -47l-5 -16l58 14h6q8 0 10 2l14 -8q45 16 64 16l10 11q4 -2 17 -7l18 11h4l-2 -8q0 -2 4 -3q4 0 11.5 8.5t13.5 6.5l6 -6q12 6 43 6q12 -8 96 -31 q55 -16 90 -84v-57q0 -6 -6 -6v-2q-8 -8 -34 -52.5t-31 -44.5q-12 0 -13 -28q-18 -25 -65 -76q-59 -59 -66 -62q-96 -53 -104 -73l-10 10q-2 -2 -10.5 -7t-24.5 -16q-33 -16 -38 -16t-15.5 -13.5t-27 -19.5t-16.5 -10q-2 2 -4 2q-41 0 -84 -45l-20 6q-8 -4 -35 -24 q-10 0 -18 8q-9 -18 -15 -33l-57 4zM78 129l53 -10q4 0 6 5t8 5l21 -6q12 0 10 6q1 1 49 29l11 -4q5 0 21 12q28 22 36 22t6 2q0 2 6 2.5t34 23t40 22.5t33.5 21t27.5 29l19 19q14 0 10 -4l29 33q26 37 112 141q9 13 15 62q0 4 -12.5 20t-16 16t-33.5 15l-139 16l-62 -10 l-10 -10q-33 -4 -48.5 -6t-24.5 -19l-23 2l-12 -8q-41 4 -64 -51q-10 -27 -16 -41t-11 -31q-13 -44 -40 -156q-4 -10 -21 -26q10 -4 10 -6q-4 -4 -4 -2q0 -11 -20 -113z" />
<glyph unicode="&#x42d;" horiz-adv-x="821" d="M-20 145q0 84 63 191l10 -4q43 100 97 157q6 -2 22 -16q-31 -27 -77 -112t-38 -111q-5 -5 -11 -25q-10 -38 -19 -41l10 -4q-2 -2 -2 -4q0 -78 30.5 -110.5t59.5 -32.5l18 -10l45 10l15 -4l26 10l15 -6q2 0 4 5t10 5t16.5 5t19.5 10q29 13 38 10l10 10q0 -2 21.5 6 t67.5 36t54 38q-8 20 27 35q57 20 85 47q59 55 81 84q14 6 45 49t27 53q29 23 28 68q16 4 29 26l-8 8l-4 -10l-7 10q-8 -6 -14 -20l-6 10q-4 -4 -4 -6v-4q-4 4 -11 4t-8 -2v-4l-6 6l-4 -4q0 -6 6 -8q-22 0 -32 2t-11 0l7 -6l-11 6q-8 -4 -14 -10q-4 -10 -43 -23l-121 -20 l-20 -9l-15 13h-16q-4 0 -49 -19q-49 -16 -70 -16q-35 18 -35 41q0 29 27 28l8 11q25 0 83.5 17t69.5 17t13 3l70 6q20 -4 82 -4q2 2 2 10t25.5 6t39 4t27.5 6l24 -6l39 8v4q0 8 -6 13q2 2 12 37.5t10.5 45t-5 28t-10.5 38t-10 36.5t-5 30l-6 -9q-72 115 -260 115l-11 10 l-10 -10q-4 10 -28 10q-25 0 -41 -10l4 6q-4 4 -11.5 4t-43.5 -12t-50 -15t-23 -4t-10 -3v-2q2 0 2 -3q-2 0 -2 3q-2 2 -17.5 2t-53.5 -39q20 -23 22 -41q-6 -9 -49 -15q-2 0 -2 4.5t-5 4.5t-9 -5q-4 20 -47 43l10 11l-4 4q14 10 30 26l39 39q6 2 23 7l-4 4q106 31 102 34 q8 -4 15 -4l96 15h98l66 -15l14 4l35 -8l24 -16q25 0 25 -8h6q18 0 64.5 -41t50.5 -62q51 -39 51 -135q-8 -8 -4 -24l-10 -50l-9 -10v-24l68 14q37 0 53 -17l-51 -12l-16 -10l-15 -16q-10 6 -25 6t-16 -4q0 -4 -4 -4q-2 -4 -2 -9q-45 -92 -133 -227l-33 -33 q-20 -20 -66.5 -67.5t-62.5 -46.5q-4 0 -10 -7.5t-14 -14.5t-15.5 -14t-11.5 -7t-18 -13.5t-21.5 -12.5t-7.5 -3l4 -6q-4 4 -9 4t-13.5 -6t-17.5 -14q-23 -19 -29 -19l-15 4q-18 0 -10 -4l-14 -16q-6 -4 -27 -15l-10 4q-6 0 -45 -20t-54 -21h-34q-23 2 -32 2h-5 q-29 0 -49 -6l6 6q-2 2 -16.5 2t-45.5 19.5t-37 25.5q-31 63 -26 70l-12 16l8 5q-10 10 -10 34zM158 844l2 2q0 -2 -2 -2zM803 526l4 -4q0 2 4 6q-8 0 -8 -2z" />
<glyph unicode="&#x42e;" horiz-adv-x="966" d="M-18 324v20q10 18 19 33.5t13 30.5l68 16l4 2l6 -6h8l11 10h22q10 27 25.5 63.5t48.5 110.5t41 113l8 12v4q4 8 8 15q-18 8 -18 23t20.5 31.5t30.5 16.5q18 0 53 -53q-12 -2 -20 -10q0 -16 -25 -70.5t-20 -73.5l-11 4q-29 -63 -73 -182q14 2 25 2h20l41 15h92l10 10 q14 0 25 2q18 25 51 90q2 2 6 3t8 5l-10 4q53 83 181 207q32 31 65 64q53 27 69.5 26.5t16.5 -5.5t4 -5l39 6q6 0 7 -6t3 -4l10 4q29 0 71 -84t42 -117q0 -3 -4 -62.5t0 -66.5l-21 -55l9 -4q-25 -82 -36 -135t-34 -91t-85.5 -119.5t-90.5 -80.5v-8q-39 -13 -45 -19q2 0 2 -2 q-2 0 -3 2t-11 2t-42 -11t-44.5 -11t-24.5 12v6l-10 -8q-37 25 -101 78q-16 43 -55 96l10 10q-18 27 -18 64t12 102q2 33 10 60q-14 -4 -26.5 -10.5t-10.5 -2.5q0 -4 2 -6l-10 10q-47 -8 -100 -24q-4 4 -25 4q-20 0 -47 -10l-92 -265l8 -8v-2l2 -16l-16 -25l2 -51 q-45 -33 -59 -37q-6 11 -39 35v21q43 74 43 114q16 37 43 106q27 73 32 97q-8 -8 -39.5 -28.5t-42.5 -22.5q-4 8 -38 35zM430 290.5q0 -53.5 10 -67.5q2 -49 23 -78l33 -51q61 -35 61 -37h74l14 11q51 0 132 88t71 139q23 23 36 77t23 70q0 39 4 58.5t4 21.5l-8 10 q14 12 15 23q0 174 -78 248q-8 -4 -16.5 -8t-18.5 -9q-153 -21 -322 -307q47 10 70 10l10 11l17 -4q29 0 55 8q33 8 16 18q16 4 29 4t21 -2q0 -14 -23 -14q-7 0 -21 -12q-25 -23 -28 -23l-35 -20l-25 6q-6 0 -16 -12.5t-20 -12.5t-19 4l-8 -10q-17 0 -45 -8 q-35 -78 -35 -131.5z" />
<glyph unicode="&#x42f;" horiz-adv-x="598" d="M-743 -78q5 33 10 67q7 62 12 89q4 18 12 10l15 6v21q14 70 131 145q2 2 41 -4l-13 -2q4 -4 8.5 -7t8.5 -7q-31 -20 -84 -70q-9 -11 -32 -61q-47 -102 -44.5 -111.5t2.5 -17.5l-6 -21l4 -12q-2 -4 -7 -31t18.5 -127t50.5 -106q13 0 45 -35l6 10q4 0 39 -23q33 -16 47 -4 l18 4l12 -8l13 6l-4 -4l8 -4q31 -6 242 125l12 -8v2q2 20 90 80q115 104 145 180q14 12 31 31q8 20 26 54q21 41 52 85l-4 6q4 14 10 26t16.5 31t18.5 37l8 -6q0 39 56 89.5t83 70.5q12 12 25 29v2h-10l-33 -4h-4q-11 -11 -14 -4.5t-7 3.5t-47 2t-46 3t-4 -4t-3 -4 q-14 14 -23.5 9t-22.5 -5l-97 4q-29 2 -41.5 4t-20.5 0q-12 12 -35 0l-2 -2q-25 20 -31 17t-9 1t-9 1t-20.5 9.5t-18.5 12.5l4 14q-6 2 -10 2t-8 2q10 18 18.5 36.5t36.5 35.5l6 2l4 12q21 0 27 11.5t10 15.5q6 4 17.5 5t17.5 3q4 2 3 7t5 7l23 13l6 14l12 -4l15 8l10 12 l-4 -10q16 8 30.5 18.5t26.5 17.5q16 9 76 34q90 37 129 55l12 -6l21 14l14 -2l119 58l28 -5l13 13q25 13 155 45q69 8 88 4q6 -40 11 -45q-4 2 -6 2q-2 -2 -1 -3t-2 -3l15 -8q-12 -6 -35 -29l4 8q-11 6 -18 -8l2 -2q-29 12 -47 12l-2 -12q-31 21 -119 -23l-2 -2q10 4 20 0 l12 -2l39 -35v-2q0 -7 -19 -41.5t-13 -42.5q-9 -9 -18 -39.5t-13 -43.5t-1 -30.5t-1 -24.5t-23 -11l-4 -72l-78 -225q-61 -176 -79 -209h12l-23 -29l-21 3q-7 1 -11 1l-7 5q-2 -7 -6 -7q-25 18 -10.5 54.5t22 53.5t10.5 28.5t5 13.5l-4 2q31 15 36 27.5t8 26.5t7 24 q17 0 37 112q23 33 16 58l-2 2l-4 -2l-10 4q-2 0 -1 -2t1 -3t2 -3q0 -2 -4 -2l-15 4q-5 0 -21 -14q-29 -25 -40.5 -25t-26.5 -19l7 -4q-14 -7 -54 -47q-4 -8 -8 -15t-8 -16l-6 5q-4 -4 -10.5 -6.5t-17.5 -22.5q-42 -79 -71 -123q-6 -14 -5 -29.5t-1 -25.5q-20 -8 -20 -25 l2 -4q-14 -10 -10 -20q-6 -6 -11.5 -12.5t-11.5 -12.5l-82 -100l-147 -140v4l-6 -2q-10 2 -23 -26q-111 -68 -104 -86q-18 0 -83 -29t-71 -37q-2 2 -3 2t-12 1t-81 -27q-6 4 -21 6l-22 4q-21 0 -42.5 11t-29.5 13l-8 13q-29 16 -109 110l13 15q-45 43 -45 166q4 2 8 14 q2 12 -8 12zM-49 543q39 -16 63 -17l25 -10q109 5 151 -6q21 3 44.5 0.5t29.5 3.5h2q4 0 18.5 4t20.5 -6v-2h10l58 14l14 -2q4 2 12.5 2t12.5 2l4 9h12l18 -13l9 -2l2 -6l16 -10l16 -33l21 55l8 4q18 76 14 101l11 2q7 60 16 172q6 6 12.5 9t12.5 7l4 6l-22 -6q-9 0 -13 -2 v-2h4l-59 -18h-2l-168 -56h-9l-4 -12q-6 0 -22 -8l-37 -16v2l-41 -13l-18 -10q-8 -4 -14.5 -7t-10.5 -7l-12 6q0 -6 -8 -8l-7 -15q-12 6 -17 2t-12 -14t-11.5 -13t-8.5 1t-8 2q-6 0 -2 -4l10 -2l-4 -4q-18 -6 -41 -9l-6 -14q-13 7 -45.5 -21t-48.5 -36z" />
<glyph unicode="&#x430;" horiz-adv-x="436" d="M2 63q47 98 166 230.5t223 214.5q37 43 52 43t30 -8q16 -33 16 -42t-14 -22.5t-14 -17.5t4 -8q-10 -10 -52 -99.5t-44 -101.5q-6 -6 -7 -10q0 -4 3 -6h-3q-2 0 -6 -6.5t-6 -6.5l10 -14q-41 -84 -71 -254h-37q-8 0 -19.5 15.5t-7.5 21.5q-2 -2 -5 -2t-4 9t15 15l-10 4 q33 18 27 70q27 18 22 90l15 12q0 2 -2 3l-54 -54q-53 -53 -59 -53t-34 -37t-32 -37l-71 -10q-4 2 -31 61zM86 104l12 -12q6 6 11 6q4 0 6 -2l-2 6l6 4q23 0 41 50q4 -4 10 -4l-4 8q34 52 170 192l-10 10q0 4 12 -2q0 17 12 29q-8 -2 -24.5 -14t-16.5 -14.5t-2 -6.5v-10 q-30 -24 -108 -102q-14 -6 -27 -19l6 -8q-18 -4 -92 -111z" />
<glyph unicode="&#x431;" horiz-adv-x="366" d="M-20 33l8 8q-2 4 -1 26.5t-3 26.5q14 51 25 82t3 55h8q2 0 12.5 6.5t6.5 9.5t11.5 20.5t26.5 50t24.5 52t17.5 25.5q5 8 28 25l-2 20l25 17l61 51l-2 12q6 0 5 1t27 4t52 -38l2 -12q0 -4 9.5 -8t13.5 -8l-4 -13q2 -4 -8.5 -17t-14.5 -38q4 4 15.5 8t18.5 14.5t6 24 t5 25.5v6l15 41h16l-14 53l-4 25l-9 10l2 8l-2 4l-41 37l-4 4q-25 12 -41 6v2q-4 10 -17 16.5t-26 0.5q-4 16 -24.5 28.5t-38.5 22.5l-35 33q-2 4 -6 16t-23.5 38t-23.5 36q4 6 9 11t1 13l-10 23q-2 8 27 52t22 48q119 82 150 86q6 0 12 -2l10 2h49q152 -21 180 -30.5 t55 -26t54 -36.5q51 -36 86 -79q0 -4 -4 -10t-8 -16q-8 4 -24.5 16t-37 26.5t-41 30t-42.5 29.5q-53 34 -103 29q-10 8 -59 11q-89 5 -111.5 1t-83.5 -45q-63 -47 -64 -76q6 -96 142 -190l4 -4l8 6q10 -10 10 -21q12 -6 33 -2q2 -5 0 -11q-3 -10 12 -19q20 -4 29 -7l-6 -4 l29 -16l-11 -37l25 -22l2 -72l-25 -82h-12l4 -2q-18 -27 -37.5 -61.5t-40 -70.5l-41 -72t-39.5 -66q-10 18 -51 2l6 4q0 -2 1 0t1 6q-2 2 -6 -1t-6 -1q-6 18 -14 26l8 19q10 10 17.5 25.5t7.5 34t10 22.5q6 4 25.5 27.5t18.5 53.5t8 46t2 26t-10 10.5t-14.5 -9t-21.5 -19.5 t-19 -22q-21 -28 -26 -44l-10 5q-10 -31 -39 -67t-42 -92t-27.5 -92t-9.5 -45.5t3 -16.5t0 -7v-4l10 4q10 -18 11 -18q23 25 47 52t26 54h27q16 -35 -8 -74q-30 -48 -72 -88q-51 -10 -60.5 -6t-9.5 2q-2 2 -2 4t-2 3t-8 8l-14 10q-2 4 3 15q8 18 1.5 18t-6.5 2z" />
<glyph unicode="&#x432;" horiz-adv-x="366" d="M-20 -4q0 41 26.5 94t63.5 53q2 -2 18 -22q-25 -14 -34 -48t-17 -65q0 2 22 2q2 -2 2 -10h5l18 10q29 0 117 88q74 70 110 123l-10 4q20 13 29.5 45.5t9.5 45.5t-16.5 32t-32.5 19t-68.5 -30t-52.5 -38t-16 -19q-37 -28 -37 -55l-11 -12l-30 -4q-2 0 -2 5t-4 5l-7 -4 q-10 31 -30 35q96 196 96 201.5t2 9.5q10 6 14 16l52 64l-4 4q12 8 59 67l-2 2q0 8 10 9l53 53q51 55 70 55q74 0 102 -47q-2 -57 -55 -113q-16 -14 -38.5 -36.5l-40 -40t-27.5 -17.5q-35 -35 -39 -28l2 -5q-31 -6 -51 -26l16 8l10 10l27 -8l14 4q45 0 61 -24q32 -49 37 -54 q-4 -4 -8 -47t-14 -57q-2 -8 -6 -19.5t-8 -27.5q-10 -18 -50.5 -73.5t-49.5 -55.5t-9 -2l6 -6q-47 -14 -117 -89l-51 -24v-10h-4l-14 4q-6 0 -13.5 -10.5t-11.5 -10.5q-19 13 -26.5 13t-16.5 -7q6 6 6 9q-14 10 -34 55zM63 215l3 -6q-2 2 -3 6zM227 496l13 -9q-2 2 -2 7 q0 4 6 4l16 -4q23 18 59 49l7 -6l8 10q18 0 86 119l-10 -4q-4 4 -20.5 4t-55.5 -45t-58.5 -69t-48.5 -56z" />
<glyph unicode="&#x433;" horiz-adv-x="247" d="M2 -20q25 118 25 147q27 85 178 309q-4 4 -14.5 13.5t-16.5 15.5q16 10 2 29q4 2 8.5 13t11.5 17t29.5 12.5t28.5 0.5q13 -13 18 -25l17 -16q-4 0 -11 -33.5t-2 -44.5q6 -10 5 -25q-10 2 -17 -4q-2 -4 -7 -12t-13 -25q-8 -6 -17.5 -24.5t-29 -37t-21.5 -38.5 q-43 -43 -62 -89q-33 -80 -51 -106l5 -55q6 -4 6 -10h10q33 -17 49 -33l-2 -16q-68 -35 -73 -28t-11 5t-10 2l-25 27v22z" />
<glyph unicode="&#x434;" horiz-adv-x="370" d="M-426 -524q0 4 6 10v12q0 6 13 56q27 106 68.5 181t123.5 126q12 -12 22 -17q-47 -54 -84.5 -100.5t-44.5 -93.5q-8 -8 -26 -73t-18.5 -90.5t31.5 -92t61 -66.5q98 0 217 115q4 4 4 6l-4 8q10 10 22 11q6 8 10 30q8 4 41 51q18 37 23 60q10 12 23 48q18 52 36 73l-8 4 q14 18 31.5 66t30.5 65q4 20 7 41q14 96 34 114l-9 5v18l11 -6q-2 2 -2 10l6 33q6 14 20 20q-6 6 -14 6t-17.5 -17t-19.5 -17t-66 -70q-2 2 -14 2t-31 -8h-14q-6 14 -29 18l2 4q0 14 -12 45q19 38 33 89q0 -2 2 -2l14 10l-8 4q16 25 38.5 61.5t53.5 83.5l35 40q21 24 47 54 q39 55 92 107q59 14 66.5 14t16.5 -6t18 -15q24 -22 24 -35t-22 -42q-38 -51 -44.5 -73t-39.5 -66q-14 -37 -36 -91.5t-50 -125.5l10 -4q-18 -23 -18 -39.5t2 -22.5l-11 4q-4 -10 -12 -63q-14 -18 -65 -167t-56 -173q-14 -14 -8 -29q-89 -111 -86 -151h-4q-12 0 -19.5 -13.5 t-5.5 -25.5q-14 -2 -30.5 -21.5t-30.5 -36.5l-41 -28q-10 0 -49 -21q-39 -20 -49 -20l-21 10l-29 -10q-8 0 -46 33.5t-44 27.5q-57 117 -57 156zM80 96q2 -4 2 -9t2 -13q0 14 12 14t10 -6q14 10 27.5 26.5t30.5 36.5q6 12 22.5 24.5t20.5 18.5q-4 20 61 111q13 43 25 53 q0 16 -19 33q-26 -31 -61 -82q-39 -27 -133 -207z" />
<glyph unicode="&#x435;" horiz-adv-x="380" d="M0 176q8 8 20 41q8 2 19 45q10 6 14 17l51 63l-4 4q12 8 60 68l-2 2q0 8 10 8l53 53q51 55 70 55q74 0 102 -47q-2 -57 -55 -112q-16 -14 -39 -37l-40 -40t-28 -17q-6 -6 -23.5 -18.5t-14.5 -8.5l2 -6q-47 -8 -76 -62q-2 2 -12 2q-13 0 -13 -8q2 -2 3 -4t3 -4l-10 6 q-14 -51 -14 -59q0 -16 14 -36q25 -36 37 -36t11 -2t8 -2t32 2t35 2q-6 0 -2 2t12 5q19 7 27 7q4 0 13 7.5t19 15.5q29 22 34 23t6 4l-9 4q4 2 15.5 14t18.5 12t4 -4t-1 -6l10 25q4 0 20.5 9t29.5 7h2q8 -4 16 -12q-29 -18 -53 -52q-2 -6 -7.5 -6t-5.5 -5t-35 -30.5t-49 -36 t-20 -12.5l-10 -10q-14 0 -47 -14.5t-45.5 -14.5t-21.5 4.5t-20 9.5q-26 11 -44 11q2 2 4 3t4 3q-4 0 -11.5 8.5t-16.5 17.5q-23 23 -34 23q2 4 2 24t-6 42q8 2 8 24.5t-20 28.5zM135 297l12 -8q-2 2 -2 6t7 4l16 -4l59 49l6 -6l9 10q18 0 86 119l-11 -4q-4 4 -20 4t-55 -45 t-58.5 -68.5t-48.5 -56.5z" />
<glyph unicode="&#x436;" horiz-adv-x="542" d="M-117 381q2 8 49 57q41 49 50 54l94 26q2 0 0 2l33 -10q27 -25 63 -64l29 -98l-13 6q-6 -12 -2 -12q-4 -6 -5 -19.5t-5 -44t4 -36.5q-12 -8 -16 -43q4 16 6 20t2 6l8 -8q8 12 15 45l8 4l20 13l8 8l9 26l47 82l10 8l12 56l31 12l53 -29l-31 -80h-2q-2 -6 -2 -2l-4 -2 q-18 -55 -16 -69q-25 -14 -19 -66q0 2 -5 2t-7 -6l2 -2h8q178 160 236 160q4 0 16 -17v-2l6 -30q-98 -92 -174 -213q-23 -31 -35 -75q-18 -70 -34 -97q68 -125 110 -125l56 4q2 0 2 -6t4 -4l4 4q18 0 46 13t34 13l24 -6l35 21l17 -13q-8 -8 -64 -41q-55 -37 -61 -36h-99 l-57 24l-10 -4q-25 0 -94 135v101l10 -9q8 8 4 13q8 8 23 45t12 49q10 0 20 20l-2 4l-6 -12l-6 10q-29 -35 -74 -135q-2 2 -4 2l-20 -6q-10 0 -23.5 13.5t-13.5 24.5t24.5 73.5t32.5 68.5l-8 4q12 8 12 52l-78 -142q-125 -190 -162 -160q-10 7 -14 11l6 -2l-14 26 q67 110 108 254q12 33 14 81q2 89 7 104q-30 30 -35 49l-8 6l-47 -18q-2 0 -4 6t-6 2l-2 -4q-16 -6 -40 -25.5t-29 -21.5t-13.5 -1t-12.5 -2l-28 -28z" />
<glyph unicode="&#x437;" horiz-adv-x="352" d="M-623 -631q10 25 12.5 128.5t28.5 135.5l-6 11q10 6 60.5 63t71 57t42.5 -12q-22 -22 -90 -80q-14 -12 -26.5 -45t-24.5 -45q0 -29 -14 -78l8 -14l-4 2q-6 0 -6 -8l10 -55q0 -47 18 -91.5t23 -70.5q12 -4 20 -12l-8 -5q57 -68 115 -67l59 20q6 0 75 58.5t69 66.5l-5 8 l11 -4q4 8 16 25.5t33 49.5t41 65.5t55 89t57 125.5l15 6q-4 4 -6 4h-4q79 127 94 233q18 25 22 47l4 82l23 70l-8 25q-16 16 -25 16l-51 -4q-6 0 -16.5 14.5t-14.5 16.5q3 9 17 43q4 -4 6 -4q47 51 147 163q4 2 11.5 10.5t21.5 22.5q-18 9 -18 4.5t2 -6.5q-4 4 -11 4 q-39 0 -123 -84q-12 -4 -22 -16l4 -8q-18 4 -51 20q-14 20 -23 47q20 8 25 25q49 27 129 55l16 14l66 21l18 -4q4 2 5 6t14.5 4t47.5 12.5t52 12.5l33 -33q-35 -68 -58 -68q-4 0 -5 -5t-3 -5q-14 0 -172 -170q2 -2 1 -9t13.5 -14.5t16.5 -9.5l25 -26l2 -11v-4q0 -8 2 -10 q-4 -10 0 -22q-2 -4 -2 -6.5t-13.5 -40.5t-13.5 -51t-2 -13h-8v-2q0 -39 -23.5 -95.5t-35 -84t-15.5 -41.5q-17 -21 -57 -123q-16 0 -25 -57q-19 -44 -78 -115l10 -8q-27 -45 -56.5 -94.5t-65 -102.5t-118.5 -121t-128 -67h-47q4 4 4 9t-10 5l-21 -6q-2 2 -11 9 q-88 69 -106 118q-33 96 -41 104zM68 240v2l4 4q-2 -2 -2 -3t-2 -3z" />
<glyph unicode="&#x438;" horiz-adv-x="425" d="M0 61q6 8 6 34t10 32q-4 4 -16 8q8 8 42 79t34 77l-6 10q33 33 32 78q2 4 15 16q-8 4 -17 13l2 6l-4 6q33 25 33 26l29 -4q33 -23 55 -30v-23q0 -6 -6 -6l-6 2q-4 -16 -53 -78q-8 0 -15 -37q-18 -14 -26.5 -44.5t-14.5 -48t-10 -34.5q-6 0 -6 -2q0 -8 26 -8q20 0 82 88 q14 8 15 25q40 32 67 59q35 41 49 76q14 12 49.5 74.5t34.5 81.5l66 10q12 0 27 -33l-15 -14q7 -14 10 -17q-18 -29 -43 -55q-12 -41 -45 -109l5 -10q-14 -8 -15 -14q0 -4 4 -4l-20 -31l14 -16l-6 2q-8 -2 -14 -13l4 -2l-6 -12l-5 8q-4 -32 -4 -57l-10 4q-35 -128 -35 -152 t6 -26q-4 -2 -26 -31q-14 -16 -37 -20l10 4q-12 14 -45 14l10 12l-16 9q47 84 43 137q23 29 23 59q6 16 24 51v15l-8 8q-10 -6 -44 -48t-39 -42t-32 -35t-28 -35q-2 0 -42 -37t-83 -37v9h-4q4 0 -8.5 10t-12.5 12zM295 260l14 -12l-4 12q4 8 14 4q-4 4 -10 4t-14 -8z" />
<glyph unicode="&#x439;" horiz-adv-x="425" d="M0 61q6 8 6 34t10 32q-4 4 -16 8q8 8 42 79t34 77l-6 10q33 33 32 78q2 4 15 16q-8 4 -17 13l2 6l-4 6q33 25 33 26l29 -4q33 -23 55 -30v-23q0 -6 -6 -6l-6 2q-4 -16 -53 -78q-8 0 -15 -37q-18 -14 -26.5 -44.5t-14.5 -48t-10 -34.5q-6 0 -6 -2q0 -8 26 -8q20 0 82 88 q14 8 15 25q40 32 67 59q35 41 49 76q14 12 49.5 74.5t34.5 81.5l66 10q12 0 27 -33l-15 -14q7 -14 10 -17q-18 -29 -43 -55q-12 -41 -45 -109l5 -10q-14 -8 -15 -14q0 -4 4 -4l-20 -31l14 -16l-6 2q-8 -2 -14 -13l4 -2l-6 -12l-5 8q-4 -32 -4 -57l-10 4q-35 -128 -35 -152 t6 -26q-4 -2 -26 -31q-14 -16 -37 -20l10 4q-12 14 -45 14l10 12l-16 9q47 84 43 137q23 29 23 59q6 16 24 51v15l-8 8q-10 -6 -44 -48t-39 -42t-32 -35t-28 -35q-2 0 -42 -37t-83 -37v9h-4q4 0 -8.5 10t-12.5 12zM209 702l2 7l6 10q27 82 41 92t27 -2q-11 -32 -35 -80 q0 -10 -2 -16l8 -23h2q2 -4 8 -4h14q5 0 9 -7t22 -18.5t27 -7.5l20 9q12 4 21.5 5t13.5 3l2 8l47 10l4 14l27 35l2 11q-4 8 -20 8l8 14q-2 0 2 12q0 25 14 33l41 14q10 2 25 -22q0 -4 -5 -7t-5 -5q0 -3 8 -11q2 -8 -19 -82l-8 -6l-18 -28l-4 -2q-4 -10 -7 -11l-69 -39l-8 5 q-33 -26 -60.5 -29.5t-64.5 11.5t-43 32l-13 6l-4 21l-10 18zM295 260l14 -12l-4 12q4 8 14 4q-4 4 -10 4t-14 -8z" />
<glyph unicode="&#x43a;" horiz-adv-x="339" d="M-18 42q0 11 24.5 73.5t32.5 68.5l-8 4q12 8 12 54q10 8 33 92l26 106q4 8 3 10.5t16 84.5h16l21 2q20 -20 37 -33q-18 -31 -27 -58h2l-25 -84h-2q-2 -6 -2 -2l-4 -2q-18 -55 -16 -69q-25 -14 -19 -66q0 2 -5 2t-7 -6l2 -2h8q178 160 236 160q4 0 7 -5t7 -10l2 -6l6 -28 q-98 -92 -174 -213q-23 -31 -35 -75q-20 -74 -34 -97q68 -125 110 -125l56 4q2 0 2 -6t4 -4l4 4q18 0 46 13t34 13l24 -6l35 21l16 -13q-10 -10 -63 -41q-55 -37 -61 -36h-99l-57 24l-10 -4q-25 0 -95 135v101l11 -9q8 8 4 13q8 8 23 45t12 49q14 2 26 37q-4 -6 -6 -10 q-5 -12 -8 -15l-6 10q-29 -35 -74 -135q-2 2 -4 2l-21 -6q-10 0 -23 13.5t-13 24.5z" />
<glyph unicode="&#x43b;" horiz-adv-x="354" d="M-143 -80l4 37q45 27 319 369q12 12 35 51q4 25 8 36t4 7q14 6 21 12l-10 4q18 12 10 23h14l-2 12q12 10 16 27q27 25 44.5 24.5t20.5 -8.5t9 -8q0 -39 -7 -84t-13 -85t-13.5 -62.5t-13.5 -39t-6 -34.5q-6 -23 -3 -28t-2 -7t-5 -5v-40q-2 -10 -2 -19.5t-4 -15.5 q2 -2 4 -7t12 -13l-4 -37q-14 -2 -62 -31q-33 0 -57 41l4 22q8 -2 19 17l6 43q14 12 18 61q4 4 7 19.5t12 38.5q5 40 8 61q-2 -2 0 -2l14 10l2 19l-8 8q-146 -210 -274 -338l2 -8h-7q-10 0 -32 -47q-18 -49 -54 -49zM196 77q-3 -1 1 1l2 4q0 -4 -3 -5z" />
<glyph unicode="&#x43c;" horiz-adv-x="450" d="M-84 -98l4 8v24q18 12 14 35q18 6 41 56t30 59q12 17 69 137q32 68 59 135q20 14 20.5 28.5t-1.5 16.5l12 -4q9 59 19.5 87t35.5 46h19l16 -10q12 0 27 -8q-12 -4 -13 -8q7 -7 23 -17q-6 -10 -12 -24q8 -2 8 -16t-21 -23q14 -8 15 -31l-11 -47l4 -43q0 -27 -14 -39v-112 l8 -9l17 29q12 27 18 27q18 0 10 -4v2q-2 2 -3 4t-5 6q26 21 45 69l-4 11q29 10 29 22q0 4 -4 13q25 27 30 65l29 16q14 8 39 9q18 0 18 -25.5t-10 -56.5l-14 -45q-2 -10 -3 -53.5t-1 -45.5t4 -10q-4 -6 -10 -6q0 -59 -9 -111q-12 -4 -20 -4t-23 15l-14 16v109 q-14 -10 -68 -91q-53 -80 -59 -79.5t-12 -1.5h-19q-43 0 -43 51l21 245q-8 8 -16.5 8.5t-8.5 -1.5l6 -11q-31 -29 -30 -84l-13 2q-4 -4 -4 -16t-21.5 -41t-26.5 -42q-13 -34 -60 -118v-20q-16 -4 -21 -8l11 -4q0 -20 6 -29q-4 -10 -36 -42t-38 -32l-37 6q-2 4 -2 15z" />
<glyph unicode="&#x43d;" horiz-adv-x="337" d="M-10 8q16 70 63 203q12 18 31 61v2q0 10 20 53.5t19 55.5q20 8 20 25.5t-20 31.5q26 21 61 54q25 0 35 -29t12 -27q-16 -31 -39.5 -77t-45 -84.5t-18.5 -36.5t-3 -13h4l21 4l14 13l12 -4l17 4l69 2q14 27 31.5 59.5t17.5 44.5t-2 18.5t2 32.5q20 39 58 43q37 -22 37 -47 q-2 -4 -13.5 -23.5t-26.5 -49.5q-40 -75 -61 -127l-10 -47l-8 -21l-4 -49l-11 -35q-30 -43 -36 -49h-21q-6 0 -15 16q-20 34 -30 37q14 12 45 53q-4 20 35 78v13l-21 4l-41 -7l-84 -8q-6 -12 -13 -29.5t-14 -32.5q-16 -36 -16 -46v-56q-8 -8 -4 -16q-14 2 -30 -14 q-8 6 -37 20z" />
<glyph unicode="&#x43e;" horiz-adv-x="339" d="M-4 80l8 6q0 74 23.5 108t32.5 48q17 25 12 30q63 61 80 109q6 4 41 45t65 47l10 10h21q16 0 38.5 -41.5t22.5 -64.5q0 -104 -76 -228q-24 -38 -63 -102q-9 0 -37.5 -22.5t-29.5 -22.5t-11 -6t-24 -6t-46 -10q-6 4 -14 12q-29 13 -53 88zM63 94q0 -41 41 -43l21 10 q4 0 4 5.5t7 5.5t44 35.5t45 48.5q8 12 68 157q-4 8 -12 25q4 2 7 4t7 4q-6 6 -14 12q4 2 8 3.5t8 5.5q-7 5 -8.5 10.5t-3.5 7.5l-6 4l-21 -14l-10 4q-43 -51 -82 -82l8 -6q-33 -16 -72 -86t-39 -111z" />
<glyph unicode="&#x43f;" horiz-adv-x="372" d="M-41 49q14 12 45 53q-2 20 21 54l-2 8q0 17 12 46q22 52 22 68.5t-2 22.5t2 33q20 39 58 43q37 -23 37 -47l-60 -144l6 -8q82 78 236 232v4q0 12 -4 0q6 2 13 14t15 12l35 -4q27 -31 31 -37q0 2 -21 -41q-2 -39 -80 -213t-67 -206q-23 -23 -43 -15t-27 8q2 8 15 23 q-2 4 -8 2q33 76 122 334h2q2 2 3 9t-1 7l-6 -6h-6l-63 -59q0 -4 2 -9q-35 -6 -62 -61q-16 0 -37 -27q-20 -27 -28 -26q-6 0 -47 -61t-47 -62h-21q-7 0 -15 16q-17 33 -30 37z" />
<glyph unicode="&#x440;" horiz-adv-x="391" d="M-160 -315q0 25 45 69l-8 4q23 39 51.5 114t42.5 101q0 29 58 222q41 29 55 170l6 -5q2 29 19 89h4q4 8 4 45q45 37 78 36q16 -16 74 -34t69 -47q24 -19 57 -54l-4 -2q29 -29 29 -82q0 -16 10 -32q-16 -43 -131 -211q-20 0 -29 -25q-18 -2 -37.5 -22.5t-33.5 -20.5 l-45 -25l-48 -20q-8 0 -8 -2l4 -6q-12 2 -63 35q2 4 2 11t2 17l-10 8q-20 -39 -21 -71l-43 -107q-27 -63 -24 -112q-18 -14 -51 -90q-2 2 -27 2l6 6l-27 8zM41 37l4 -14q6 20 23 26q-4 8 -5 12q0 4 3 7l6 -9q-4 8 -4 13q8 2 20 12q25 53 41 53q18 7 25 21l10 -11q23 0 29 -8 q-23 -16 -35 -57q-16 -8 -31 -14q4 -8 4 -11.5t-3 -1.5t-9 2q2 -2 2 -11t-8 -15l14 -8l-4 6l6 4q6 0 21 14q-2 2 -3 -8h5q20 8 49 24q9 20 57.5 61.5t52.5 45.5l-6 10q55 62 55 114t-52 99t-103 47q-20 0 -23 -14q2 -2 2 -10q0 -37 -32 -68l10 -4q-27 -29 -62 -139.5 t-53 -128.5q2 -6 6 -6q-12 -16 -12 -33z" />
<glyph unicode="&#x441;" horiz-adv-x="354" d="M4 82v31q0 18 11.5 45.5t11.5 33.5t-7 13q10 4 21.5 28.5t17.5 28.5q8 4 21 4q-4 0 -4 7t49 61.5t55 68.5q29 27 46 43q65 62 106 74l10 -10q12 -2 29.5 -21.5t17.5 -29.5t-11 -20.5t-13 -16.5q-12 -4 -60 -86q-8 0 -24 -36t-20.5 -39t-13.5 1t-18 4v4q2 14 -10 29 q35 23 35 49.5t-12 26.5q-2 0 -21.5 -16.5t-27 -22.5t-9.5 -8l11 -4q-4 -6 -22.5 -15.5t-18.5 -19.5l6 -6q-27 -10 -61 -75t-33 -93q0 -2 11 -21.5t7 -36.5l53 -4q14 0 68.5 34t58.5 44q8 4 14.5 8t14.5 8l-4 13l12 -2q40 65 59 65q6 0 11 -2h12v-18q-18 -23 -18 -29t4 -10 q-4 -2 -14.5 -17.5t-18.5 -14.5t-8 -1l6 -6q-10 -6 -36 -25q-155 -110 -175 -110q-47 0 -117 59v13q0 10 -2 20z" />
<glyph unicode="&#x442;" horiz-adv-x="585" d="M-18 14q0 8 6 11.5t6 5.5q50 177 76 198l-11 11q16 29 36.5 89t25.5 85q23 16 47 16q8 0 37 -37q-29 -43 -62 -141q16 14 38 31.5t48 40.5q2 8 0 20q20 8 25 33q2 20 27 24l10 -6l24 11q10 0 7 -5q-4 -4 0 -6l10 11q18 -18 26 -21q-4 -25 -12 -60.5t-18 -82.5 q-20 -8 -6 -19q-2 2 -5 2q-4 -4 -8 -10l13 -14q2 2 2 6t-5 8l44 44q34 34 119.5 120t86.5 86q27 -7 33 -8.5t10 2.5l-4 4q2 -8 13 -8l10 -11v-43q-43 -90 -43 -94q-14 -4 -48 -91t-34 -108.5t2 -27.5q-8 -12 -6 -39q-12 -39 -31 -39q-2 0 -2 -3t-3 -3q-2 0 -28 8q4 2 -10 8 t-16 17q0 55 50 156t52 147q-35 -16 -111 -129q0 -6 -12 -6q-78 -90 -78 -113q-18 -4 -42 -33t-29 -28q-23 0 -54 30q51 139 76 191l-14 6q0 8 18 18l-8 8q0 -8 -13.5 -10t-13.5 -10q-10 -6 0 -12q-35 -23 -97 -112t-66 -128q-16 -2 -21 -22q-37 -12 -31 -13q-8 0 -22 18.5 t-14 26.5zM121 215l14 6l-2 6l-12 -6v-6zM129 236l4 -7l19 19l-7 4z" />
<glyph unicode="&#x443;" horiz-adv-x="442" d="M-543 -631q10 25 12.5 128.5t28.5 135.5l-6 11q10 6 60.5 63t71 57t42.5 -12q-22 -22 -90 -80q-14 -12 -26.5 -45t-24.5 -45q0 -29 -14 -78l8 -14l-4 2q-6 0 -7 -8l11 -55q0 -47 18 -91.5t23 -70.5q12 -4 20 -12l-8 -5q57 -68 115 -67l59 20q6 0 75 58.5t68 66.5l-4 8 l11 -4q4 8 16 25.5t33 49.5t41 65.5t55 89t57 125.5l15 6q-4 4 -7 4q-2 0 -4 -2q77 124 95 235q25 27 24 74q18 57 94 262l-12 15q-4 -8 -8 -31q-14 2 -26.5 -16.5t-18.5 -18.5q-14 -8 -14 -29q-14 -2 -36 -25.5t-24 -37.5l-12 2q-12 0 -24.5 -24.5t-12.5 -28.5 q-8 0 -38 -30t-41 -30t-48 25v24q2 2 29 58v4q-6 12 -6 15t11 23.5t11 34t-2 19.5l10 -6q31 88 29 143q4 2 23 32t27.5 30t23 -3t20.5 -3q-4 -12 -4 -25.5t14 -20.5v-16q-42 -42 -82 -160q-6 -16 -11 -27t-7 -22q2 -2 12 -2t39 35l39 47q109 109 103 121q39 27 77 84 q39 57 43 104q20 33 21 25q0 4 -6 4q35 25 73.5 110t85.5 107q27 14 68 14q6 0 27 -20q4 -10 6 -19.5t4 -17.5q-43 -43 -119 -160q-49 -23 -139 -163q-33 -54 -64 -179q-12 -14 -39 -87t-26.5 -86t-1.5 -13h-8v-2q0 -39 -23.5 -95.5t-35 -84t-15.5 -41.5q-17 -21 -57 -123 q-16 0 -25 -57q-19 -44 -78 -115l10 -8q-27 -45 -56.5 -94.5t-65 -102.5t-118.5 -121t-128 -67h-47q4 4 4 9t-11 5l-20 -6q-2 2 -11 9q-86 63 -106 118q-33 96 -41 104z" />
<glyph unicode="&#x444;" horiz-adv-x="692" d="M0 -8v31q0 18 11.5 45.5t11.5 33.5t-7 13q10 4 21.5 28.5t17.5 28.5q8 4 17 4v10q0 4 37 45.5t37.5 58.5t5.5 25q29 27 46 43q62 61 105 74l10 -10q12 -2 29.5 -21.5t17.5 -28.5t-9 -17.5t-13 -16.5l-4 2l-55 -2l-13 -21l-39 -22v-8l-34 -17l-17 -34l-33 -33l-18 -31 l-12 -10q-2 -16 -27 -62.5t-25 -61.5t11.5 -34.5t7.5 -36.5l53 -4q6 0 10 9.5t46 35t47 35.5q8 4 14 8t14 8l-4 13l12 -2q20 32 35 47q4 16 10.5 35.5t12.5 42.5q41 29 55 170l6 -5q2 29 19 89h4q4 8 4 45q45 37 78 36q16 -16 61 -30t64.5 -9t23.5 -10q20 -16 57 -53l-4 -2 q29 -29 29 -82q0 -16 10 -33q-20 -58 -139 -231q-20 0 -29 -25q-18 -2 -37.5 -22.5t-29.5 -20.5t-25.5 -18.5t-21.5 -18.5l-49 -20q-7 0 -7 -2l4 -6q-12 2 -63 35q2 4 2 11t2 17l-10 8q-20 -39 -21 -71l-43 -107q-27 -63 -24 -112q-18 -14 -51 -90q-2 2 -27 2l6 6l-27 8 l-6 31q0 25 45 69l-8 4q23 39 51.5 114t42.5 101q0 6 11 47q-14 -10 -35 -23t-57.5 -39t-50 -42t-21.5 -16q-47 0 -117 59v13q0 10 -2 20zM342 37l4 -14q2 14 12 20l9 -8h8l45 -8l8 -4l-4 6l6 4q6 0 19 12v-6h4q10 4 21 16.5t26 20.5q8 18 43 48t52 58.5t21 32.5l-6 10 q29 31 43.5 52.5t14.5 48.5q0 53 -52 98q-27 25 -55.5 20.5t-51.5 -4.5t-26 -14q2 -2 2 -10q0 -37 -32 -68l10 -4q-27 -29 -62 -139.5t-53 -128.5q2 -6 6 -6q-12 -16 -12 -33z" />
<glyph unicode="&#x445;" horiz-adv-x="364" d="M-55 -98q14 35 59 90q77 79 68 88q25 35 73 90q-6 8 -13 21.5t-17 29.5q-5 16 -14 36.5t-25 27.5q-2 2 -13.5 28.5t-11.5 33.5t17.5 20.5t29.5 13.5q41 0 72 -79q8 -21 23 -60q78 78 86 116q6 8 15 21.5t21 30.5l-2 14q4 4 43 27q2 6 10.5 6t17.5 -5.5t18 -13.5 q26 -21 28 -26q0 2 -2 2q-14 0 -14 -7.5t10 -11.5l-8 6q-2 -2 -2 -6t4 -8q-31 0 -31 -31q0 -6 2 -8q-31 -10 -37 -26q-25 0 -28 -29q-14 -2 -56.5 -50t-42.5 -63l15 -20q14 -20 14 -45l8 8q6 0 7 -12.5t7 -12.5q14 -6 15 -8q0 -4 -6 -6q16 -10 39 -35q-12 -2 -11 -35h-2 l-41 -6q-18 0 -18 19q0 2 -4 2q-18 25 -33 32l10 9q-25 14 -43 53h-14q-9 -15 -83 -103t-87 -143h-31q-23 0 -22 25z" />
<glyph unicode="&#x446;" horiz-adv-x="538" d="M-161 -277.5q1 29.5 14 48.5l-11 8q9 7 52 78q41 59 55 63q25 4 47 -4q-19 -28 -74 -96q-12 -12 -19 -46t-18 -48q6 -22 -2 -80l11 -13h-5q-6 2 -2 -10q-2 -4 6.5 -22.5t11.5 -36.5q8 -49 32 -78q31 -47 32 -68q12 0 23 -10l-6 -4q70 -57 123 -47q6 0 25.5 14.5 t29.5 14.5q10 4 66 70.5t57 74.5l-4 8l8 -2q8 23 37 76q16 41 20 74.5t20 75.5q26 64 46 153l10 8l-2 2l-8 -2l2 2q-4 4 -3 14.5t3 10.5l4 6l-2 2q6 33 13 46q16 30 28 93l-17 15q-2 -2 -2 -9l-10 -10h-10l-12 -24l-13 -9l-10 -24l-8 -4q-2 2 -2 3t-2 3l-33 -16 q-8 -14 -4 -19q-10 -6 -33 -38t-43 -36l-43 17l-2 26l4 9q-2 2 -4 2q2 4 4 7t4 8t3 14.5t5 21.5l-2 4l-2 2l17 4q14 41 14 76q23 29 23 59q6 16 24 51v15l-8 8q-10 -6 -44 -48t-39 -42t-32 -35t-28 -35q-2 0 -42 -37t-83 -37v9h-4q4 0 -8.5 10t-12.5 12l-4 10q6 8 6 34 t10 32q-4 4 -16 8q8 8 42 79t34 77l-6 10q33 33 32 78q2 4 15 16q-8 4 -17 13l2 6l-4 6q33 25 33 26l29 -4q33 -23 55 -30v-23q0 -6 -6 -6l-6 2q-4 -16 -53 -78q-8 0 -15 -37q-18 -14 -26.5 -44.5t-14.5 -48t-10 -34.5q-6 0 -6 -2q0 -8 26 -8q20 0 82 88q14 8 15 25 q40 32 67 59q35 41 49 76q14 12 49.5 74.5t34.5 81.5l66 10q12 0 27 -33l-15 -14q7 -14 10 -17q-18 -29 -43 -55q-12 -41 -45 -109l5 -10q-14 -8 -15 -14q0 -4 4 -4l-20 -31l14 -16l-6 2q-8 -2 -14 -13l4 -2l-6 -12l-5 8q-4 -32 -4 -57l-10 4q-19 -70 -24 -96l79 82l5 6l8 4 q25 82 63 106q20 16 45 19.5t31 0.5t18 -13q-4 -4 0 -4l2 -35q-2 -2 -16 -35l-43 -53l-12 -62h-2q4 0 4 -24q-2 -3 -14 -33v-29l4 -2l2 2l2 -10l-6 -16q0 -2 -12.5 -8.5t-18.5 -35t-14 -47.5l2 -2l-9 -49l-2 -10l-43 -88l4 -4q-12 -45 -20 -96.5t-47 -112.5 q-33 -63 -99.5 -141t-115.5 -84l-45 -6q0 2 1 2t0 5t-8.5 5t-12.5 -4t-6 -5t-57.5 30.5t-78.5 74.5q-53 92 -59 98q8 25 -3.5 107t-10.5 111.5zM295 260l14 -12l-4 12q4 8 14 4q-4 4 -10 4t-14 -8z" />
<glyph unicode="&#x447;" horiz-adv-x="311" d="M-4 207q0 41 100 262q14 -4 43 -6q0 -6 2 -10v-9q0 -6 -5 -14t-5 -24.5t-6 -16.5l-6 4q-4 -6 -6 -42t-23 -46l4 -20q8 4 20.5 6t31.5 15q49 32 49 44q-2 2 -2 3t-3 3q12 4 35 37q18 14 43 49v-2l6 17l-2 14q12 4 27.5 16t52.5 -20q16 -10 4 -57q-4 -6 -16 -12.5 t-18 -13.5t-17.5 -36t-26.5 -64q-21 -54 -44 -125q-41 -126 -52 -139q-16 -33 -14 -34q-6 -4 -21.5 -1t-19.5 -5q-23 46 -22 76l1 30q41 15 58 98q4 20 15 34.5t14 31.5l16 39q-12 -10 -28.5 -22.5t-43.5 -37t-53.5 -37t-36.5 -12.5h-29q0 4 -8 11.5t-14 15.5z" />
<glyph unicode="&#x448;" horiz-adv-x="688" d="M0 61q6 8 6 34t10 32q-4 4 -16 8q8 8 42 79t34 77l-6 10q33 33 32 78q2 4 15 16q-8 4 -17 13l2 6l-4 6q33 25 33 26l29 -4q33 -23 55 -30v-23q0 -6 -6 -6l-6 2q-4 -16 -53 -78q-8 0 -15 -37q-18 -14 -26.5 -44.5t-14.5 -48t-10 -34.5q-6 0 -6 -2q0 -8 26 -8q20 0 82 88 q14 8 15 25q40 32 67 59q35 41 49 76q14 12 49.5 74.5t34.5 81.5l66 10q12 0 27 -33l-15 -14q7 -14 10 -17q-18 -29 -43 -55q-20 -60 -40 -100q2 -10 0 -19h-3v-2h-2l-4 -4l-4 -12h2l-4 -4l-2 -17q-8 -8 -12 -14l12 -12l-6 2q-8 -2 -14 -13l4 -2l-6 -12l-5 6q-4 -24 -4 -41 h-8l-12 -41q-6 0 -6 -2q0 -8 26 -8q20 0 82 88q14 8 15 25q40 32 67 59q35 41 49 76q14 12 49.5 74.5t34.5 81.5l66 10q12 0 27 -33l-15 -14q7 -14 10 -17q-18 -29 -43 -55q-12 -41 -45 -109l4 -10q-14 -8 -14 -13t4 -5l-20 -31l14 -16l-6 2q-8 -2 -14 -13l4 -2l-6 -12l-5 8 q-4 -32 -4 -57l-10 4q-35 -128 -35 -152t4 -26q-6 -4 -24 -31q-14 -16 -37 -20l10 4q-12 14 -45 14l10 12l-16 9q47 84 43 137q23 29 23 59q6 16 24 51v15l-8 8q-10 -6 -44 -48t-39 -42t-32 -35t-28 -35q-2 0 -42 -37t-83 -37v9h-4q4 0 -8.5 10t-12.5 12l-4 10q6 8 6 34 t10 32q-4 4 -16 8q6 6 29 49h-2q8 18 24 47v15l-8 8h-2q-9 -9 -42.5 -49.5t-38.5 -40.5t-32 -35t-28 -35q-2 0 -42 -37t-83 -37v9h-4q4 0 -8.5 10t-12.5 12zM549 260l14 -12l-4 12q4 8 14 4q-4 4 -10 4t-14 -8z" />
<glyph unicode="&#x449;" horiz-adv-x="813" d="M0 61q6 8 6 34t10 32q-4 4 -16 8q8 8 42 79t34 77l-6 10q33 33 32 78q2 4 15 16q-8 4 -17 13l2 6l-4 6q33 25 33 26l29 -4q33 -23 55 -30v-23q0 -6 -6 -6l-6 2q-4 -16 -53 -78q-8 0 -15 -37q-18 -14 -26.5 -44.5t-14.5 -48t-10 -34.5q-6 0 -6 -2q0 -8 26 -8q20 0 82 88 q14 8 15 25q40 32 67 59q35 41 49 76q14 12 49.5 74.5t34.5 81.5l66 10q12 0 27 -33l-15 -14q7 -14 10 -17q-18 -29 -43 -55q-20 -60 -40 -100q2 -10 0 -19h-3v-2h-2l-4 -4l-4 -12h2l-4 -4l-2 -17q-8 -8 -12 -14l12 -12l-6 2q-8 -2 -14 -13l4 -2l-6 -12l-5 6q-4 -24 -4 -41 h-8l-12 -41q-6 0 -6 -2q0 -8 26 -8q20 0 82 88q14 8 15 25q40 32 67 59q35 41 49 76q14 12 49.5 74.5t34.5 81.5l66 10q12 0 27 -33l-15 -14q7 -14 10 -17q-18 -29 -43 -55q-12 -41 -45 -109l4 -10q-14 -8 -14 -13t4 -5l-20 -31l14 -16l-6 2q-8 -2 -14 -13l4 -2l-6 -12l-5 8 q-4 -32 -4 -57l-10 4q-4 -12 -7 -23.5t-7 -21.5l100 104l4 7l8 4q25 82 64 106q20 16 44.5 19.5t31 0t18.5 -13.5q-4 -4 0 -4l2 -35q-2 -2 -16 -34l-43 -54l-13 -61h-2q4 0 5 -25q-5 -8 -15 -32v-29l4 -2l2 2l2 -10l-6 -17q0 -2 -12 -8t-18 -34.5t-15 -47.5l2 -2l-8 -49 l-2 -10l-43 -88l4 -4q-12 -45 -20.5 -96.5t-47.5 -112.5q-35 -67 -92 -131q-74 -88 -123 -95l-45 -6q0 2 1 2t0 5t-8 5.5t-12 -4t-9 -6.5q2 0 -54.5 32t-78.5 75q-51 89 -60 98q8 25 -3 107t-10 111.5t13 47.5l-10 9q10 8 51 77q41 59 55 64q25 4 48 -4q-19 -28 -74 -96 q-12 -12 -19.5 -46t-17.5 -49q6 -21 -2 -80l10 -12h-4q-6 2 -2 -10q-2 -4 6 -22.5t11 -36.5q8 -46 35.5 -85.5t29.5 -60.5q12 0 22 -10l-6 -4q70 -57 123 -47q6 0 25.5 14t30.5 14q10 4 66 71t56 75l-4 8l8 -2q8 23 37 76q16 41 20.5 74.5t20.5 75.5q25 66 45 153l11 8l-2 2 l-9 -2l2 2q-11 11 5 31l-3 2q5 31 13 45q16 28 28 94l-16 14q-2 -2 -2 -8l-10 -10h-10l-13 -25l-12 -8l-10 -24l-8 -5l-5 7l-32 -17q-8 -14 -4 -18q-10 -6 -33 -38t-43 -36l-43 16l-2 27q12 30 12 48v26q23 29 23 59q6 16 24 51v15l-8 8q-10 -6 -44 -48t-39 -42t-32 -35 t-28 -35q-2 0 -42 -37t-83 -37v9h-4q4 0 -8.5 10t-12.5 12l-4 10q6 8 6 34t10 32q-4 4 -16 8q6 6 29 49h-2q8 18 24 47v15l-8 8h-2q-9 -9 -42.5 -49.5t-38.5 -40.5t-32 -35t-28 -35q-2 0 -42 -37t-83 -37v9h-4q4 0 -8.5 10t-12.5 12zM549 260l14 -12l-4 12q4 8 14 4 q-4 4 -10 4t-14 -8z" />
<glyph unicode="&#x44a;" horiz-adv-x="303" d="M-119 387q0 16 15 16l34 21l35 -6l51 14h35l8 -10v2q0 -2 5.5 1t13.5 7q20 10 37 10l14 -4q6 0 7 5.5t7 5.5l17 -7q10 0 10 15q6 4 29 8l12 12q8 8 37 8q25 0 20 -16q6 -11 6 -24t-2 -23l-4 -4l-35 -70l-26 -33l18 11l2 2l27 10l16 -2h21l6 -6l6 -2l8 -6l8 -13 q0 -2 -2 -4l7 -18l2 -27l-9 -33l-90 -123l-12 2q-4 0 -13 -17t-20 -17q-10 0 -65 -70q-2 2 -14 2t-31 -8h-15q-6 14 -28 18l2 4q0 14 -13 45q20 40 33 87h2l13 8l2 2l-9 4q12 18 33 51q23 59 68 152h2l16 16v12l-8 -6l-39 -16l-39 -4v2l-4 -2h-4l-4 -2v2l-10 4 q-25 0 -35 -11h-15l-30 -18q-4 4 -18.5 4t-22.5 -8q0 4 -7.5 -4t-11.5 -8l-36 12q-12 43 -13 47zM94 96q2 -4 2 -8t2 -8q2 8 13.5 8t11.5 -6q14 10 26.5 26.5t22.5 29.5t31 34l4 10l2 6l4 17l12 8v6l8 12v2l7 5l2 12v14l-13 6l-2 6l-22 -4l-17 -12q-6 -8 -12 -18 q-9 -16 -18.5 -25.5t-16 -23t-15.5 -35t-32 -62.5z" />
<glyph unicode="&#x44b;" horiz-adv-x="495" d="M-23 37l50 127h-2q115 237 102 234q-4 -1 -4 6.5t-6 17.5q2 2 9 8t16 15t38 10q25 0 21 -17q6 -10 6 -32.5t-21 -59.5q-29 -49 -34 -59q6 0 34 19q32 21 58 34l10 10l27 -8l14 4q45 0 56 -18t10 -26.5t-5 -14.5q-10 -15 -8 -17q-4 -4 -7 -36q-4 -43 -22 -64q-2 -4 -2 -8 t-2 -8l-8 -7l-2 -12l-16 -14l-37 -55l-21 -15l-32 -39l-25 -26v2q-6 -6 -8 -11l-51 -24v-10h-4l-15 4q-6 0 -13 -10.5t-11 -10.5q-20 13 -27.5 13t-15.5 -7q6 6 6 9q-15 10 -35 55v15q0 7 4 18zM57 8q0 2 23 2q2 -2 2 -10h4l18 10q23 0 95 68l18 31l10 2v2l11 37l12 4l-6 8 h2l39 61v13q-4 16 4 30.5t-7 14.5t-67.5 -30t-52.5 -38t-16 -19q-37 -28 -37 -55l-9 -10q2 -2 3 -4t6 -4q-25 -14 -34 -48t-18 -65zM328 -10q0 16 11 50q21 65 21 77l11 -6q0 23 16 69.5t18 56.5t7 21h2q6 20 23.5 61t27.5 70q8 8 12 23l-4 10v18q14 4 19 9l-11 4 q23 23 47 22h4l-4 -8q0 -2 2 -2q35 0 35 -29q0 -20 -21.5 -49t-27.5 -33l10 -4q-6 -12 -15 -28.5t-19 -33.5q-27 -52 -44.5 -105.5t-33.5 -94.5l14 -12v-23q-5 -5 -31 -51q-16 -23 -55 -22z" />
<glyph unicode="&#x44c;" horiz-adv-x="270" d="M-6 63q14 28 33 89q0 -2 2 -2l12 8l2 2l-8 4q12 18 33 51q72 158 71 186q0 4 -6 15q2 2 9.5 8t16.5 15t36 9.5t22 -16.5q6 -10 6 -23t-2 -24l-4 -4l-6 -27l-2 -6l-27 -33l19 11l2 2l26 10l17 -2h20l6 -6l7 -2l8 -6l8 -13q0 -2 -2 -4l6 -18l2 -27l-8 -33l-90 -123l-13 2 q-4 0 -13 -17t-19 -17t-66 -70q-2 2 -14 2t-31 -8h-14q-6 14 -29 18l2 4q0 14 -12 45zM70 96q2 -4 2 -8t2 -8q2 8 13 8t11 -6q14 10 26.5 26.5t23.5 29.5q14 18 30 34l4 10l2 6l4 17l13 8v6l8 12v2l6 5l2 12v14l-12 6l-2 6l-23 -4l-16 -12q-6 -8 -12 -18 q-10 -16 -19.5 -25.5t-15.5 -23t-15.5 -35t-31.5 -62.5z" />
<glyph unicode="&#x44d;" horiz-adv-x="339" d="M-4 80l8 6v32q0 15 4 29h2l35 19l23 -37q-5 -13 -5 -31q0 -45 41 -47l21 10q4 0 4 5.5t7 5.5t44 35.5t43 44t35 77.5q-28 -8 -90 -28l-23 16l-2 19l15 22q6 0 21.5 4t41.5 10l12 11q4 -2 7.5 -2t12.5 -1t28 5q4 8 12 28q-4 8 -12 25q4 2 7 4t7 4q-6 6 -14 12q4 2 8 3t8 6 q-7 5 -8.5 10.5t-2.5 5.5t-1 2l-6 4l-21 -14l-10 4q-18 -25 -37 -43l-14 -2l-15 8v12h-12l-6 37q12 14 38 45t56 37l10 10h21q16 0 39 -42t22.5 -74.5t-12.5 -75.5l24 -2q5 -7 17 -19q-14 -10 -33 -18h-20q-13 -39 -44.5 -90t-70.5 -115q-9 0 -37.5 -22.5t-29.5 -22.5 t-11 -6t-24 -6t-46 -10q-6 4 -14 12q-29 13 -53 88z" />
<glyph unicode="&#x44e;" horiz-adv-x="544" d="M-43 141l10 11v16q2 18 10 22l22 5q7 0 18 3q12 3 49 9q13 3 26 27q22 43 31 49l-6 10l6 6q-2 2 -2 8l6 25l-4 10q22 60 72 156q-4 12 -7 14q4 7 35 49q-4 2 -12 10q2 2 8 2q12 43 29 58q-6 6 -10 20q12 35 23 41t35.5 6t28 -7t7.5 -9v-33q-20 -20 -86 -180 q-14 0 -49 -105.5t-43 -115.5q2 -2 5 -4t7 -6q-2 2 -5 2t-3 -4q17 0 43 8h-11q8 2 19.5 5t30.5 7l12 10q4 -2 7 -2t7 -2h10v10q63 61 80 109q6 4 41.5 45t65.5 47l10 10h21q16 0 38.5 -42t22.5 -64q0 -104 -77 -228q-23 -38 -62 -102q-9 0 -37.5 -22.5t-29.5 -22.5t-11 -6 t-24.5 -6t-45.5 -10q-6 4 -14 12q-29 13 -53 88l8 6q0 55 14 90l-12 6q-9 0 -28 -12q-36 -23 -42 -23q-31 0 -51 -98q0 -8 -4 -16h-6v-25q-8 -8 -4 -16q-14 2 -31 -15q-8 7 -37 21l27 92v6q0 16 -19 21q-18 4 -24 -2l4 6q-10 6 -25 6zM180 242h6h-6zM268 94q0 -41 41 -43 l21 10q4 0 4 5.5t7 5.5t44 35.5t45 48.5q8 12 68 157q-4 8 -13 25q4 2 7.5 4t7.5 4q-6 6 -15 12q4 2 8.5 3t8.5 6q-7 5 -8.5 10.5t-3 5.5t-1.5 2l-6 4l-20 -14l-10 4q-43 -51 -82 -82l8 -6q-12 -6 -23 -17l25 -2q4 -6 16 -18q-14 -10 -32 -18h-27q-4 0 -8 -2.5t-8 -6.5 t-7.5 -10t-25 -44t-21.5 -79z" />
<glyph unicode="&#x44f;" horiz-adv-x="350" d="M-63 -86q8 20 30.5 38.5t44.5 45.5q77 79 68 88q2 2 6 10l29 15l-13 2h-18l-6 6l-6 2l-9 6l-8 12q0 2 2 4l-6 19l-2 26l8 33l119 201l12 -2q4 0 13.5 17.5t19.5 17.5t66 69q2 -2 14 -2t31 8h14q6 -14 29 -18l-2 -4q0 -14 12 -45q-18 -37 -33 -88q0 2 -2 2l-12 -8l-2 -2 l8 -5q-7 -10 -23 -46.5t-25 -55.5q-85 -174 -85 -213q0 -6 6 -14q-5 -5 -20 -19t-43 -14q-25 0 -21 16q-6 8 -6 23v2l14 22l6 19l3 4l-19 -18l-4 -2q-10 -12 -22.5 -25.5t-34 -39.5t-48 -54.5t-32.5 -57.5h-31q-23 0 -22 25zM133 184l12 -6l2 -6l23 4l16 12q6 8 12 18 q10 16 19 25q4 4 24.5 52.5t23.5 55.5q19 45 44 91q-2 4 -2 8t-2 8q-2 -8 -13 -8t-11 6q-14 -10 -26.5 -26.5t-22.5 -29.5q-15 -18 -31 -34l-4 -10l-2 -6l-5 -10l-8 -6l-30 -48v-14l-11 -12l4 -25l-4 -6v-2l-6 -4l-2 -12v-15z" />
<glyph unicode="&#x451;" horiz-adv-x="380" d="M0 176q8 8 20 41q8 2 19 45q10 6 14 17l51 63l-4 4q12 8 60 68l-2 2q0 8 10 8l53 53q51 55 70 55q74 0 102 -47q-2 -57 -55 -112q-16 -14 -39 -37l-40 -40t-28 -17q-6 -6 -23.5 -18.5t-14.5 -8.5l2 -6q-47 -8 -76 -62q-2 2 -12 2q-13 0 -13 -8q2 -2 3 -4t3 -4l-10 6 q-14 -51 -14 -59q0 -16 14 -36q25 -36 37 -36t11 -2t8 -2t32 2t35 2q-6 0 -2 2t12 5q19 7 27 7q4 0 13 7.5t19 15.5q29 22 34 23t6 4l-9 4q4 2 15.5 14t18.5 12t4 -4t-1 -6l10 25q4 0 20.5 9t29.5 7h2q8 -4 16 -12q-29 -18 -53 -52q-2 -6 -7.5 -6t-5.5 -5t-35 -30.5t-49 -36 t-20 -12.5l-10 -10q-14 0 -47 -14.5t-45.5 -14.5t-21.5 4.5t-20 9.5q-26 11 -44 11q2 2 4 3t4 3q-4 0 -11.5 8.5t-16.5 17.5q-23 23 -34 23q2 4 2 24t-6 42q8 2 8 24.5t-20 28.5zM119 612l6 27q49 76 94 76q12 0 27.5 -15.5t15.5 -27.5q0 -37 -61 -88q-12 0 -37 -6zM135 297 l12 -8q-2 2 -2 6t7 4l16 -4l59 49l6 -6l9 10q18 0 86 119l-11 -4q-4 4 -20 4t-55 -45t-58.5 -68.5t-48.5 -56.5zM305 633l6 26q49 76 95 76q12 0 27.5 -15.5t15.5 -27.5q0 -37 -62 -88q-12 0 -37 -6z" />
<glyph unicode="&#x2000;" horiz-adv-x="819" />
<glyph unicode="&#x2001;" horiz-adv-x="1638" />
<glyph unicode="&#x2002;" horiz-adv-x="819" />
<glyph unicode="&#x2003;" horiz-adv-x="1638" />
<glyph unicode="&#x2004;" horiz-adv-x="546" />
<glyph unicode="&#x2005;" horiz-adv-x="409" />
<glyph unicode="&#x2006;" horiz-adv-x="273" />
<glyph unicode="&#x2007;" horiz-adv-x="273" />
<glyph unicode="&#x2008;" horiz-adv-x="204" />
<glyph unicode="&#x2009;" horiz-adv-x="327" />
<glyph unicode="&#x200a;" horiz-adv-x="91" />
<glyph unicode="&#x2010;" horiz-adv-x="438" d="M37 260q8 8 44 14t52.5 9.5t24.5 3.5l65 -21l15 6l43 -10l94 4q18 1 28 -28q-92 -31 -186 -31l-24 10l-9 -10h-20l-90 -10q-4 0 -27 22v4q0 2 -10 37z" />
<glyph unicode="&#x2011;" horiz-adv-x="438" d="M37 260q8 8 44 14t52.5 9.5t24.5 3.5l65 -21l15 6l43 -10l94 4q18 1 28 -28q-92 -31 -186 -31l-24 10l-9 -10h-20l-90 -10q-4 0 -27 22v4q0 2 -10 37z" />
<glyph unicode="&#x2012;" horiz-adv-x="438" d="M37 260q8 8 44 14t52.5 9.5t24.5 3.5l65 -21l15 6l43 -10l94 4q18 1 28 -28q-92 -31 -186 -31l-24 10l-9 -10h-20l-90 -10q-4 0 -27 22v4q0 2 -10 37z" />
<glyph unicode="&#x2013;" horiz-adv-x="1096" d="M37 260q22 8 123 14t147 9.5t69 3.5l181 -21l42 6l121 -10l263 4q50 1 78 -28q-257 -31 -520 -31l-68 10l-25 -10h-56l-251 -10q-12 0 -76 22v4q0 2 -28 37z" />
<glyph unicode="&#x2014;" horiz-adv-x="2120" d="M37 260q45 8 246.5 14t293.5 9.5t137 3.5l364 -21l84 6l240 -10l526 4q101 1 157 -28q-515 -31 -1041 -31l-134 10l-50 -10h-112l-504 -10q-22 0 -151 22v4q0 2 -56 37z" />
<glyph unicode="&#x2026;" horiz-adv-x="638" d="M76 29l6 26q49 76 94 76q12 0 27.5 -15.5t15.5 -27.5q0 -37 -61 -88q-12 0 -37 -6q-2 1 -45 35zM248 33l6 26q49 76 94 76q12 0 27.5 -15.5t15.5 -27.5q0 -37 -61 -88q-12 0 -37 -6zM416 33l6 26q49 76 94 76q12 0 27.5 -15.5t15.5 -27.5q0 -37 -61 -88q-12 0 -37 -6z " />
<glyph unicode="&#x202f;" horiz-adv-x="327" />
<glyph unicode="&#x205f;" horiz-adv-x="409" />
<glyph unicode="&#x2116;" horiz-adv-x="946" d="M-27 61v48q33 51 33 153q6 14 25 29l-11 8v16q94 225 95 326q0 6 -6 12v13l-9 32v21q39 27 63 26.5t46 -30.5q2 -10 2 -25.5t2 -36.5l8 9q8 0 8 -48q0 6 162 -467q18 -55 80 -155q14 2 29 176q12 27 10 53q14 28 21 70.5t22 58.5v8q0 14 9 35t14 37q10 35 32 119 q27 86 54 119l-11 4l8 30l13 7q-10 10 -10 17t20 22l-10 4q6 27 6 43t-12 22q6 43 26 70l-4 10q47 53 56.5 53t35.5 -26l-4 -6l4 -11q0 -2 -4 -6l15 -8q-31 -35 -58 -111t-47 -102l8 -4q-6 -8 -12 -29l4 -6q-8 -25 -27 -61l7 -17l-4 -10q-10 -6 -11 -45q-4 -2 -8 -5t-12 -7 l10 -4q-57 -174 -57 -230v-16t2 -17q-18 -8 -15 -16l-14 -80v-278q-30 -24 -49 -43q0 2 -6 2q-12 0 -43 54t-41 62l10 25q-49 59 -80 156q-2 12 -18 34q-6 31 -25 95q-2 -2 -6 2l8 10q-12 10 -35 59q-20 49 -14 60q-31 78 -84 168l10 10q-4 4 -22 12q-43 -147 -76 -252 q-17 -17 -27 -112t-8 -115q-37 -37 -51 -37zM506 -190q0 2 2 2zM621 287q8 8 44 14t52 9t24 3l66 -20l14 6l43 -10l94 4q19 0 29 -29q-92 -31 -186 -31l-25 11l-8 -11h-20l-91 -10q-4 0 -26 23v4q0 2 -10 37zM696 399q2 8 4 26.5t7 47.5q2 45 22 72q31 89 39 106 q37 43 55 72q0 10 27 43t39 33h4v-8l25 8q24 0 63 -70q0 -8 -12 -22q0 -19 -9 -45q-14 -43 -14 -64l-12 2q-133 -233 -174 -233q-2 2 -64 32zM772 477l16 -6q39 44 74 119.5t39 79.5l-10 4l14 16l-10 2l8 13q-23 -23 -53 -50q-2 -7 -40 -76t-38 -90v-12z" />
<glyph unicode="&#x2122;" horiz-adv-x="1024" d="M27 -385q0 16 10 12l12 8q-4 12 -4 21q0 74 96 170q4 4 41 4l-10 -4q12 -6 18 -10q-29 -29 -67 -86q-15 -45 -23 -83q-14 -66 -14 -85t4 -35v-21l6 -10q-2 -6 -2 -30.5t44 -119.5t73 -96q15 0 51 -24l4 10q2 2 32.5 -8t41 -10t16.5 12l17 6l14 -4l10 8l-2 -4l8 -4 q31 0 211 174q2 -4 13 -6v2q0 20 71 98q88 125 105 207q41 59 76 154.5t51 139.5t20 54l-10 6q4 6 14 31h45q-4 -16 -10 -34.5t-10 -37.5l-10 5q-65 -254 -201 -484q-61 -106 -70 -106q-14 0 -16 -31q-94 -88 -86 -106q-14 -4 -73.5 -46t-61.5 -51q-2 2 -8 2t-42 -21.5 t-38 -25.5q-6 2 -23 2h-22q-10 -2 -25 -2l-51 10l-10 11q-31 8 -129 86l8 16q-53 35 -78 154q4 4 4 16t-10 8z" />
<glyph unicode="&#xe000;" horiz-adv-x="460" d="M0 0v461h461v-461h-461z" />
<glyph horiz-adv-x="0" />
<glyph />
<glyph horiz-adv-x="446" d="M68 393q20 8 24 25q49 27 129 55l17 14l65 21l19 -4q4 2 5 6t14 4t47 12.5t52 12.5l33 -33q-35 -68 -57 -68q-4 0 -5 -5t-3 -5q-14 0 -172 -170q2 -2 1 -9t13 -14.5t16 -9.5l25 -26l2 -11v-4v-16t6 -41q-14 -14 -12 -39q-57 -63 -137 -160h-27q-20 0 -47 39 q86 37 153 162q-18 41 -41 41l-51 -4q-6 0 -16 14.5t-15 16.5q2 9 21 49l-4 -4q0 -4 6 -6q47 51 147 163q4 2 11.5 10.5t21.5 22.5q-18 9 -18 4.5t6 -10.5q-6 8 -14 8q-39 0 -123 -84q-12 -4 -23 -16l4 -8q-18 4 -51 20q-14 20 -22 47zM305 436h19v8h-19v-8z" />
<glyph horiz-adv-x="849" d="M-1792 48q0 9 6 24q-6 10 0 22l12 -2q2 6 1 10t1 7q10 2 18.5 2t14.5 2q24 80 56 200q4 -4 11 16.5t9 27.5t6 19.5t9 25.5q14 33 24 40q-2 25 12 37q0 4 8 4q0 23 5 43q23 25 26 41l-6 4q2 0 8 13l8 -2q4 23 9.5 39t7.5 26q15 15 18 21l-10 4l14 16l4 -4l11 8l-7 4l41 72 l21 25l4 49l4 22q6 12 6 15l41 30q6 14 4 25q50 -10 58 -10l2 -19l10 -6q-47 -61 -47 -88q-62 -78 -57.5 -87t-0.5 -13q-29 -23 -28 -35l4 -4q-31 -31 -49 -74q-22 -41 -29 -80h-2l-6 -2q-2 2 -2 -6q-45 -74 -43 -113q-33 -23 -25 -28l11 -9q-39 -29 -72 -170q-6 -26 -8 -28 q18 -4 32 9q37 34 41 30l234 190l-4 17q10 -4 20 2t27 16q18 18 18 27q16 6 28.5 10t22.5 8q4 6 20.5 14.5t21.5 12.5t10 20q37 0 49 12l4 17q14 -8 43 20q55 18 74 37q6 4 32.5 10.5t36.5 14.5q4 4 4 12q4 -4 27 -4l2 -2v6q0 2 6 2l-6 -8h2q4 -4 9 1t8.5 2t4.5 -8t3 -9 q4 -4 20 -9l-2 -16q0 -2 4 0q-90 -109 -98 -147q-10 -4 -14 -9q-14 -8 -140 -256l-8 4q0 -32 -24 -77q-8 -27 -39 -82q-35 -43 -25 -64q-25 -10 -40 -49q-23 -60 -23 -92l-13 -2q-37 -88 -63.5 -154.5t-44.5 -111.5q0 -10 -7 -36t-27 -40t-38 10l-10 61q25 66 39 134l18 14 q6 -8 23 -10q111 267 161 366l-12 -2q33 41 35 62q27 45 20 55l11 4q10 6 14 29l8 28q61 118 127 242l-4 16q4 -2 5 0.5t5 5.5q5 4 19 27l-15 -4l7 10q-106 -35 -177 -90q-111 -86 -165 -119q2 4 -10 -5q-21 -15 -40 -44q-25 -16 -43 -31.5t-38 -29.5q-86 -76 -103 -107 q-11 0 -20 -6l-2 -12q-10 -4 -11.5 -6t-2.5 -2t-1 -4q-39 -31 -51 -66q-61 6 -84 29q-4 4 -4 13zM1073 295l17 16q2 4 11 9q11 7 21 20q4 0 13 4q61 68 137 311l12 15l12 -2q-2 25 0 39q69 86 72 137l31 37q27 -6 33 -7q8 -8 14 -57q-16 -16 -31.5 -39.5t-40.5 -60.5 q-47 -70 -47 -101q-92 -211 -104 -241q10 -4 16 -3t8 1v14q72 22 172 74q2 10 49 36t66 21q0 10 -2 14q6 0 8 -2q54 32 78 58q27 6 37 16q94 59 162 66l6 24q10 0 71 23t68.5 16.5t7.5 -2.5l2 4q4 -48 8 -71l-180 -211q-10 -10 -20.5 -36t-20.5 -34q-2 -4 -2 -8t4 -15 q-56 -56 -123 -239l-14 4l10 -23q-27 -29 -20 -41l-6 -10l-17 -10q-3 -28 -16 -61l-6 -3q-10 -20 -10 -28h-9q-6 -53 -34 -117q-23 -72 -25 -113l-16 2v-6l-11 -6l2 -8q-39 -4 -41 2q-16 10 -12 78l8 6q0 23 25 70q22 0 47 47l10 -4q-6 39 5 35q3 -1 10 2l-5 10l15 30l10 -6 q13 75 33 119.5t34.5 74.5t21.5 45t12.5 37.5t13.5 35.5l6 4q6 30 20 57q20 40 31 70q18 18 23 45q100 147 94 155q-115 -35 -162 -67q-217 -131 -322.5 -195.5t-101.5 -60.5q-31 -35 -37 -29l-2 10q-29 -29 -41 -43q-39 -12 -59 9q-16 16 -29 57zM2114 295l16 16q2 4 11 9 q10 7 22 20q4 0 12 4q61 68 137 311l12 15l13 -2q-2 25 0 39q68 85 71 137l31 37q27 -6 33 -7q8 -8 14 -57q-16 -16 -31.5 -39.5t-40.5 -60.5q-47 -72 -47 -101q-35 -80 -61.5 -140t-42.5 -101l-20 -103q-29 -29 -41 -43q-48 -15 -72 27q-8 14 -16 39zM2454 -219l8 6 q0 24 24 70q21 0 30 16t17 31l11 -4q-6 39 5 35q3 -1 9 2l-4 10l14 30l10 -6q12 69 32.5 116.5t35 77.5t22 45t12.5 37.5t13 35.5l6 4q5 26 20 55q18 35 31 72q18 18 23 45q100 147 94 155l-10 58l6 22q10 0 72 23q61 23 65 18.5t6 -4.5l7 -10q4 -38 8 -57l-180 -211 q-10 -10 -20.5 -36t-20.5 -34q-2 -4 -2 -8t4 -15q-17 -17 -28 -30q-34 -42 -95 -209l-15 4l11 -23q-27 -29 -21 -41l-6 -10l-16 -10q-2 -25 -17 -61l-6 -3q-10 -20 -10 -28h-8q-6 -50 -35 -117q-23 -72 -25 -113l-16 2v-6l-10 -6l2 -8q-39 -4 -41 2q-16 10 -12 78zM3168 295 l17 16q2 4 11 9q11 7 21 20q4 0 13 4q8 8 20 25l68 6q10 -4 16 -3t8 1v14q78 25 172 74q2 10 49.5 36t65.5 21q0 10 -2 14q6 0 8 -2q54 32 78 58q27 6 37 16q94 59 162 66l6 24q10 0 72 23q61 23 68 16.5t7 -2.5l2 4q5 -54 9 -71l-27 -31l-109 -23l-18 4h-2l-2 -2 q-107 -32 -158 -65q-217 -131 -322.5 -195.5t-101.5 -60.5q-31 -35 -37 -29l-2 10q-29 -29 -41 -43q-39 -12 -59 9q-16 16 -29 57zM4696 295l16 16q2 4 12 9q10 7 21 20q4 0 13 4q61 68 137 311l12 15l12 -2q-2 25 0 39q69 86 72 137l31 37q27 -6 32 -7q8 -8 15 -57 q-16 -16 -31.5 -39.5t-40.5 -60.5q-47 -70 -47 -101q-92 -211 -104 -241q10 -4 16 -3t8 1v14q72 22 172 74q2 10 49 36t66 21q0 10 -2 14q6 0 8 -2q54 32 78 58q27 6 37 16q94 59 161 66l7 24q10 0 71 23t68.5 16.5t7.5 -2.5l2 4q4 -48 8 -71l-180 -211q-10 -10 -20.5 -36 t-20.5 -34q-2 -4 -2 -8t4 -15q-56 -56 -123 -239l-14 4l10 -23q-27 -29 -20 -41l-6 -10l-17 -10q-3 -28 -16 -61l-6 -3q-10 -20 -11 -28h-8q-6 -55 -35 -117q-23 -72 -24 -113l-17 2v-6l-10 -6l2 -8q-39 -4 -41 2q-16 10 -12 78l8 6q0 23 25 70q22 0 47 47l10 -4q-6 39 5 35 q3 -1 9 2l-4 10l15 30l10 -6q13 75 33 119.5t34.5 74.5t21.5 45t12 37.5t14 35.5l6 4q6 30 20 57q20 40 31 70q18 18 23 45q100 147 94 155q-115 -35 -162 -67q-217 -131 -322.5 -195.5t-101.5 -60.5q-31 -35 -37 -29l-2 10q-29 -29 -41 -43q-39 -12 -59 9q-16 16 -29 57z " />
<glyph horiz-adv-x="692" d="M332 1090l2 6l6 10q31 96 47 106.5t29 -2.5q-12 -33 -21.5 -54t-13.5 -31.5t-4 -15.5t-2 -9l10 -25h2q4 -10 15.5 -5t16.5 -5t26.5 -22.5t31.5 -8.5l23 10q14 4 24.5 5.5t16.5 3.5l2 8l51 12l4 17l31 38l4 13q-8 8 -25 8l10 16l3 15q0 31 16 37l45 16q14 3 29 -25 q0 -4 -6.5 -8t-8.5 -12q4 4 13 -6q4 -14 -23 -92l-10 -9l-19 -30l-6 -2q-4 -12 -6 -13l-78 -45l-10 6l-8 -8q-34 -22 -76 -26q-18 -2 -56 14t-50 35l-15 8l-4 24l-10 21zM596 356l4 11q1 96 21 110q8 6 24 -6l-10 -90l2 -21l16 -24h2q8 -10 23.5 -36t22.5 -36t35 -22t36 -9 l16 11q14 4 23.5 5t15.5 3v8l35 74v16l21 39v12q-8 8 -27 9l4 16q-2 0 -2 14q-8 31 6 37l41 17q8 2 17 -6l18 -19q2 -4 -3 -8t-5 -12q2 2 6 -1.5t8 -7.5t4 -34q0 -131 -11 -114q-5 7 -9 27v3q-14 -23 -20.5 -33t-12.5 -21q6 0 6 2q0 4 2 4t3 -5t-1 -7v-2l-47 -63h-4 q-40 -32 -63 -34.5t-67 13.5q-60 22 -75 62q-2 -2 -3 0t-7 20q-12 18 -23.5 37.5t-19.5 32.5v6z" />
<glyph horiz-adv-x="1024" d="M-3138 63q19 38 33 89q0 -2 2 -2l15 10l-9 4q16 25 39 61.5t54 83.5q14 16 34.5 40t47.5 54q39 55 92 107q59 14 66 14t16.5 -6t18.5 -15t16.5 -17.5t7.5 -19.5t-23 -40q-38 -51 -44.5 -73t-35.5 -62h-2l-2 -4v-4l-39 -95l-69 -86h-7q-4 4 -14 4q-4 0 -13 -17t-20 -17 q-10 0 -65 -70q-2 2 -14 2t-31 -8h-15q-6 14 -28 18l2 4q0 14 -13 45zM-3062 96q2 -4 2 -9t2 -13q0 14 13 14q12 0 12 -6q14 10 26.5 26.5t28.5 36.5q6 12 22.5 24.5t20.5 18.5q-4 20 62 111q12 43 24 53q0 16 -18 33q-20 -24 -62 -82q-39 -27 -133 -207zM-2587 883 q-2 6 20.5 51t16.5 49q106 88 137 94q6 0 13 -2l10 2l49 2q152 -10 189 -22q94 -25 163 -90q0 -4 -3 -10.5t-7 -16.5q-35 16 -86 42q-85 42 -133 38q-12 6 -80 8t-80 -4q-35 -6 -77 -42q-68 -58 -64 -87q20 -94 166 -182q4 -4 6 -4l6 6q14 -10 14 -19q12 -6 33 -2 q8 -8 22.5 -13t37.5 -15q20 -4 28 -4l-6 -7l33 -14l-4 -37l24 -20l13 -72l-13 -82l-12 -2l4 -2q-18 -37 -39.5 -81t-44.5 -95v2l-14 88l59 123v6l6 43h17l-21 51l-8 25l-8 10l-37 31l-4 4q-72 29 -98 20v2q-4 10 -18.5 15.5t-24.5 -0.5q-6 14 -29 26l-43 21l-39 31 q-12 24 -36 50t-25.5 34t2.5 14t2 11t-8.5 12.5t-8.5 13.5zM-1464 -4q0 41 26.5 94t63.5 53q2 -2 18 -22q-25 -14 -34 -48t-17 -65q2 2 23 2q2 -2 2 -10h4l18 10q29 0 117 88q74 70 110 123l-10 4q20 13 29.5 45.5t9.5 45.5t-16.5 32t-32.5 19t-68.5 -30t-52.5 -38t-16 -19 q-37 -28 -37 -55l-10 -12l-31 -4q-2 0 -2 5t-4 5q-2 -2 -3 -2t-3 -2q-8 23 -17 29l2 22l47 45l7 21l51 41h10q4 4 13.5 9t27.5 17q21 14 47 27l10 10l27 -8l14 4q45 0 61 -24q33 -50 38 -54q-4 -4 -8.5 -47t-14.5 -57q-2 -8 -6 -19.5t-8 -27.5q-10 -18 -50 -73.5 t-49.5 -55.5t-9.5 -2l6 -6q-47 -14 -116 -89q-8 0 -25.5 -12t-26.5 -12v-10h-4l-14 4q-6 0 -13.5 -10.5t-11.5 -10.5q-27 19 -43 6q6 6 6 9q-14 10 -34 55zM-1380 215q2 -2 2 -6z" />
<glyph horiz-adv-x="313" d="M-766 63q19 38 33 89q0 -2 2 -2l12 8l2 2l-8 4q12 18 33 51q72 158 71 186q0 4 -6 15q2 2 9.5 8t16.5 15t36 9.5t22 -16.5q6 -10 6 -23t-2 -24l-4 -4l-6 -27l-2 -6l-27 -33l19 11l2 2l27 10l16 -2h20l7 -6l6 -2l8 -6l8 -13q0 -2 -2 -4l6 -18l2 -27l-8 -33l-90 -123l-12 2 q-4 0 -13.5 -17t-19.5 -17t-66 -70q-2 2 -14 2t-31 -8h-14q-6 14 -29 18l2 4q0 14 -12 45zM-690 96q2 -4 2 -8t2 -8q2 8 13 8t11 -6q14 10 26.5 26.5t23.5 29.5q14 18 30 34l4 10l3 6l4 17l12 8v6l8 12v2l6 5l2 12v14l-12 6l-2 6l-23 -4l-16 -12q-6 -8 -12 -18 q-7 -13 -18 -24t-17 -24.5t-15.5 -35t-31.5 -62.5zM-43 37l49 127h-2q115 237 102 234q-4 -1 -4 6.5t-6 17.5q2 2 9.5 8t16.5 15t36 9.5t22 -16.5q6 -10 6 -32.5t-21 -59.5t-25.5 -44t-8.5 -15q6 0 35 19q31 21 57 34l10 10l27 -8l14 4q45 0 56.5 -18t10.5 -26.5t-5 -14.5 q-10 -15 -8 -17q-4 -4 -8 -36q-4 -41 -13.5 -54.5t-9.5 -17.5t-2 -8l-8 -7l-2 -12l-17 -14l-37 -55l-20 -15l-33 -39l-24 -26v2q-6 -6 -9 -11l-51 -24v-10h-4l-14 4q-6 0 -13.5 -10.5t-11.5 -10.5q-19 13 -26.5 13t-16.5 -7q6 6 6 9q-14 10 -34 55v15q0 7 4 18zM37 8 q0 2 22 2q2 -2 2 -10h5l18 10q23 0 94 68l19 31l10 2v2l10 37l12 4l-6 8h2l39 61v13q-4 16 4 30.5t-7 14.5t-67 -30t-53 -38q0 -8 -15 -19q-36 -28 -38 -55l-8 -10q2 -2 3 -4t5 -4q-25 -14 -34 -48t-17 -65z" />
</font>
</defs>
</svg>
